<svg height="118.96937" viewBox="0 0 533.40503 118.96937" width="533.40503" xmlns="http://www.w3.org/2000/svg" xmlns:xlink="http://www.w3.org/1999/xlink"><clipPath id="a"><path d="m0 95.175h426.724v-95.175h-426.724z"/></clipPath><g clip-path="url(#a)" transform="matrix(1.25 0 0 -1.25 0 118.96937)"><path d="m0 0 8.247 26.613 8.247-26.613zm20.294 47.621c-2.139 6.665-6.151 9.997-12.047 9.997-5.94 0-9.952-3.332-12.036-9.997l-26.012-84.365h18.355l6.464 20.607h26.391l6.386-20.607h18.5z" fill="#a92d38" transform="translate(157.0191 36.744)"/><path d="m0 0v-16.137h20.283v-78.225h17.765v78.225h20.283v16.137z" fill="#a92d38" transform="translate(185.7835 94.3619)"/><path d="m0 0 8.247 26.613 8.247-26.613zm20.283 47.621c-2.128 6.665-6.14 9.997-12.036 9.997-5.951 0-9.963-3.332-12.036-9.997l-26.012-84.365h18.355l6.464 20.607h26.38l6.386-20.607h18.511z" fill="#a92d38" transform="translate(256.5298 36.744)"/><path d="m0 0c6.999 2.251 12.783 6.018 17.363 11.278 4.625 5.316 6.944 11.19 6.944 17.631 0 6.932-2.954 12.884-8.849 17.832-5.896 5.004-12.65 7.5-20.284 7.5h-20.283c-3.076 0-5.751-1.036-8.035-3.109-2.274-2.073-3.411-4.48-3.411-7.222v-84.031h17.754v78.225h13.931c2.964 0 5.606-1.059 7.935-3.177 2.318-2.117 3.477-4.502 3.477-7.166 0-3.867-2.196-7.132-6.587-9.796-2.084-1.036-4.101-2.062-6.085-3.098-1.972-1.036-4-2.073-6.073-3.109-4.391-2.931-6.598-6.709-6.598-11.346 0-2.485 1.56-5.906 4.67-10.275l21.275-30.258h20.729z" fill="#a92d38" transform="translate(339.6022 40.1208)"/><path d="m373.415 0h17.765v94.362h-17.765z" fill="#a92d38"/><path d="m0 0c-.501.257-.972.39-1.412.39-.767 0-1.443-.421-2.016-1.284-.583-.801-.869-1.767-.869-2.887v-14.763h4.502v12.144l21.814-11.404v6.287z" fill="#a92d38" transform="translate(404.705 18.5436)"/><path d="m0 0c-.859-.863-1.86-1.288-2.989-1.288-.936 0-1.77.515-2.514 1.546-.731 1.03-1.103 2.202-1.103 3.516 0 1.301.372 2.46 1.103 3.49.744 1.03 1.578 1.546 2.514 1.546 1.129 0 2.13-.425 2.989-1.288.962-.941 1.45-2.19 1.45-3.748 0-1.533-.488-2.795-1.45-3.774m-10.78.482c-.685-.965-1.477-1.447-2.366-1.447-1.032 0-1.957.398-2.785 1.206-.901.916-1.345 2.097-1.345 3.532 0 1.459.444 2.628 1.345 3.508.828.808 1.753 1.205 2.785 1.205.889 0 1.681-.482 2.366-1.446.696-.965 1.044-2.05 1.044-3.267 0-1.23-.348-2.327-1.044-3.291m13.686 10.481c-1.463 2.054-3.182 3.092-5.157 3.092-2.363 0-4.297-1.027-5.801-3.072-1.443 2.045-3.162 3.072-5.147 3.072h-.634c-1.975 0-3.694-1.038-5.168-3.092-1.483-2.045-2.22-4.449-2.22-7.192s.737-5.147 2.22-7.212c1.474-2.055 3.193-3.092 5.168-3.092 2.373 0 4.297 1.037 5.781 3.092 1.442-2.055 3.161-3.092 5.146-3.092h.655c1.975 0 3.694 1.037 5.157 3.092 1.463 2.086 2.19 4.49 2.19 7.212 0 2.712-.727 5.106-2.19 7.192" fill="#a92d38" transform="translate(421.6284 27.9328)"/><path d="m0 0c-4.104 0-7.435 3.345-7.435 7.466s3.331 7.465 7.435 7.465 7.435-3.344 7.435-7.465-3.331-7.466-7.435-7.466m0 19.424c-6.579 0-11.91-5.353-11.91-11.958 0-6.606 5.331-11.959 11.91-11.959s11.91 5.353 11.91 11.959c0 6.605-5.331 11.958-11.91 11.958" fill="#a92d38" transform="translate(413.5658 49.1722)"/><path d="m0 0c-4.104 0-7.435 3.345-7.435 7.466s3.331 7.465 7.435 7.465 7.435-3.344 7.435-7.465-3.331-7.466-7.435-7.466m0 19.424c-6.579 0-11.91-5.353-11.91-11.958 0-6.606 5.331-11.959 11.91-11.959s11.91 5.353 11.91 11.959c0 6.605-5.331 11.958-11.91 11.958" fill="#a92d38" transform="translate(413.5658 74.938)"/><g fill-rule="evenodd"><path d="m65.22.312h-12.516v9.963h12.516v-9.963z" fill="#6c4d9d"/><path d="m0 0v-10.231c-4.993-.212-9.852.446-14.544 2.017-4.725 1.583-9.083 3.778-12.916 6.776-.602.468-1.215.948-1.806 1.438z" fill="#6c4d9d" transform="translate(118.1353 10.2754)"/><path d="m0 0c-4.023-3.399-8.637-5.996-13.764-7.835-4.692-1.671-9.517-2.541-14.555-2.396h-1.069c0 3.477-.012 6.865.022 10.231z" fill="#6c4d9d" transform="translate(29.3903 10.2754)"/><path d="m0 0c-1.683-3.12-3.689-6.074-6.13-8.804-1.861-2.084-3.766-4.146-5.895-5.996-.156-.134-.301-.256-.457-.379h-29.366c-.011.947 0 1.883.011 2.831 0 .278.39.758.657.802 3.957.647 7.713 1.861 11.156 3.7 2.742 1.471 5.417 3.121 7.891 4.948 1.237.903 2.407 1.873 3.521 2.898z" fill="#3e6eb2" transform="translate(41.8723 25.4544)"/><path d="m0 0v-3.466h-29.266c-1.103.88-2.173 1.783-3.176 2.742-3.054 2.953-5.639 6.241-7.846 9.785-.546.869-1.059 1.761-1.549 2.652h18.678c.792-.769 1.605-1.516 2.463-2.207 5.751-4.68 12.315-8.024 19.983-9.316.245-.034.479-.123.713-.19" fill="#3e6eb2" transform="translate(118.1353 13.7413)"/><path d="m65.22 10.275h-12.516v15.179h12.516z" fill="#3e6eb2"/><path d="m65.22 25.454h-12.516v14.856h12.516z" fill="#35afdf"/><path d="m0 0h-18.678c-1.572 2.82-2.876 5.751-3.912 8.793-.68 2.006-1.293 4.012-1.761 6.063h13.128c1.795-3.622 3.979-7.055 6.776-10.153 1.438-1.594 2.887-3.21 4.447-4.703" fill="#35afdf" transform="translate(94.9767 25.4544)"/><path d="m0 0c-.613-2.909-1.538-5.74-2.664-8.515-.88-2.173-1.85-4.29-2.964-6.341h-18.612c2.764 2.485 5.16 5.294 7.256 8.336 1.448 2.107 2.797 4.269 3.945 6.52z" fill="#35afdf" transform="translate(47.5004 40.3103)"/><path d="m0 0c0-.557-.011-1.114-.011-1.672-.022-2.819-.602-5.65-1.026-8.459-.111-.713-.234-1.426-.39-2.128h-13.039c.747 1.471 1.404 2.975 1.95 4.525.892 2.552 1.672 5.137 2.397 7.734z" fill="#9ecf81" transform="translate(48.9269 52.5694)"/><path d="m65.22 40.31h-12.516v12.259h12.516z" fill="#9ecf81"/><path d="m0 0h-13.128c-.368 1.549-.636 3.12-.781 4.703-.234 2.519-.49 5.037-.601 7.556h9.941c.602-2.585 1.504-5.104 2.496-7.612.624-1.571 1.315-3.131 2.073-4.647" fill="#9ecf81" transform="translate(83.754 40.3103)"/><path d="m0 0c0-5.327-.022-10.654-.056-15.97h-10.119c.301 1.092.591 2.173.869 3.265.457 1.75.68 3.6.702 5.405.034 2.43.056 4.87.078 7.3z" fill="#fdd255" transform="translate(48.9826 68.5397)"/><path d="m0 0h-9.941c-.022.635-.045 1.271-.045 1.906-.022 4.692-.033 9.372-.033 14.064h8.358c0-1.226.023-2.452.034-3.666.044-3.065.646-6.119 1.048-9.172.133-1.059.334-2.096.579-3.132" fill="#fdd255" transform="translate(79.1847 52.5694)"/><path d="m65.22 52.569h-12.516v15.97h12.516z" fill="#fdd255"/><path d="m65.22 68.54h-12.516v12.638h12.516z" fill="#f89f5c"/><path d="m0 0h-8.359c-.011 4.213-.011 8.425-.011 12.638h8.337c-.012-4.224-.012-8.436.033-12.638" fill="#f89f5c" transform="translate(77.5241 68.5397)"/><path d="m0 0v-12.638h-8.526c.034 4.213.067 8.425.089 12.638z" fill="#f89f5c" transform="translate(48.9826 81.1778)"/><path d="m0 0c0-4.19 0-8.37.011-12.549h-8.436c.033 4.358.055 8.715.078 13.073v.657h8.347z" fill="#ee3d57" transform="translate(48.9715 93.7267)"/><path d="m0 0v-1.126c0-4.201-.022-8.414-.022-12.615h-8.337c.012 4.168.012 8.325.012 12.493v1.248z" fill="#ee3d57" transform="translate(77.513 94.9192)"/><path d="m52.705 95.175h12.516v-13.998h-12.516z" fill="#ee3d57"/></g></g></svg>