<svg enable-background="new 0 0 3839 689.6" viewBox="0 0 3839 689.6" xmlns="http://www.w3.org/2000/svg"><g fill="#ffe000"><path d="m2222.6 94.8h127.4v502.1h-127.4z"/><path d="m2053.3 94.8v271.2l-198.8-271.2h-101.8v502h127.3v-251.9l184.7 251.9h115.8v-502z"/><path d="m1583.4 94.8v271.2l-198.9-271.2h-101.7v502h127.2v-251.9l184.8 251.9h115.9v-502z"/><path d="m2544.8 94.8h127.4v502.1h-127.4z"/><path d="m2248.6 286.2h254.2v127.4h-254.2z"/><path d="m2248.6 94.8h254.2v127.4h-254.2z"/><path d="m2248.6 469.6h254.2v127.4h-254.2z"/><path d="m2560.5 469.6h254.2v127.4h-254.2z"/><path d="m493.8 278.1h254.2v127.3h-254.2z"/><path d="m1113.4 94.8h127.3v502.1h-127.3z"/><path d="m684.3 94.8h127.3v502.1h-127.3z"/><path d="m414.3 94.8h127.4v502.1h-127.4z"/><path d="m972.7 286.2h254.2v127.3h-254.2z"/><path d="m1155.8 94.8h-142.2l-238.2 502h142.2z"/><path d="m372.3 264.8c-25.8-34.9-67.8-53.6-111-53.6-77.4 0-129.7 59.4-129.7 134.9 0 76.8 52.9 132.3 131.7 132.3 41.3 0 82.6-20 109.1-51.6v151.7c-42 12.9-72.3 22.6-111.6 22.6-67.8 0-132.3-25.8-182.6-71.6-53.7-48.5-78.2-111.7-78.2-184 0-66.5 25.2-130.4 71.6-178 47.8-49.1 116.8-78.7 185.2-78.7 40.6 0 78.1 9 115.5 24.5z"/></g><path d="m3827 344.8c0-98.4-19.8-188.4-33.5-238.8-7.6-27.9-29.1-49.9-57-57.6-104.4-29-267.9-36.4-369.5-36.4-101.6 0-265 7.4-369.5 36.4-27.8 7.7-49.4 29.7-57 57.6-13.7 50.5-33.5 140.5-33.5 238.8 0 98.4 19.8 188.4 33.5 238.8 7.6 27.9 29.1 49.9 57 57.6 104.5 29 267.9 36.4 369.5 36.4 101.6 0 265-7.4 369.5-36.4 27.8-7.7 49.4-29.7 57-57.6 13.7-50.4 33.5-140.4 33.5-238.8z" fill="#fff"/><path d="m3367 689.6c-56.3 0-249.4-2.7-372.7-36.8-31.7-8.8-56.7-34.1-65.4-66.1-12.7-46.7-33.9-140.2-33.9-241.9s21.2-195.3 33.9-242c8.7-32 33.7-57.3 65.4-66.1 123.3-34 316.4-36.7 372.7-36.7s249.5 2.7 372.7 36.8c31.7 8.8 56.7 34.1 65.4 66.1 12.6 46.7 33.9 140.2 33.9 242s-21.2 195.3-33.9 242c-8.7 32-33.7 57.3-65.4 66-123.1 34.1-316.4 36.7-372.7 36.7zm0-665.6c-219.5 0-335.8 27.6-366.2 36-23.5 6.5-42.1 25.4-48.6 49.2-12.3 45.5-33.1 136.7-33.1 235.7s20.7 190.2 33.1 235.7c6.4 23.8 25.1 42.7 48.6 49.2 30.4 8.4 146.8 36 366.3 36s335.8-27.5 366.3-36c23.5-6.5 42.1-25.4 48.6-49.2 12.3-45.5 33.1-136.7 33.1-235.7s-20.7-190.2-33.1-235.7c-6.5-23.8-25.1-42.7-48.6-49.2-30.5-8.4-146.7-36-366.4-36z"/><path d="m3207.7 67.2h127.7v555.3h-127.7z" fill="#ff001f"/><path d="m3271.5 285h254.9v127.7h-254.9z" fill="#ff001f"/><path d="m3207.7 67.2h318.7v127.7h-318.7z" fill="#ff001f"/></svg>