<svg enable-background="new 0 0 3840 1134.2" viewBox="0 0 3840 1134.2" xmlns="http://www.w3.org/2000/svg" xmlns:xlink="http://www.w3.org/1999/xlink"><linearGradient id="a" gradientUnits="userSpaceOnUse" x1="-0" x2="3840" y1="567.1044" y2="567.1044"><stop offset="0" stop-color="#d81526"/><stop offset=".25" stop-color="#de551e"/><stop offset=".5" stop-color="#eeb824"/><stop offset=".75" stop-color="#75b230"/><stop offset="1" stop-color="#49a070"/></linearGradient><path d="m785.1 544.8h409.3c86.4 0 156.5-70.1 156.5-156.5v-231.4c0-86.4-70-156.4-156.4-156.5l-409.2-.4c-86.5-.1-156.7 70-156.7 156.5v231.8c0 86.5 70.1 156.5 156.5 156.5zm2.2-349.3c0-33.5 27.2-60.7 60.7-60.7h283.6c33.5 0 60.7 27.2 60.7 60.7v151.3c0 33.5-27.2 60.7-60.7 60.7h-283.6c-33.5 0-60.7-27.2-60.7-60.7zm2896.3-193.8-409.3-.4c-86.5-.1-156.7 70-156.7 156.5v231.8c0 86.4 70.1 156.5 156.5 156.5h409.3c86.4 0 156.5-70.1 156.5-156.5v-231.4c.1-86.3-69.9-156.4-156.3-156.5zm-2.3 346.5c0 33.5-27.2 60.7-60.7 60.7h-283.6c-33.5 0-60.7-27.2-60.7-60.7v-151.3c0-33.5 27.2-60.7 60.7-60.7h283.6c33.5 0 60.7 27.2 60.7 60.7zm-3081 60.7h-380.9c-33.5 0-60.7-27.2-60.7-60.7v-151.3c0-33.5 27.2-60.7 60.7-60.7h380.9v-134.6l-443.6-.3c-86.5-.1-156.7 70-156.7 156.5v231.8c0 86.4 70.1 156.5 156.5 156.5h443.8zm2045.4 137.3h443.8v-137.3h-380.9c-33.5 0-60.7-27.2-60.7-60.7v-151.3c0-33.5 27.2-60.7 60.7-60.7h380.9v-134.6l-443.6-.2c-86.5-.1-156.7 70-156.7 156.5v231.8c-0 86.4 70.1 156.5 156.5 156.5zm-1110.2-1.1h297.3v-137.2h-234.4c-33.5 0-60.7-27.2-60.7-60.7v-345.3h-158.7v386.7c0 86.4 70.1 156.5 156.5 156.5zm481.9 1.1h443.7v-137.3h-401.1c-22.4 0-40.6-18.2-40.6-40.6s18.2-40.6 40.6-40.6h363.2v-108h-362c-23.1 0-41.8-18.7-41.8-41.8s18.7-41.8 41.8-41.8h399.9v-134.6l-600.3-.4v388.5c0 86.5 70.1 156.6 156.6 156.6zm-955.1 586.6h159.5v-542h-159.5zm886.7 0h158.7v-542h-158.7zm-197.6-338.5h-298.2c-18.9 0-34.3-15.3-34.3-34.3 0-18.9 15.3-34.3 34.3-34.3h439.4v-135h-473.6c-87.6 0-158.7 71-158.7 158.7v21.2c0 87.6 71 158.7 158.7 158.7h298.2c18.9 0 34.3 15.3 34.3 34.3s-15.3 34.3-34.3 34.3h-456.8v135h491.1c87.6 0 158.7-71 158.7-158.7v-21.2c-.1-87.7-71.2-158.7-158.8-158.7zm960.8-204.5-409.3-.4c-86.5-.1-156.7 70-156.7 156.5v231.8c0 86.4 70.1 156.5 156.5 156.5h409.3c86.4 0 156.5-70.1 156.5-156.5v-231.4c.1-86.4-69.9-156.4-156.3-156.5zm-2.3 346.4c0 33.5-27.2 60.7-60.7 60.7h-283.6c-33.5 0-60.7-27.2-60.7-60.7v-151.3c0-33.5 27.2-60.7 60.7-60.7h283.6c33.5 0 60.7 27.2 60.7 60.7zm763.2-346.4-409.3-.4c-1.2 0-2.4.1-3.5.2v-.2h-153.1v543.4h158.7v-347.9c0-33.5 27.2-60.7 60.7-60.7h283.6c33.5 0 60.7 27.2 60.7 60.7v346.1l158.7 1.8v-386.5c-.1-86.4-70.1-156.4-156.5-156.5zm-2858.3 391.8-225.6-390.8h-183.2l312.9 542h191.8l312.9-542h-183.2z" fill="url(#a)"/></svg>