<svg enable-background="new 0 0 3839 918.9" viewBox="0 0 3839 918.9" xmlns="http://www.w3.org/2000/svg"><g fill="#32398f"><path d="m0 738.2h232.7v77.1c0 49.8-38.4 103.1-96.1 103.1h-110.7v-44.9h96.9c50.6 0 71.2-37.6 71.2-58.3v-32.2h-194z"/><path d="m246.1 783.4h187.1v50.6c0 42.8-32.3 45.7-44.9 45.7h-39.3c0 37.5-45.2 39.2-45.2 38.8h-58.2v-38h64.8c7.4 0 13.4-6 13.4-13.5 0-.5 0-1-.1-1.5v-23.7h58.9c10.3-.2 18.4-8.7 18.1-18.9 0-.3 0-.5 0-.9h-154.2z"/><path d="m698.2 737.7h32.3v116.4h-32.3z"/><path d="m892.7 737.7h31.6v94.1c0 67.6-73.2 87-90.7 87h-103v-45.3h103.4c52.2 0 58.7-49.8 58.7-64.4z"/><path d="m943.9 808.8h219.5v45.2h-219.5z"/><path d="m1254.3 737.7h232.7v181.2h-232.7v-45.4h200.4v-90.5h-200.4z"/><path d="m1506.4 737.7h129.3v45.2h-129.3z"/><path d="m1506.4 873.5v44.9h129.8c69.1 0 96.6-51.4 96.6-88.9v-91.8h-32v83.7c0 46-48.1 52.1-58.2 52.1-.1-0-136.2-0-136.2-0z"/><path d="m1752.1 737.5h32.3v45.5h126.2c16.7 36.9 57.1 36.4 73.8 9.5v35.4h-200.1v26.3c0 22.6 25.8 19.4 25.8 19.4h173.8v44.9h-173.7c-30 2.1-56.1-20.5-58.1-50.6z"/><path d="m1950.2 799.9c-16.8.3-30.8-13.1-31.1-29.9s13.1-30.8 29.9-31.1h1.1v13.7c-9.3 0-16.8 7.5-16.8 16.8s7.5 16.8 16.8 16.8v13.8h.1z"/><path d="m2017.2 789.5h129.3v85.1h38.4v43.8h-186.7v-44.4h122.9v-46.2h-103.9z"/><path d="m2166 809.8h226.4v38.9h-226.4z"/><path d="m2405.6 795.7v45.3c51.7 0 63.9-58.7 63.9-58.7h136.1v26.7h-135.4v45h115.9c0 17.4-33.5 19.4-33.5 19.4h-128.1v44.8h123.2c46.1.9 85.2-33.4 90.5-79.1v-101.4h-193.5c1.1 25.8-14.8 49.3-39.1 58z"/><path d="m684.8 803.2v-38.8l-231.9-20.1v38.7z"/><path d="m684.8 861v-38.8l-231.9-20.2v38.8z"/><path d="m684.8 918.9v-38.9l-231.9-20.2v38.6z"/><path d="m1950.2 799.9c16.8.3 30.8-13.1 31.1-29.9s-13.1-30.8-29.9-31.1c-.3 0-.8 0-1.1 0v13.7c9.3 0 16.8 7.5 16.8 16.8s-7.5 16.8-16.8 16.8v13.8h-.1z"/></g><path d="m3805.8 652.8-42.6 40h-3763.2v-40z" fill="#e33a25"/><path d="m1409.6 416c-.9 106.7 84.8 194.2 191.6 195.4 71.5-.3 136.8-40.6 169.1-104.3l.8-1.5h-84.2c-22.8 22.6-53.5 35.4-85.7 35.6-69.1-1.9-123.6-59.2-121.7-128.3 1.7-66.5 55.3-120.1 121.7-121.7 31.8.1 62.3 12.7 84.8 35.2l85.1.2-.8-1.5c-32.3-63.7-97.7-103.9-169.1-104.2-106.9.9-192.5 88.2-191.6 195.1zm365.3 1c2.1 105.8 89.5 189.9 195.4 187.8 105.8-2.1 189.9-89.5 187.8-195.4-2.1-104.3-87.2-187.8-191.5-187.9-106.9 1.3-192.6 88.7-191.7 195.5zm69.1 0c1.4-67.6 57.4-121.4 125-120s121.4 57.4 120 125c-1.4 66.6-55.8 120-122.5 120-68.3-.7-123.1-56.7-122.5-125zm1694.6-193.8h-193.1v384.8h193.9v-74h-121.3v-77.2h121.3v-74.1h-121.3v-85.4h121.3v-74.1h-1.1.2zm-3103.6 0h-57.1l-265.3 384.9h82.2s41-59.7 41.5-60.5h129.8v60.5h69.8v-384.9zm-147 248.9 78.1-114.3v121.1h-82.6c1.4-2.2 4.5-6.8 4.5-6.8zm2284.7-248.8h-81s-113 261.1-114.8 265.3c-1.9-4.3-115.3-265.3-115.3-265.3h-81.8v384.9h72.4v-191.6c1.2-.3 6.9-1.5 8.1-1.9l84.1 193.5h64.7s83.3-191.8 83.9-193.4c1.2.2 6.9 1.5 8.2 1.7v191.5h72.4v-384.7zm532.3 0h-71.8v259.8c.4 27.5-21.6 50.2-49.2 50.6-27.5.4-50.2-21.6-50.6-49.2 0-.4 0-1 0-1.4v-259.8h-72.7v259.8c-1.1 67.7 52.9 123.5 120.6 124.6s123.5-52.9 124.6-120.6c0-1.3 0-2.6 0-3.9v-259.8zm457.6.1h-1.1v386.1h72.7v-203.2c3.6 6.1 120 201.8 120 201.8h81.6s-81.9-138.1-83.1-140.3c1.5-.5 4.8-1.7 4.8-1.7 64.9-24.3 97.8-96.5 73.6-161.3-17.8-47.7-62.7-79.9-113.6-81.5zm155.1 73.9c27.4 1 49.2 23.6 48.9 51.1.4 27.5-21.4 50.3-48.9 50.8h-83.4v-101.9zm-1120.8-73.9h-1v384.8h72.7v-137h51.8c68.4-1.3 122.8-57.8 121.6-126.2-1.2-66.6-55-120.3-121.6-121.6zm123.4 73.9c27.6.5 49.5 23.4 48.9 51-.5 26.8-22.2 48.4-48.9 48.9h-51.8v-100h51.8zm603.7-73.9h-197.2v73.9h62.6v310.8h72.7v-310.8h62.9v-73.9zm-1957.1 0h-75.2s-77.2 150.6-79 154.1c-1.7-3.4-79-154.1-79-154.1h-76.9l119.6 236.6-.1 148.3h72.9l.2-148.7c.1 0 118.5-234.6 118.5-234.6l.8-1.5zm-329.8 0h-71.6v384.7h170.9v-74.1h-98.3v-310.6zm-94.7 0h-68.1v384.7h69.1v-384.7zm-91.3 0h-81.1s-113 260.9-114.8 265.1l-115.2-265.1h-81.7v384.7h72.4v-191.6c1.2-.2 6.9-1.5 8.1-1.7.7 1.5 84.1 193.4 84.1 193.4h64.7l84-193.4c1.2.3 6.9 1.5 8.1 1.9v191.5h72.4v-384.8zm-652.7 0h-198.4v384.7h73.9v-151.5h125.5v-73.6h-125.5v-88.6h125.5v-70.8z" fill="#e33a25"/><path d="m154.2 113.5v27.9h-153.5v-27.9zm-18.2-92.2v27.5h-119.2v-27.5z" fill="#32398f"/><path d="m248.1 62.9c-17.1-11.9-36-21.1-55.9-27.4l12.8-24.4c20.5 5.7 40.2 14.3 58.3 25.6zm-53.4 63.4c79.1-6.2 108.6-42.6 125.8-103.5l26.9 13.3c-27 91-80.1 111.7-143.2 120.6z" fill="#32398f"/><path d="m526 52.8v26.3h-56.1l-.2 2.8c.2 21-8.2 41.2-23.5 55.6-15.6 11.7-34 19.3-53.3 22.2l-11.7-25c10.3-1.6 34.6-5.4 47.9-19.6 7-9.6 11-21.1 11.4-33l.2-3.1h-65v-26.2zm-14.1-45.2v26.4h-122v-26.4z" fill="#32398f"/><path d="m621.2 62.9c-17.2-11.9-36.1-21.1-55.9-27.4l12.8-24.4c20.5 5.7 40.2 14.3 58.3 25.6zm-53.4 63.4c79.1-6.2 108.6-42.6 125.8-103.5l26.9 13.3c-27 91-80.1 111.7-143.2 120.6z" fill="#32398f"/><path d="m786.9 2.6v42.3c29.7 9.4 58.3 22 85.4 37.4l-15 30c-21.6-15.7-45.4-28.3-70.5-37.3v84.2h-30.9v-156.6zm46.5 43.1c-4-9.5-9.1-18.6-15-27l14.5-6.9c6 8.1 11.3 16.8 15.4 25.9zm23-13.7c-4-8.9-9.2-17.3-15.1-25l14.7-7c6 7.4 11.3 15.4 15.4 24z" fill="#32398f"/><path d="m1042 66.1v29.7h-140.9v-29.7z" fill="#32398f"/><path d="m1249.4 13.3c-3.9 35.4-16.6 69.2-37.1 98.2-28.1 35.7-72.3 44.5-94.9 47.7l-11.6-26.3c67-8.9 86.8-32.7 101.9-74.4 3.1-8.3 4.6-14.4 5.9-19h-49.7c-12.9 19.9-30.2 36.7-50.5 49.1l-18.5-20.8c13.4-7.3 25.5-17.2 35.4-28.7 9.4-11.3 16.9-23.9 22.4-37.5l29.7 5.7c-1.2 2.5-1.4 2.6-3.1 6z" fill="#32398f"/><path d="m1430.3 51.6c-3.1 30.6-11.7 61.5-35.7 80.3-18.8 14.8-46.3 24-83.9 26.9l-8.5-26.7c71.1-2.6 87.7-27.2 94.2-54.4h-113v-26.1zm-11.8-43.6v26.3h-122v-26.3z" fill="#32398f"/><path d="m1522.6 93.1c-16.5-9.2-34.1-16.2-52.4-20.8l9.9-23.8c18.7 3.5 36.7 9.9 53.3 19.2zm-42.9 33.8c57.3-5 95.8-16.9 119.4-96.4l26.7 12.8c-28.1 83.9-71.5 106.1-138.2 114.1zm58.6-76.6c-17.3-8.9-35.5-15.4-54.4-19.6l10.1-23.6c19.2 3.3 37.9 9.3 55.4 17.9z" fill="#32398f"/><path d="m1669.9 97c-2.5-15.5-7.3-30.6-14-44.8l22.5-6c7.3 14.2 12.6 29.4 15.6 45.1zm.2 42c64.7-15.6 77.5-40.5 89.2-99.5l27.5 6.4c-9.7 41.2-23.3 96.8-103.8 115.5zm40-50.9c-2.3-15.3-6.6-30.2-12.6-44.5l22.5-4.8c7 13.8 11.5 28.6 13.3 43.8z" fill="#32398f"/><path d="m1976.1 13.3c-3.9 35.4-16.6 69.2-37.1 98.2-28.1 35.7-72.3 44.5-94.9 47.7l-11.6-26.3c67-8.9 86.8-32.7 101.9-74.4 3.1-8.3 4.6-14.4 5.9-19h-49.7c-12.9 19.9-30.2 36.7-50.5 49.1l-18.5-20.8c13.4-7.3 25.5-17.2 35.4-28.7 9.4-11.3 16.9-23.9 22.4-37.5l29.7 5.7c-1.2 2.5-1.4 2.6-3.1 6z" fill="#32398f"/><path d="m2145.9 161.2c-43.2-14.8-88.5-22.3-134.2-22.5l5.5-27.4c46.7 1.1 93 7.9 137.9 20.2zm-17-60.8c-34.7-10.7-70.7-17-107-18.8l5.1-25.6c36.5.8 72.8 6.6 107.7 17.3zm13.4-51c-38.9-11.5-79.2-18-119.7-19.6l5-25.9c40.5.8 80.9 6.3 120.1 16.5z" fill="#32398f"/><path d="m2351 113.5v27.9h-153.5v-27.9zm-18.1-92.2v27.5h-119.2v-27.5z" fill="#32398f"/></svg>