<svg xmlns="http://www.w3.org/2000/svg" viewBox="0 0 3840 679.2"><path fill="#fdbc1a" d="M664.2 503.1v-13l10.9-7c31.3-20 50-53.9 50-90.7s-18.7-70.6-50-90.7l-10.9-7V67.9c0-23.7-19.3-43.1-43-43.1H127.6c-23.7 0-43.1 19.3-43.1 43.1v226.9l-10.9 7c-31.3 20-49.9 53.9-49.9 90.7s18.7 70.6 49.9 90.7l10.9 7V572l-22.2 1.4c-21.7 1.4-38.6 19.3-38.6 40.9 0 22.8 18.5 41.3 41.2 41.3h219.6c10.5-39.8 46.8-69.2 89.8-69.2s79.4 29.4 89.8 69.2h219.6c22.8 0 41.2-18.5 41.2-41.3 0-21.6-17-39.5-38.7-40.9L664 572v-22.3z"/><path d="M519.4 153.1c28.8 0 55.9 11.2 76.2 31.6 20.4 20.4 31.6 47.4 31.6 76.3 0 28.8-11.2 55.9-31.6 76.2-20.4 20.4-47.5 31.6-76.2 31.6s-55.9-11.2-76.2-31.6c-20.4-20.4-31.6-47.5-31.6-76.2 0-28.8 11.2-55.9 31.6-76.3 20.3-20.4 47.4-31.6 76.2-31.6m0-23.7c-72.6 0-131.5 58.9-131.5 131.5s58.9 131.5 131.5 131.5S651 333.5 651 260.9s-58.9-131.5-131.6-131.5"/><circle cx="430.3" cy="260.9" r="31.8"/><path d="M229.4 153.1c28.8 0 55.9 11.2 76.2 31.6 20.4 20.4 31.6 47.4 31.6 76.3 0 28.8-11.2 55.9-31.6 76.2-20.4 20.4-47.5 31.6-76.2 31.6s-55.9-11.2-76.2-31.6c-20.4-20.4-31.6-47.5-31.6-76.2 0-28.8 11.2-55.9 31.6-76.3 20.3-20.4 47.4-31.6 76.2-31.6m0-23.7c-72.6 0-131.5 58.9-131.5 131.5s58.9 131.5 131.5 131.5 131.5-58.9 131.5-131.5S302 129.4 229.4 129.4"/><circle cx="318.5" cy="260.9" r="31.8"/><path d="M621.2 24.8c23.7 0 43 19.3 43 43.1v226.9l10.9 7c31.3 20 50 53.9 50 90.7s-18.7 70.6-50 90.7l-10.9 7V572l22.2 1.4c21.7 1.4 38.7 19.3 38.7 40.9 0 22.8-18.5 41.3-41.2 41.3H464.2c-10.5-39.8-46.8-69.2-89.8-69.2s-79.4 29.4-89.8 69.2H64.9c-22.8 0-41.2-18.5-41.2-41.3 0-21.6 17-39.5 38.6-40.9l22.2-1.4v-82l-10.9-7c-31.3-20-49.9-53.9-49.9-90.7s18.7-70.6 49.9-90.7l10.9-7V67.9c0-23.7 19.3-43.1 43.1-43.1zm0-23.7H127.6C90.7 1.1 60.8 31 60.8 67.9v213.9C24.4 305.2 0 345.9 0 392.4 0 439 24.4 479.7 60.9 503v46.7C26.9 551.9 0 579.8 0 614.3c0 35.9 29.1 65 64.9 65h240.2c0-38.2 31-69.2 69.2-69.2s69.2 31 69.2 69.2h240.2c35.9 0 64.9-29.1 64.9-65 0-34.5-26.9-62.4-60.9-64.5v-46.7c36.5-23.4 60.9-64 60.9-110.6s-24.3-87.3-60.9-110.6v-214C687.9 31 658 1.1 621.2 1.1M1028.2 222.1H827.7v457.1h200.6c38.1 0 69-30.9 69-69V291.1c-.1-38.1-31-69-69.1-69m45.4 388.1c0 25-20.3 45.3-45.3 45.3h-177V245.7h176.9c25 0 45.3 20.3 45.3 45.3v319.2zM1515.3 452.6l-116-77.7v-30.7c0-7.2 6.4-12.9 13.8-11.6 5.8 1 9.8 6.4 9.8 12.3V370l123 82.6V291c0-38.1-30.9-69-69-69h-131.6c-38.1 0-69 30.9-69 69v100.3c0 23 11.5 44.5 30.6 57.3l116 77.7V557c0 7.2-6.4 12.8-13.8 11.6-5.8-.9-9.8-6.4-9.8-12.3v-25.1l-123-82.6v161.6c0 38.1 30.9 69 69 69h131.6c38.1 0 69-30.9 69-69v-89.7 22.1V510c0-23.1-11.5-44.6-30.6-57.4m6.9 67.9v89.7c0 25-20.3 45.3-45.3 45.3h-131.6c-25 0-45.3-20.3-45.3-45.3V493.1l75.7 50.8v12.6c0 17.8 12.5 32.8 29.7 35.6 1.9.3 3.8.5 5.8.5 8.4 0 16.5-3 23-8.4 7.9-6.8 12.5-16.6 12.5-27v-43.3l-10.5-7-116-77.7c-12.6-8.4-20.1-22.5-20.1-37.7V291.1c0-25 20.3-45.3 45.3-45.3H1477c25 0 45.3 20.3 45.3 45.3v117.2l-75.7-50.8v-12.6c0-17.9-12.5-32.8-29.7-35.6-1.9-.3-3.8-.5-5.8-.5-8.4 0-16.5 3-23 8.4-7.9 6.8-12.5 16.6-12.5 27v43.3l10.5 7 116 77.7c12.6 8.4 20.1 22.5 20.1 37.7zM2864.4 452.6l-116-77.7v-30.7c0-7.2 6.4-12.9 13.8-11.6 5.8 1 9.8 6.4 9.8 12.3V370l123 82.6V291c0-38.1-30.9-69-69-69h-131.6c-38.1 0-69 30.9-69 69v100.3c0 23 11.5 44.5 30.6 57.3l116 77.7V557c0 7.2-6.4 12.8-13.8 11.6-5.8-.9-9.8-6.4-9.8-12.3v-25.1l-123-82.6v161.6c0 38.1 30.9 69 69 69H2826c38.1 0 69-30.9 69-69v-89.7 22.1V510c-.1-23.1-11.5-44.6-30.6-57.4m6.9 67.9v89.7c0 25-20.3 45.3-45.3 45.3h-131.6c-25 0-45.3-20.3-45.3-45.3V493.1l75.7 50.8v12.6c0 17.8 12.5 32.8 29.7 35.6 1.9.3 3.9.5 5.8.5 8.4 0 16.5-3 23-8.4 7.9-6.8 12.5-16.6 12.5-27v-43.3l-10.5-7-116-77.7c-12.6-8.4-20.1-22.5-20.1-37.7V291.1c0-25 20.3-45.3 45.3-45.3h131.6c25 0 45.3 20.3 45.3 45.3v117.2l-75.6-50.8v-12.6c0-17.9-12.5-32.8-29.7-35.6-1.9-.3-3.9-.5-5.8-.5-8.4 0-16.5 3-23 8.4-7.9 6.8-12.5 16.6-12.5 27v43.3l10.5 7 116 77.7c12.6 8.4 20.1 22.5 20.1 37.7zM2278 452.6l-116-77.7v-30.7c0-7.2 6.4-12.9 13.8-11.6 5.8 1 9.8 6.4 9.8 12.3V370l123 82.6V291c0-38.1-30.9-69-69-69H2108c-38.1 0-69 30.9-69 69v100.3c0 23 11.5 44.5 30.6 57.3l116 77.7V557c0 7.2-6.4 12.8-13.8 11.6-5.8-.9-9.8-6.4-9.8-12.3v-25.1l-123-82.6v161.6c0 38.1 30.9 69 69 69h131.6c38.1 0 69-30.9 69-69v-89.7 22.1V510c0-23.1-11.5-44.6-30.6-57.4m7 67.9v89.7c0 25-20.3 45.3-45.3 45.3H2108c-25 0-45.3-20.3-45.3-45.3V493.1l75.7 50.8v12.6c0 17.8 12.5 32.8 29.7 35.6 1.9.3 3.9.5 5.8.5 8.4 0 16.5-3 23-8.4 7.9-6.8 12.5-16.6 12.5-27v-43.3l-10.5-7-116-77.7c-12.6-8.4-20.1-22.5-20.1-37.7V291.1c0-25 20.3-45.3 45.3-45.3h131.6c25 0 45.3 20.3 45.3 45.3v117.2l-75.6-50.8v-12.6c0-17.9-12.5-32.8-29.7-35.6-1.9-.3-3.9-.5-5.8-.5-8.4 0-16.5 3-23 8.4-7.9 6.8-12.5 16.6-12.5 27v43.3l10.5 7 116 77.7c12.6 8.4 20.1 22.5 20.1 37.7zM1128.2 222.1v457.1h123V222.1zm99.4 433.5h-75.7V245.7h75.7zM3098.8 222.1h-182.9v110.5h59.9v346.6h123V332.6h59.9V222.1zm36.1 86.8H3075v346.7h-75.7V308.9h-59.9v-63.2h195.4z"/><path d="M959.5 308.9H927v283.6h32.5c21.2 0 38.4-17.2 38.4-38.4V347.3c0-21.1-17.2-38.4-38.4-38.4m14.8 245.2c0 8.2-6.6 14.8-14.8 14.8h-8.8V332.6h8.8c8.2 0 14.8 6.6 14.8 14.8zM1835.7 222.1h-123v119.3l-23.6 23.6V222.1h-123v457.1h123V536.3l23.6 23.6v119.3h123V508.9l-58.2-58.2 58.2-58.2zm-23.6 160.5-68 68 68 68v136.9h-75.7V550.1l-70.9-70.9v176.3h-75.7V245.7h75.7V422l70.9-70.9V245.7h75.7zM2477.5 222.1v200.2h-23.6V222.1h-123v254.1c0 38.1 30.9 69 69 69h77.6v23.6h-123v110.3h176.9c38.1 0 69-30.9 69-69v-388zm99.3 388.1c0 25-20.3 45.3-45.3 45.3h-153.3v-63h123v-71h-101.3c-25 0-45.3-20.3-45.3-45.3V245.7h75.7V446h71V245.7h75.7zM3301.9 332.6h90.2V222.1H3179v457.1h213.1V568.9h-90.2v-63h90.2V395.4h-90.2zm66.5 86.5v63.2h-90.2v110.3h90.2v63h-165.8V245.7h165.8v63.2h-90.2v110.2zM3771 222.1h-93.9c-17.4 0-33.2 6.5-45.4 17.1-12.1-10.6-28-17.1-45.4-17.1h-162.9v457.1h123V344.5c0-6.6 5.3-11.9 11.9-11.9s11.9 5.3 11.9 11.9v334.8h123V344.4c0-6.6 5.3-11.9 11.9-11.9s11.9 5.3 11.9 11.9v334.8h123V291.1c0-38.1-30.9-69-69-69m45.3 433.5h-75.7V345.7c0-18.1-12.9-34.2-30.9-36.5-21.7-2.8-40.2 14.1-40.2 35.2v311.1H3594V345.7c0-18.1-12.9-34.2-30.9-36.5-21.7-2.8-40.2 14.1-40.2 35.2v311.1h-75.7V245.7h139.2c11.7 0 22.4 4.5 30.4 11.8 6.8 6.2 11.8 22.3 13.9 29.9.3 1.1 1.8 1.1 2.1 0 2.1-7.6 7-23.6 13.8-29.9 8.1-7.3 18.7-11.8 30.4-11.8h93.9c25 0 45.3 20.3 45.3 45.3v364.6z"/><g fill="#fdbc1a"><path d="M2825.9 655.6c25 0 45.3-20.3 45.3-45.3V510.1c0-15.1-7.5-29.2-20.1-37.7l-116-77.7-10.5-7v-43.3c0-10.4 4.6-20.3 12.5-27 6.5-5.5 14.6-8.4 23-8.4 1.9 0 3.8.1 5.8.5 17.2 2.8 29.7 17.8 29.7 35.6v12.6l75.6 50.8V291.3c0-25-20.3-45.3-45.3-45.3h-131.6c-25 0-45.3 20.3-45.3 45.3v100.3c0 15.1 7.5 29.2 20.1 37.7l116 77.7 10.5 7v43.3c0 10.4-4.6 20.3-12.5 27-6.5 5.5-14.6 8.4-23 8.4-1.9 0-3.8-.2-5.8-.5-17.2-2.8-29.7-17.8-29.7-35.6V544l-75.7-50.8v117.2c0 25 20.3 45.3 45.3 45.3zM2239.6 655.6c25 0 45.3-20.3 45.3-45.3V510.1c0-15.1-7.5-29.2-20.1-37.7l-116-77.7-10.5-7v-43.3c0-10.4 4.6-20.3 12.5-27 6.5-5.5 14.6-8.4 23-8.4 1.9 0 3.8.1 5.8.5 17.2 2.8 29.7 17.8 29.7 35.6v12.6l75.6 50.8V291.3c0-25-20.3-45.3-45.3-45.3H2108c-25 0-45.3 20.3-45.3 45.3v100.3c0 15.1 7.5 29.2 20.1 37.7l116 77.7 10.5 7v43.3c0 10.4-4.6 20.3-12.5 27-6.5 5.5-14.6 8.4-23 8.4-1.9 0-3.8-.2-5.8-.5-17.2-2.8-29.7-17.8-29.7-35.6V544l-75.7-50.8v117.2c0 25 20.3 45.3 45.3 45.3zM2576.8 610.2V245.7h-75.7V446h-71V245.7h-75.7v230.5c0 25 20.3 45.3 45.3 45.3H2501v71h-123v63h153.3c25.2.1 45.5-20.3 45.5-45.3M1736.4 655.6h75.7V518.7l-68-68 68-68.1V245.7h-75.7v105.4l-70.9 71V245.7h-75.7v409.9h75.7V479.2l70.9 71zM1151.9 245.7h75.7v409.8h-75.7zM1476.8 655.6c25 0 45.3-20.3 45.3-45.3V510.1c0-15.1-7.5-29.2-20.1-37.7l-116-77.7-10.5-7v-43.3c0-10.4 4.6-20.3 12.5-27 6.5-5.5 14.6-8.4 23-8.4 1.9 0 3.8.1 5.8.5 17.2 2.8 29.7 17.8 29.7 35.6v12.6l75.7 50.8V291.3c0-25-20.3-45.3-45.3-45.3h-131.6c-25 0-45.3 20.3-45.3 45.3v100.3c0 15.1 7.5 29.2 20.1 37.7l116 77.7 10.5 7v43.3c0 10.4-4.6 20.3-12.5 27-6.5 5.5-14.6 8.4-23 8.4-1.9 0-3.8-.2-5.8-.5-17.2-2.8-29.7-17.8-29.7-35.6V544l-75.7-50.8v117.2c0 25 20.3 45.3 45.3 45.3zM1073.6 610.2V291.1c0-25-20.3-45.3-45.3-45.3h-177v409.8h176.9c25 0 45.4-20.4 45.4-45.4m-75.7-56.1c0 21.2-17.2 38.4-38.4 38.4H927V308.9h32.5c21.2 0 38.4 17.2 38.4 38.4zM3740.7 345.7v309.9h75.7V291.1c0-25-20.3-45.3-45.3-45.3h-93.9c-11.7 0-22.4 4.5-30.4 11.8-6.9 6.2-11.8 22.2-13.8 29.9-.3 1.1-1.8 1.1-2.1 0-2.1-7.6-7.1-23.7-13.9-29.9-8.1-7.3-18.7-11.8-30.4-11.8h-139.2v409.8h75.7V344.4c0-21.1 18.5-38 40.2-35.2 17.9 2.3 30.9 18.4 30.9 36.5v309.9h75.7V344.4c0-21.1 18.5-38 40.2-35.2 17.6 2.3 30.6 18.4 30.6 36.5M2999.4 655.6h75.7V308.9h59.8v-63.2h-195.3v63.2h59.8zM3368.4 592.5h-90.2V482.2h90.2v-63.1h-90.2V308.9h90.2v-63.2h-165.8v409.9h165.8z"/></g><path d="M1441.4 84.4c-.4 46.1 36.6 83.9 82.8 84.4 30.9-.1 59.1-17.6 73.1-45.1l.3-.7h-36.4c-9.9 9.8-23.1 15.3-37 15.4-29.8-.8-53.4-25.6-52.6-55.4.8-28.7 23.9-51.9 52.6-52.6 13.7 0 26.9 5.5 36.6 15.2l36.8.1-.3-.7c-14-27.5-42.2-44.9-73.1-45-46.1.5-83.1 38.2-82.8 84.4m157.9.4c.9 45.7 38.7 82 84.4 81.1s82-38.7 81.1-84.4c-.9-45.1-37.7-81.1-82.7-81.2-46.2.6-83.2 38.4-82.8 84.5m29.8 0c.6-29.2 24.8-52.4 54-51.8s52.4 24.8 51.8 54c-.6 28.8-24.1 51.8-52.9 51.8-29.5-.3-53.1-24.5-52.9-54m732.1-83.7h-83.4v166.2h83.8v-32h-52.4V102h52.4V70h-52.4V33h52.4V1zm-1340.8 0h-24.7L881.2 167.4h35.5s17.7-25.8 17.9-26.1h56.1v26.1h30.2V1.1zm-63.5 107.5 33.8-49.4v52.3H955c.6-.9 1.9-2.9 1.9-2.9m987-107.5h-35s-48.8 112.8-49.6 114.6c-.8-1.8-49.8-114.6-49.8-114.6h-35.3v166.3h31.3V84.6c.5-.1 3-.7 3.5-.8l36.3 83.6h27.9s36-82.8 36.2-83.5c.5.1 3 .7 3.5.8v82.7h31.3V1.1zm230 0h-31v112.2c.2 11.9-9.4 21.7-21.2 21.9s-21.7-9.3-21.9-21.2V1.1h-31.4v112.2c-.5 29.3 22.8 53.3 52.1 53.8s53.3-22.8 53.8-52.1V1.2zm197.7.1h-.5V168h31.4V80.2c1.6 2.6 51.8 87.2 51.8 87.2h35.3s-35.4-59.7-35.9-60.6c.7-.2 2.1-.8 2.1-.8 28-10.5 42.2-41.7 31.8-69.7-7.7-20.6-27.1-34.5-49.1-35.2zm66.9 31.9c11.9.4 21.2 10.2 21.1 22.1.2 11.9-9.2 21.7-21.1 22h-36v-44h36zM1954.4 1.2h-.4v166.2h31.4v-59.2h22.4c29.6-.6 53.1-25 52.5-54.5-.5-28.8-23.7-52-52.5-52.5zm53.3 31.9c11.9.2 21.4 10.1 21.2 22-.2 11.6-9.6 20.9-21.2 21.1h-22.4V33.1zm260.8-31.9h-85.2v31.9h27.1v134.3h31.4V33.1h27.2V1.2zm-845.5 0h-32.5s-33.4 65-34.1 66.6c-.8-1.5-34.1-66.6-34.1-66.6h-33.2l51.6 102.2-.1 64.1h31.5l.1-64.2c.1 0 51.2-101.3 51.2-101.3l.3-.7zm-142.5 0h-30.9v166.2h73.8v-32H1281V1.2zm-40.9 0h-29.4v166.2h29.8V1.2zm-39.4 0h-35s-48.8 112.7-49.6 114.5L1065.8 1.2h-35.3v166.2h31.3V84.6c.5-.1 3-.7 3.5-.8.3.7 36.3 83.5 36.3 83.5h27.9l36.3-83.5c.5.1 3 .7 3.5.8v82.7h31.3V1.2zm-282 0h-85.7v166.2h31.9v-65.5h54.2V70.1h-54.2V31.8h54.2V1.2z"/></svg>