<svg enable-background="new 0 0 3839 950.2" viewBox="0 0 3839 950.2" xmlns="http://www.w3.org/2000/svg" xmlns:xlink="http://www.w3.org/1999/xlink"><linearGradient id="a"><stop offset=".2309" stop-color="#ff2727"/><stop offset=".8932" stop-color="#ffc600"/></linearGradient><linearGradient id="b" gradientUnits="userSpaceOnUse" x1="2274.1633" x2="2274.1633" xlink:href="#a" y1="507.7309" y2="901.7089"/><linearGradient id="c" gradientUnits="userSpaceOnUse" x1="3051.6667" x2="3051.6667" xlink:href="#a" y1="507.7309" y2="901.7089"/><linearGradient id="d" gradientUnits="userSpaceOnUse" x1="1549.3574" x2="1549.3574" xlink:href="#a" y1="506.3464" y2="901.7089"/><linearGradient id="e" gradientUnits="userSpaceOnUse" x1="1931.5243" x2="1931.5243" xlink:href="#a" y1="507.7309" y2="902.2034"/><linearGradient id="f" gradientUnits="userSpaceOnUse" x1="1235.3085" x2="1235.3085" xlink:href="#a" y1="486.4698" y2="910.0158"/><linearGradient id="g" gradientUnits="userSpaceOnUse" x1="2708.4536" x2="2708.4536" xlink:href="#a" y1="486.4695" y2="910.0156"/><linearGradient id="h" gradientUnits="userSpaceOnUse" x1="3654.7007" x2="3654.7007" xlink:href="#a" y1="507.7307" y2="901.808"/><linearGradient id="i" gradientUnits="userSpaceOnUse" x1="3317.5229" x2="3317.5229" xlink:href="#a" y1="506.3464" y2="901.7089"/><path d="m2875 66c-12.1-38.5-48.4-66-90.2-66s-78.1 27.5-90.2 66l-31.9 94.6v-155.1h-167.1c-29.7 0-57.2 12.1-78.1 31.9v-31.9h-171.5c-31.9 0-60.5 13.2-81.4 35.2v-35.2h-162.6c-69.3 0-126.5 57.2-126.5 126.5 0 33 13.2 63.8 34.1 85.8h-34.1v147.4h162.7c46.2 0 85.8-24.2 108.9-61.6 18.7 36.3 56.1 61.6 100.1 61.6h172.6v-31.9c19.8 19.8 47.3 31.9 78.1 31.9h477.1z" fill="#fff"/><g fill="#034693"><path d="m2038.2 244.1h-137.5v42.9h137.5c26.4 0 48.4-22 48.4-48.4s-22-48.4-48.4-48.4h-35.2c-31.9 0-58.3-26.4-58.3-58.3s26.4-58.3 58.3-58.3h136.4v-42.8h-137.5c-56.1 0-101.2 45.1-101.2 101.2s45.1 101.2 101.2 101.2h35.2c3.3 0 5.5 2.2 5.5 5.5-0 3.2-2.2 5.4-4.4 5.4z"/><path d="m2001.9 127.6h137.5v-44h-137.5c-26.4 0-48.4 22-48.4 48.4s22 48.4 48.4 48.4h35.2c31.9 0 58.3 26.4 58.3 58.3s-26.4 58.3-58.3 58.3h-136.4v42.9h137.5c56.1 0 101.2-45.1 101.2-101.2s-45.1-101.2-101.2-101.2h-35.2c-3.3 0-5.5-2.2-5.5-5.5 0-2.2 2.2-4.4 4.4-4.4z"/><path d="m2495.6 83.6c-18.7 0-33 14.3-33 33v137.5c0 18.7 14.3 33 33 33h89v-96.9h-68.2v42.9h25.3v9.9h-25.3c-5.5 0-9.9-4.4-9.9-9.9v-96.7c0-5.5 4.4-9.9 9.9-9.9h122.1v-42.9z"/><path d="m2766.1 287h100.1l-68.2-202.3c-2.2-5.5-6.6-9.9-13.2-9.9-5.5 0-11 4.4-13.2 8.8l-88 256.2h50.6l30.8-91.3v38.5zm17.6-92.4 14.3 44h-29.7z"/><path d="m2850.8 75.9c-8.8-28.6-35.2-50.6-67.1-50.6s-58.3 20.9-66 49.5l-80.3 235.3v-172.6h-121v42.9h79.2v116.6h-99c-24.2 0-42.9-19.8-42.9-42.9v-137.5c0-24.2 19.8-42.9 42.9-42.9h141.9v-42.9h-143c-47.3 0-85.8 38.5-85.8 85.8v137.5c0 47.3 38.5 85.8 85.8 85.8h177.1l89.1-258.4c3.3-9.9 12.1-16.5 23.1-16.5s19.8 6.6 23.1 16.5l72.6 215.5h-114.4v42.9h173.7z"/><path d="m2246.1 296.9c-24.2 0-42.9-19.8-42.9-42.9v-137.5c0-24.2 19.8-42.9 42.9-42.9h147.4v-42.8h-147.4c-47.3 0-85.8 38.5-85.8 85.8v137.5c0 47.3 38.5 85.8 85.8 85.8h147.4v-42.9z"/><path d="m2256 234.2h106.7v-42.9h-149.6v63.8c0 18.7 14.3 33 33 33h147.4v-42.9h-127.6c-5.5-1.1-9.9-5.5-9.9-11z"/><path d="m2362.6 137.5h-106.7c0-5.5 4.4-9.9 9.9-9.9h126.5v-44h-146.3c-18.7 0-33 14.3-33 33v63.8h149.6z"/></g><path d="m64.7 940.1c-11.9 0-22.6-2.8-31.8-8.5-28.3-17.2-38.9-58.3-29.7-115.7 8.7-54.3 34-118 71.4-179.1 31.8-52.1 68.7-96.9 106.9-129.7 38.7-33.2 74.8-50.7 104.5-50.7 11.9 0 22.6 2.8 31.8 8.5 28.3 17.3 38.9 58.4 29.7 115.8-8.7 54.3-34 118-71.4 179.1-31.8 52.1-68.7 96.9-106.9 129.7-38.7 33.1-74.8 50.6-104.5 50.6z" fill="#d60700"/><path d="m392.2 940.1c-11.9 0-22.6-2.8-31.8-8.5-28.3-17.3-38.9-58.4-29.7-115.8 8.7-54.3 34-118 71.4-179.1 31.8-52.1 68.7-96.9 106.9-129.7 38.7-33.2 74.8-50.7 104.5-50.7 11.9 0 22.6 2.8 31.8 8.5 28.3 17.3 38.9 58.4 29.7 115.8-8.7 54.3-34 118-71.4 179.1-31.8 52.1-68.7 96.9-106.9 129.7-38.7 33.2-74.8 50.7-104.5 50.7z" fill="#00916d"/><path d="m719.8 940.1c-11.9 0-22.6-2.8-31.8-8.5-28.3-17.3-38.9-58.4-29.7-115.8 8.7-54.3 34-118 71.4-179.1 31.8-52.1 68.7-96.9 106.9-129.7 38.7-33.2 74.8-50.7 104.5-50.7 11.9 0 22.6 2.8 31.8 8.5 14.4 8.8 24.3 23.6 29.3 44.2 14.2 58.4-13.7 156.9-70.9 250.7-31.8 52.1-68.7 96.9-106.9 129.7-38.8 33.2-75 50.7-104.6 50.7z" fill="#034693"/><path d="m3506.4 920-1.9-21.9-30.3-340.6c-2.4-27-14.8-51.1-34.8-67.8-18.1-15.2-41.4-23.6-65.5-23.6-20 0-39.2 5.8-55.5 16.7-16.2 10.9-28.9 26.5-36.7 45.1v.1l-148.2 358.3-11.5 27.8c-2.6 6.2-1.9 13.3 1.9 18.8s10 8.9 16.7 8.9h30 86 13.4c8.1 0 15.4-4.9 18.6-12.4l5.1-12.4 20.4-49.3h27.2l3.4 37.5 1.6 18.3c.9 10.4 9.6 18.3 20 18.3h18.4 79.8 21.9c5.6 0 11-2.4 14.8-6.5s5.7-9.7 5.2-15.3zm-41.9 1.8h-79.8-18.4l-1.6-18.3-5-55.8h-59l-25.5 61.7-5.1 12.4h-13.4-86-30l11.3-27.8 148.2-358.3c12.7-30.5 40.9-49.4 73.6-49.4 19.4 0 38.1 6.7 52.6 18.9 15.9 13.3 25.8 32.6 27.7 54.2l30.3 340.6 1.9 21.9h-21.8z" fill="#fff"/><path d="m3204.8 487.7-3.4 23-11.7 79.3-2.5 17.1h-17.3-110.4l-6 40.2h83.5 23.2l-3.4 23-11.7 79.5-2.5 17.2h-17.3-89.7l-5.3 35.1h104.1 23.3l-3.4 23-11.9 79.5-2.6 17.1h-17.3-127.6-26.6c-19.3 0-37.6-8.4-50.3-23-12.6-14.7-18.2-34-15.4-53.1l45.3-301.5c2.3-15.7 10.3-30.1 22.3-40.5 12-10.3 27.4-16 43.3-16h168 23.3m-23.3 20.1h-168c-22.9 0-42.4 16.7-45.8 39.4l-45.3 301.5c-4.2 27.9 17.5 53.1 45.8 53.1h26.6 127.6l11.9-79.5h-127.4l11.3-75.3h107l11.7-79.5h-106.9l12.1-80.3h127.7zm23.3-40.1h-23.3-168c-20.7 0-40.7 7.4-56.4 20.9s-26.1 32.2-29.1 52.7l-45.3 301.4c-3.7 24.9 3.6 50.1 20 69.2s40.3 30 65.5 30h26.6 127.6 17.3c9.9 0 18.4-7.3 19.9-17.1l2.6-17.1 11.9-79.5 3.4-22.6c.2-1.1.3-2.3.3-3.4 0-11.1-9-20.1-20.1-20.1h-1.7c3.4-3 5.8-7.3 6.6-12.1l2.5-17.2 11.7-79.5 3.4-23c.8-5.8-.9-11.6-4.7-16s-9.4-7-15.2-7h-23.2-60.2 93.1 17.3c10 0 18.4-7.3 19.9-17.1l2.5-17.1 11.7-79.3 3.4-23c.9-5.8-.8-11.6-4.7-16.1-4-4.5-9.5-7-15.3-7zm-236.6 414c-7.7 0-14.8-3.2-19.8-9.1-5-5.8-7.2-13.4-6.1-21l45.3-301.5c1.9-12.9 12.8-22.3 25.9-22.3h144.8l-5.8 39.2h-110.5c-9.9 0-18.4 7.3-19.9 17.1l-12.1 80.3c-.9 5.8.8 11.7 4.6 16.1s9.4 7 15.2 7h83.6l-5.8 39.4h-89.7c-9.9 0-18.4 7.3-19.9 17.1l-11.3 75.3c-.9 5.8.8 11.7 4.6 16.1s9.4 7 15.2 7h104.1l-5.9 39.4h-110.3-26.2z" fill="#fff"/><path d="m2735.3 466.4c25.9 0 51.2 6.1 75 18 18.7 9.4 36.6 22.4 53 38.6 27.7 27.3 42.1 54.7 42.7 55.9l9.3 17.8-17.8 9.3-70.8 37-17.4 9.2-9.5-17.2c-.3-.6-7.7-13.4-20-25.8-10.3-10.4-26.4-22.7-44.6-22.7-27.7 0-54.4 14.2-75.3 40-19.3 23.9-31.6 55.3-33 84-1.6 33 5.8 58.2 21.7 74.9 15.3 16.1 34.5 19.6 40.6 19.6 21.3 0 41.6-8.3 58.4-23.2h-51.5-30.1l11.5-27.8 32.9-79.5 5.1-12.4h13.4 91.1 33.1c18.8 0 35.9 8.6 47.1 23.7 11.2 15 14.5 33.8 9.1 51.7-8.5 28.3-28.7 82.3-68.7 126.2-18.6 20.4-39.3 36.3-61.7 47.4-25.4 12.6-53 18.9-82 18.9-19.8 0-43-5-65.3-14.1-27.1-11-51.7-27.7-71.2-48.1-18.6-19.5-32.8-42.5-42.2-68.3-10.6-29-15.1-61.8-13.4-97.3 2.5-52.5 26.8-110.5 65-155.1 20.9-24.5 45-43.8 71.4-57.6 29.8-15.3 61.4-23.1 94.1-23.1m-38.1 443.6c109.6 0 169.8-100.1 193.2-178.3 7.4-24.7-11.2-49.5-37-49.5h-33.1-91.1l-32.9 79.5h92.7c-20.4 36.5-56.8 63.4-99.6 63.4-21.7 0-86.9-19.6-82.4-115.5 3-64.3 53.9-143.2 128.3-143.2 49.3 0 82.2 58.8 82.2 58.8l70.8-37s-53.1-101.8-153-101.8c-123.9 0-205.8 124.2-210.1 216.7-7.5 158.6 117.5 206.9 172 206.9m38.1-463.7c-36 0-70.6 8.5-103 25.4-28.7 14.9-54.7 35.9-77.4 62.3-41.1 47.9-67.2 110.5-69.9 167.2-1.8 38.2 3.1 73.6 14.6 105.2 10.4 28.5 26 53.8 46.5 75.3 21.4 22.5 48.5 40.8 78.1 52.9 24.7 10.1 50.6 15.6 72.9 15.6 32.2 0 62.8-7.1 90.9-21 24.7-12.2 47.4-29.7 67.7-51.9 42.7-46.9 64.1-104.1 73.1-134 7.2-24 2.7-49.3-12.2-69.5-11.8-15.9-28.7-26.5-47.6-30.2l37.8-19.7 17.8-9.3c9.8-5.1 13.6-17.3 8.5-27.1l-9.3-17.8c-1.7-3.2-17-31.9-46.4-60.9-18-17.7-37.5-32-58.1-42.3-26.7-13.4-54.9-20.2-84-20.2zm-38.1 443.6c-28.9 0-74.8-15.6-107.5-49.8-32.2-33.8-47.2-79.5-44.5-136 3.9-82.5 78.1-197.5 190.1-197.5 63.1 0 105.6 47.6 124.4 74l-35.6 18.6c-4-5.3-9-11.3-14.8-17.3-22.7-23.2-48.2-35.5-74-35.5-40.1 0-77.9 19.5-106.5 54.9-12.2 15.1-22.4 32.9-29.6 51.6-7.1 18.4-11.3 37.7-12.2 55.8-1.1 23.2 1.5 44.2 7.7 62.4 5.6 16.3 14 30.5 25.1 42.1 22.6 23.7 51.6 32 69.6 32 24.3 0 48.3-7.4 69.3-21.4 19.3-12.8 35.9-30.9 47.8-52.3 3.5-6.2 3.4-13.8-.2-20-3.6-6.1-10.2-9.9-17.3-9.9h-62.6l16.3-39.3h77.7 33.1c5.9 0 11.4 2.7 14.9 7.5 3.5 4.7 4.5 10.6 2.9 16.2-11.6 38.4-58.2 163.9-174.1 163.9zm-42.9-131.7c-5.7-12-8.1-27.6-7.2-46.7 1.2-24.6 11.8-51.7 28.5-72.4 16.9-21 38.1-32.5 59.6-32.5 11.9 0 24.1 10.5 30.4 16.8 7.1 7.2 12.4 14.7 15 18.7h-51.4-13.4c-8.1 0-15.4 4.9-18.6 12.4l-5.1 12.4-32.9 79.5z" fill="#fff"/><path d="m3683.8 487.7c15.6 0 32.3 3.9 48.4 11.3 15.4 7.1 30.2 17.4 42.8 29.9 13.3 13.1 23.9 28.1 31.5 44.4 8.3 17.9 12.5 36.7 12.5 55.7v.4c.3 17-2.7 34.7-8.5 51.1-8.3 23.5-22.4 43.8-41.4 59.7 4.6 6.7 7.8 14.4 9.7 23l1.7 7.9 2.3 10.6.1.2 1 4.9 23.9 110.8 5.2 24.3h-25-81.9-16.1l-3.4-15.8-24.9-115.3c-1.2-5.5-6.1-9.5-11.7-9.5h-19l-20 123.7-2.7 16.9h-17.1-80.5-23.7l3.8-23.3 57.4-355.1c2.5-15.6 10.5-29.7 22.5-39.9s27.3-15.8 43-15.8h41.1 29m-173.2 413.9h80.5l22.7-140.5h36.1c15.1 0 28.2 10.6 31.3 25.3l24.9 115.3h81.9l-23.8-110.8s0 0-1.1-4.9v-.2c-.7-3.4-2-9.1-4-18.5-5.1-23.6-22.8-28.9-22.8-28.9 65.8-36.8 62.6-104.9 62.6-109.5 0-67.3-62.9-121.3-115-121.3h-29.1-41.1c-22.7 0-42 16.4-45.7 38.9zm173.2-434.1h-29.1-41.1c-20.5 0-40.4 7.3-56 20.6s-26 31.7-29.3 52l-57.4 355.2-3.8 23.3c-.9 5.8.7 11.7 4.5 16.2s9.4 7.1 15.3 7.1h23.6 80.5 17.1c9.9 0 18.2-7.1 19.8-16.9l2.7-16.9 15.3-94.6 20.9 96.7 3.4 15.8c2 9.2 10.2 15.8 19.6 15.8h16.2 81.9 24.9c6.1 0 11.8-2.7 15.6-7.5 3.8-4.7 5.3-10.9 4-16.8l-5.2-24.3-23.9-110.8-1-4.8-.1-.3-2.3-10.6-1.7-7.9c-1.1-5-2.6-9.9-4.4-14.5 15.8-16.3 27.7-35.5 35.4-57.3 6.6-18.7 10-38.8 9.7-58.1v-.2c0-21.9-4.8-43.5-14.3-64-8.6-18.6-20.5-35.5-35.6-50.3-14.2-14-31-25.7-48.4-33.8-18.7-8.6-38.3-13.1-56.8-13.1zm-149.7 414 53.6-331.8c2.1-12.7 13-22 25.9-22h41.1 29.1c42.7 0 94.9 46.7 94.9 101.3v.9c.2 14.4-2.9 63.4-52.3 91-7 3.9-11 11.7-10.2 19.7.9 7.8 6.2 14.4 13.6 16.8 1.4.6 7.3 3.6 9.6 14.1l1.4 6.4 2.6 12 .1.2c.8 3.5 1 4.6 1 4.9l18.6 86.5h-40.8l-21.5-99.5c-2.5-11.6-8.9-22.1-18.2-29.6s-20.9-11.6-32.8-11.6h-36.1c-9.9 0-18.2 7.1-19.8 16.9l-20 123.7h-39.8z" fill="#fff"/><path d="m2427.3 487.7-3.4 23-11.7 79.3-2.5 17.1h-17.3-110.4l-6 40.2h83.5 23.2l-3.4 23-11.7 79.5-2.6 17.2h-17.3-89.7l-5.3 35.1h104.1 23.3l-3.4 23-11.9 79.5-2.6 17.1h-17.3-127.6-26.6c-19.3 0-37.6-8.4-50.3-23-12.6-14.7-18.2-34-15.4-53.1l45.3-301.5c2.3-15.7 10.3-30.1 22.3-40.5 12-10.3 27.4-16 43.3-16h168 23.4m-236.6 414.1h26.6 127.6l11.9-79.5h-127.4l11.3-75.3h107l11.7-79.5h-106.8l12.1-80.3h127.7l11.7-79.3h-168c-22.9 0-42.4 16.7-45.8 39.4l-45.3 301.5c-4.3 27.8 17.4 53 45.7 53m236.6-434.1h-23.3-168c-20.7 0-40.7 7.4-56.4 20.9s-26.1 32.2-29.1 52.7l-45.3 301.4c-3.7 24.9 3.6 50.1 20 69.2s40.3 30 65.5 30h26.6 127.6 17.3c9.9 0 18.4-7.3 19.9-17.1l2.6-17.1 11.9-79.5 3.4-23c.9-5.8-.8-11.6-4.6-16.1-3.8-4.4-9.4-7-15.2-7h-1.7c3.4-3 5.8-7.3 6.6-12.1l2.5-17.2 11.7-79.5 3.4-23c.8-5.8-.9-11.6-4.7-16s-9.4-7-15.2-7h-23.2-60.2 93.1 17.3c10 0 18.4-7.3 19.9-17.1l2.5-17.1 11.7-79.3 3.3-22.5c.2-1.1.3-2.2.3-3.4-.2-11.2-9.2-20.2-20.2-20.2zm-236.6 414c-7.7 0-14.8-3.2-19.8-9.1-5-5.8-7.2-13.4-6.1-21l45.3-301.5c1.9-12.9 12.8-22.3 25.9-22.3h144.8l-5.8 39.2h-110.4c-9.9 0-18.4 7.3-19.9 17.1l-12.1 80.3c-.9 5.8.8 11.7 4.6 16.1s9.4 7 15.2 7h83.6l-5.8 39.4h-89.7c-9.9 0-18.4 7.3-19.9 17.1l-11.3 75.3c-.9 5.8.8 11.7 4.6 16.1s9.4 7 15.2 7h104.1l-5.9 39.4h-110.3-26.3z" fill="#fff"/><path d="m1605.7 486.3c19.4 0 38.1 6.7 52.6 18.9 15.9 13.3 25.8 32.6 27.7 54.2l30.3 340.6.2 1.7.4-2.9 52.1-346.6c3-19.9 12.4-36.6 27.3-48.3 13.2-10.4 30.1-16.2 47.6-16.2 17.2 0 33.8 5.6 46.9 15.7 14.7 11.4 24.3 27.6 27.6 47l20.5 117.8 65.8-137.9c12.7-26.7 37.4-42.6 66.1-42.6 22.3 0 44 9.9 58.3 26.4 13.8 16.1 19.6 37.1 16.3 59.2l-49.8 331.5-2.6 17.1h-17.3-80.4-23.3l3.5-23.1 6.3-42.1-14.9 31.3c-5.2 11-13.3 19.9-23.3 25.9-9.2 5.5-19.9 8.4-30.9 8.4-13.7 0-27-4.6-37.6-12.8-11.7-9.1-19.3-21.9-21.9-37l-6.2-35.3-10.2 67.5-2.6 17.1h-17.3-80.3-18.5-4.8-17.1-79.8-18.4l-1.6-18.3-5-55.8h-59l-25.5 61.7-5.1 12.4h-13.4-86-30l11.5-27.8 148.2-358.3c6.6-15.7 17.3-28.6 31-37.3 12.6-7.9 27.3-12.1 42.6-12.1m-203.3 415.4h86l30.7-74.1h90.8l6.6 74.1h79.8l-30.3-340.6c-3.2-35.2-31.6-54.8-60.3-54.8-22.3 0-44.5 11.8-55.1 37.1zm527.7-168-31.3-179.9c-5.3-30.8-30.1-46.1-54.8-46.1-25.2 0-50.3 15.8-55.1 47.4l-52.1 346.6h80.3l28.6-189.6 27.3 156.9c3.8 21.5 21.7 33.2 39.8 33.2 14.2 0 28.6-7.2 36-22.8l73-153.3-26.4 175.6h80.4l49.8-331.5c5.7-38-24.4-62.5-54.7-62.5-18.8 0-37.7 9.5-48 31.2zm-324.4-267.5c-19.1 0-37.6 5.3-53.4 15.3-17.2 10.8-30.6 26.9-38.8 46.5 0 .1-.1.2-.1.2l-148.2 358.2-11.5 27.8c-2.6 6.2-1.9 13.3 1.9 18.8 3.7 5.6 10 8.9 16.7 8.9h30 86 13.4c8.1 0 15.4-4.9 18.6-12.4l5.1-12.4 20.4-49.3h27.2l3.4 37.5 1.6 18.3c.9 10.4 9.6 18.3 20 18.3h18.4 79.8 17.1 4.8 18.5 80.3 17.3c9.9 0 18.4-7.3 19.9-17.1l1-6.3c2.4 2.4 4.9 4.7 7.7 6.8 14.1 11 31.8 17.1 50 17.1 14.6 0 28.8-3.9 41.1-11.2.1 0 .2-.1.2-.1.7 1.4 1.6 2.7 2.6 3.9 3.8 4.4 9.4 7 15.2 7h23.3 80.4 17.3c9.9 0 18.4-7.3 19.9-17.1l2.6-17.1 49.8-331.5c4.2-27.9-3.2-54.7-20.9-75.2-18-20.9-45.5-33.4-73.5-33.4-18 0-35.2 5-49.9 14.5-14.6 9.4-26.5 23.1-34.3 39.6l-38.6 81.1-9.7-55.8c-4.2-24.4-16.4-45-35.1-59.5-16.6-12.8-37.6-19.9-59.2-19.9-22 0-43.3 7.3-60.1 20.5-18.9 14.9-31 36.1-34.7 61.1l-27.6 183.3-15.6-175c-2.4-27-14.8-51.1-34.8-67.8-18.1-15.2-41.4-23.6-65.5-23.6zm-36.5 84.9c9.3-22.3 28.7-24.7 36.5-24.7 17.8 0 38.1 11.4 40.3 36.5l28.3 318.7h-39.5l-5-55.8c-.9-10.4-9.6-18.3-20-18.3h-90.8c-8.1 0-15.4 4.9-18.6 12.4l-25.5 61.7h-42.6zm360.9 202.7c7.7 0 14.8-4.4 18.1-11.4l92.9-194.8c8.1-17.2 22.2-19.7 29.8-19.7 10.7 0 21.1 4.6 27.8 12.4 6.3 7.3 8.6 16.3 7 27l-47.3 314.4h-39.8l22.9-152.6c1.5-9.8-4.5-19.3-14-22.2-1.9-.6-3.9-.9-5.9-.9-7.6 0-14.7 4.3-18.1 11.5l-73 153.3c-4.7 9.9-13.2 11.4-17.9 11.4-7.9 0-17.8-4.4-20-16.6l-27.4-156.8c-1.7-9.6-10-16.6-19.8-16.6-.1 0-.2 0-.2 0-9.8.1-18.2 7.3-19.6 17.1l-26 172.5h-39.7l48.6-323.5c3.4-22.3 21.1-30.3 35.2-30.3 14.4 0 31.2 7.7 35 29.4l31.3 179.9c1.5 8.6 8.4 15.3 17.1 16.4 1.2 0 2.1.1 3 .1z" fill="#fff"/><path d="m1262.1 466.4c25.9 0 51.2 6.1 75 18 18.7 9.4 36.6 22.4 53 38.6 27.7 27.3 42.1 54.7 42.7 55.9l9.3 17.8-17.8 9.3-70.8 37-17.4 9.2-9.5-17.2c-.4-.7-7.8-13.4-20-25.8-10.3-10.4-26.4-22.7-44.6-22.7-27.7 0-54.4 14.2-75.3 40-19.3 23.9-31.6 55.3-33 84.1-1.6 33 5.8 58.2 21.7 74.9 15.3 16.1 34.5 19.6 40.6 19.6 21.3 0 41.6-8.3 58.4-23.2h-51.5-30.1l11.5-27.8 32.9-79.5 5.1-12.4h13.4 91.1 33.1c18.8 0 35.9 8.6 47.1 23.7 11.2 15 14.5 33.8 9.1 51.7-8.5 28.3-28.7 82.3-68.7 126.2-18.6 20.4-39.3 36.3-61.7 47.4-25.4 12.6-53 18.9-82 18.9-19.8 0-43-5-65.3-14.1-27.1-11-51.7-27.7-71.2-48.1-18.6-19.5-32.8-42.5-42.2-68.3-10.6-29-15.1-61.8-13.4-97.3 2.5-52.5 26.8-110.5 65-155.1 20.9-24.5 45-43.8 71.4-57.6 29.9-15.4 61.4-23.2 94.1-23.2m-38 443.6c109.6 0 169.8-100.1 193.2-178.3 7.4-24.7-11.2-49.5-37-49.5h-33.1-91.1l-32.9 79.5h92.7c-20.4 36.5-56.8 63.4-99.6 63.4-21.7 0-86.9-19.6-82.4-115.5 3-64.3 53.9-143.2 128.3-143.2 49.3 0 82.2 58.8 82.2 58.8l70.8-37s-53.1-101.8-153-101.8c-123.9 0-205.8 124.2-210.1 216.7-7.6 158.6 117.5 206.9 172 206.9m38-463.7c-36 0-70.6 8.5-103 25.4-28.7 14.9-54.7 35.9-77.4 62.3-41.1 47.9-67.2 110.5-69.9 167.2-1.8 38.2 3.1 73.6 14.6 105.2 10.4 28.5 26 53.8 46.5 75.3 21.4 22.5 48.5 40.8 78.1 52.9 24.7 10.1 50.6 15.6 72.9 15.6 32.2 0 62.8-7.1 90.9-21 24.7-12.2 47.4-29.7 67.7-51.9 42.7-46.9 64.1-104.1 73.1-134 7.2-24 2.7-49.3-12.2-69.5-11.8-15.9-28.7-26.5-47.6-30.2l37.8-19.7 17.8-9.3c9.8-5.1 13.6-17.3 8.5-27.1l-9.3-17.8c-1.7-3.2-17-31.8-46.4-60.9-18-17.7-37.5-32-58.1-42.3-26.6-13.4-54.9-20.2-84-20.2zm-38 443.6c-28.9 0-74.8-15.6-107.5-49.8-32.2-33.8-47.2-79.5-44.5-136 3.9-82.5 78.1-197.5 190.1-197.5 35.6 0 68.9 14.9 99 44.3 10.8 10.6 19.3 21.2 25.3 29.7l-35.5 18.6c-4-5.3-9-11.3-14.8-17.3-22.7-23.2-48.2-35.5-74-35.5-40.1 0-77.9 19.5-106.5 54.9-12.2 15.1-22.4 32.9-29.6 51.6-7.1 18.4-11.3 37.7-12.2 55.8-1.1 23.2 1.5 44.2 7.7 62.4 5.6 16.3 14 30.5 25.1 42.1 22.6 23.7 51.6 32 69.6 32 24.3 0 48.3-7.4 69.3-21.4 19.3-12.8 35.9-30.9 47.8-52.3 3.5-6.2 3.4-13.8-.2-20-3.6-6.1-10.2-9.9-17.3-9.9h-62.6l16.3-39.3h77.7 33.1c5.9 0 11.4 2.7 14.9 7.5 3.5 4.7 4.5 10.6 2.9 16.2-11.7 38.4-58.3 163.9-174.1 163.9zm-42.9-131.7c-5.7-12-8.1-27.6-7.2-46.7 1.2-24.6 11.8-51.7 28.5-72.4 16.9-21 38.1-32.5 59.6-32.5 11.9 0 24.1 10.5 30.4 16.8 7.1 7.2 12.4 14.7 15 18.7h-51.4-13.4c-8.1 0-15.4 4.9-18.6 12.4l-5.1 12.4-32.9 79.5z" fill="#fff"/><path d="m2404 507.7h-168c-22.9 0-42.4 16.7-45.8 39.4l-45.3 301.5c-4.2 27.9 17.5 53.1 45.8 53.1h26.6 127.6l11.9-79.5h-127.4l11.3-75.3h107l11.7-79.5h-106.8l12.1-80.3h127.7z" fill="url(#b)"/><path d="m3181.5 507.7h-168c-22.9 0-42.4 16.7-45.8 39.4l-45.3 301.5c-4.2 27.9 17.5 53.1 45.8 53.1h26.6 127.6l11.9-79.5h-127.4l11.3-75.3h107l11.7-79.5h-106.9l12.1-80.3h127.7z" fill="url(#c)"/><path d="m1605.7 506.3c-22.3 0-44.5 11.8-55.1 37.1l-148.2 358.3h86l30.7-74.1h90.8l6.6 74.1h79.8l-30.3-340.6c-3.1-35.2-31.6-54.8-60.3-54.8zm-53.7 241.8 41.8-101 9 101z" fill="url(#d)"/><path d="m2022.9 538.9-92.9 194.8-31.3-179.9c-5.3-30.8-30.1-46.1-54.8-46.1-25.2 0-50.3 15.8-55.1 47.4l-52.1 346.6h80.3l28.6-189.6 27.4 156.9c3.8 21.5 21.7 33.2 39.8 33.2 14.2 0 28.6-7.2 36-22.8l73-153.3-26.4 175.6h80.4l49.8-331.5c5.7-38-24.4-62.5-54.7-62.5-18.8-0-37.7 9.5-48 31.2z" fill="url(#e)"/><path d="m1415.1 588.2s-53.1-101.8-153-101.8c-123.9 0-205.8 124.2-210.1 216.7-7.5 158.6 117.6 206.9 172.1 206.9 109.6 0 169.8-100.1 193.2-178.3 7.4-24.7-11.2-49.5-37-49.5h-33.1-91.1l-32.9 79.5h92.7c-20.4 36.5-56.8 63.4-99.6 63.4-21.7 0-86.9-19.6-82.4-115.5 3-64.3 53.9-143.2 128.3-143.2 49.3 0 82.2 58.8 82.2 58.8z" fill="url(#f)"/><path d="m2888.3 588.2s-53.1-101.8-153-101.8c-123.9 0-205.8 124.2-210.1 216.7-7.5 158.6 117.6 206.9 172.1 206.9 109.6 0 169.8-100.1 193.2-178.3 7.4-24.7-11.2-49.5-37-49.5h-33.1-91.1l-32.9 79.5h92.7c-20.4 36.5-56.8 63.4-99.6 63.4-21.7 0-86.9-19.6-82.4-115.5 3-64.3 53.9-143.2 128.3-143.2 49.3 0 82.2 58.8 82.2 58.8z" fill="url(#g)"/><path d="m3764.2 791s0 0-1.1-4.9v-.2c-.7-3.4-2-9.1-4-18.5-5.1-23.6-22.8-28.9-22.8-28.9 65.8-36.8 62.6-104.9 62.6-109.5 0-67.3-62.9-121.3-115-121.3h-29.1-41.1c-22.7 0-42 16.4-45.7 38.9l-57.4 355.1h80.5l22.7-140.5h36.1c15.1 0 28.2 10.6 31.3 25.3l24.9 115.3h81.9zm-102.4-109.3h-35.1l15.1-94.5h33.1c15.7 0 31.2 15.7 34.7 34.5 5.3 27.9-16.3 60-47.8 60z" fill="url(#h)"/><path d="m2236 487.7c-15.9 0-31.3 5.7-43.3 16-12.1 10.4-20 24.7-22.3 40.5l-45.4 301.4c-2.8 19.1 2.8 38.5 15.4 53.1s30.9 23 50.3 23h26.6 127.6 17.3l2.6-17.1 11.9-79.5 3.4-23h-23.3-104.1l5.3-35.1h89.7 17.3l2.5-17.2 11.7-79.5 3.4-23h-23.2-83.5l6-40.2h110.4 17.3l2.5-17.1 11.7-79.3 3.4-23h-23.2zm156.2 99.4h-127.7l-12.1 80.3h106.8l-11.7 79.5h-107l-11.3 75.3h127.4l-11.9 79.5h-127.6-26.6c-28.3 0-50-25.2-45.8-53.1l45.3-301.5c3.4-22.7 22.8-39.4 45.8-39.4h168z"/><path d="m3204.8 487.7h-23.3-168c-15.9 0-31.3 5.7-43.3 16-12.1 10.4-20 24.7-22.3 40.5l-45.3 301.5c-2.8 19.1 2.8 38.5 15.4 53.1s30.9 23 50.3 23h26.6 127.6 17.3l2.6-17.1 11.9-79.5 3.4-23h-23.3-104.1l5.3-35.1h89.7 17.3l2.5-17.2 11.7-79.5 3.4-23h-23.2-83.5l6-40.2h110.4 17.3l2.5-17.1 11.7-79.3zm-35.1 99.4h-127.7l-12.1 80.3h106.8l-11.7 79.5h-107l-11.3 75.3h127.4l-11.9 79.5h-127.6-26.6c-28.3 0-50-25.2-45.8-53.1l45.3-301.5c3.4-22.7 22.8-39.4 45.8-39.4h168z"/><path d="m1552 748.1h50.9l-9-100.9z"/><path d="m3320.3 748.1h50.8l-9-100.9z"/><path d="m3140.5 921.8h30 86 13.4l5.1-12.4 25.5-61.7h59l5 55.8 1.6 18.3h18.4 79.8 21.9l-1.9-21.9-30.3-340.6c-1.9-21.6-11.8-40.9-27.7-54.2-14.5-12.2-33.2-18.9-52.6-18.9-32.7 0-60.9 18.9-73.6 49.4l-148.1 358.4zm178.3-378.4c10.6-25.3 32.9-37.1 55.1-37.1 28.7 0 57.2 19.6 60.3 54.8l30.3 340.6h-79.8l-6.6-74.1h-90.8l-30.7 74.1h-86z"/><path d="m2129.2 514.1c-14.2-16.5-36-26.4-58.3-26.4-28.7 0-53.4 15.9-66.1 42.6l-65.8 137.9-20.5-117.8c-3.4-19.4-12.9-35.7-27.6-47-13.1-10.1-29.8-15.7-46.9-15.7-17.5 0-34.4 5.7-47.6 16.2-14.9 11.7-24.3 28.4-27.3 48.3l-52.1 346.6-.4 2.9-.2-1.7-30.4-340.6c-1.9-21.6-11.8-40.9-27.7-54.2-14.5-12.2-33.2-18.9-52.6-18.9-15.3 0-30.1 4.2-42.6 12.2-13.7 8.6-24.4 21.5-31 37.3l-148.2 358.2-11.5 27.8h30 86 13.4l5.1-12.4 25.5-61.7h59l5 55.8 1.6 18.3h18.4 79.8 17.1 4.8 18.5 80.3 17.3l2.6-17.1 10.2-67.5 6.2 35.3c2.6 15.1 10.2 27.9 21.9 37 10.6 8.3 23.9 12.8 37.6 12.8 11 0 21.6-2.9 30.9-8.4 10-6 18.1-14.9 23.3-25.9l14.9-31.3-6.3 42.1-3.5 23.1h23.3 80.4 17.3l2.6-17.1 49.8-331.5c3.4-22.2-2.4-43.2-16.2-59.2zm-512.7 387.6-6.6-74.1h-90.8l-30.7 74.1h-86l148.2-358.3c10.6-25.3 32.8-37.1 55.1-37.1 28.7 0 57.2 19.6 60.3 54.8l30.3 340.6zm509.1-331.5-49.8 331.5h-80.4l26.4-175.6-73 153.3c-7.4 15.6-21.8 22.8-36 22.8-18.1 0-36-11.8-39.8-33.2l-27.4-156.8-28.6 189.6h-80.3l52.1-346.6c4.7-31.5 29.9-47.4 55.1-47.4 24.7 0 49.4 15.3 54.8 46.1l31.3 179.9 92.9-194.8c10.3-21.7 29.2-31.2 48-31.2 30.3-.1 60.4 24.5 54.7 62.4z"/><path d="m1367.8 863.7c40-44 60.2-98 68.7-126.2 5.4-17.9 2-36.7-9.1-51.7-11.2-15-28.4-23.7-47.1-23.7h-33.1-91.1-13.4l-5.1 12.4-32.9 79.5-11.5 27.8h30.1 51.5c-16.8 14.9-37.1 23.2-58.4 23.2-6.1 0-25.2-3.5-40.6-19.6-16-16.7-23.3-42-21.7-74.9 1.4-28.7 13.7-60.2 33-84.1 20.8-25.8 47.5-40 75.3-40 18.2 0 34.3 12.4 44.6 22.7 12.3 12.4 19.7 25.2 20 25.8l9.5 17.2 17.4-9.2 70.8-37 17.8-9.3-9.3-17.8c-.6-1.2-15-28.5-42.7-55.9-16.5-16.3-34.3-29.3-53-38.6-23.9-12-49.1-18-75-18-32.7 0-64.3 7.8-93.8 23.1-26.4 13.7-50.4 33.1-71.4 57.6-38.3 44.7-62.6 102.6-65 155.1-1.7 35.5 2.8 68.3 13.4 97.3 9.4 25.8 23.6 48.8 42.2 68.3 19.5 20.4 44.1 37.1 71.2 48.1 22.4 9.1 45.6 14.1 65.3 14.1 29 0 56.6-6.4 82-18.9 22.1-10.9 42.9-26.9 61.4-47.3zm-143.7 46.3c-54.5 0-179.6-48.3-172.1-206.9 4.4-92.5 86.2-216.7 210.1-216.7 99.9 0 153 101.8 153 101.8l-70.8 37s-32.8-58.8-82.2-58.8c-74.4 0-125.2 78.8-128.3 143.2-4.5 95.9 60.7 115.5 82.4 115.5 42.8 0 79.3-26.9 99.6-63.4h-92.7l32.9-79.5h91.1 33.1c25.8 0 44.4 24.8 37 49.5-23.3 78.2-83.6 178.3-193.1 178.3z"/><path d="m2841 863.7c40-44 60.2-98 68.7-126.2 5.4-17.9 2-36.7-9.1-51.7-11.2-15-28.4-23.7-47.1-23.7h-33.1-91.1-13.4l-5.1 12.4-32.9 79.5-11.5 27.8h30.1 51.5c-16.8 14.9-37.1 23.2-58.4 23.2-6.1 0-25.2-3.5-40.6-19.6-16-16.7-23.3-41.9-21.7-74.9 1.4-28.7 13.7-60.2 33-84 20.8-25.8 47.5-40 75.3-40 18.2 0 34.3 12.4 44.6 22.7 12.3 12.4 19.7 25.2 20 25.8l9.5 17.2 17.4-9.2 70.8-37 17.8-9.3-9.3-17.8c-.6-1.2-15-28.5-42.7-55.9-16.5-16.3-34.3-29.3-53-38.6-23.9-12-49.1-18-75-18-32.7 0-64.3 7.8-93.8 23.1-26.4 13.7-50.4 33.1-71.4 57.6-38.3 44.7-62.6 102.6-65 155.1-1.7 35.5 2.8 68.3 13.4 97.3 9.4 25.8 23.6 48.8 42.2 68.3 19.5 20.4 44.1 37.1 71.2 48.1 22.4 9.1 45.6 14.1 65.3 14.1 29 0 56.6-6.4 82-18.9 22-11 42.8-27 61.4-47.4zm-143.8 46.3c-54.5 0-179.6-48.3-172.1-206.9 4.4-92.5 86.2-216.7 210.1-216.7 99.9 0 153 101.8 153 101.8l-70.8 37s-32.8-58.8-82.2-58.8c-74.4 0-125.2 78.8-128.3 143.2-4.5 95.9 60.7 115.5 82.4 115.5 42.8 0 79.3-26.9 99.6-63.4h-92.7l32.9-79.5h91.1 33.1c25.8 0 44.4 24.8 37 49.5-23.3 78.2-83.5 178.3-193.1 178.3z"/><path d="m3661.6 790.7 24.9 115.3 3.4 15.8h16.2 81.9 24.9l-5.2-24.3-23.9-110.8-1-4.9-.1-.2-2.3-10.6-1.7-7.9c-1.8-8.5-5.1-16.3-9.7-23 18.9-15.9 33-36.2 41.4-59.7 5.8-16.4 8.8-34.1 8.5-51.1v-.4c0-19-4.2-37.8-12.5-55.7-7.6-16.4-18.1-31.3-31.5-44.4-12.6-12.4-27.4-22.7-42.8-29.9-16.1-7.4-32.8-11.3-48.4-11.3h-29.1-41.1c-15.8 0-31 5.6-43 15.8s-20 24.4-22.5 39.9l-57.4 355.1-3.8 23.3h23.6 80.5 17.1l2.7-16.9 20-123.7h19c5.8.2 10.7 4.1 11.9 9.6zm-47.8-29.5-22.7 140.5h-80.5l57.4-355.1c3.7-22.4 22.9-38.9 45.7-38.9h41.1 29.1c52.1 0 115 54 115 121.3 0 4.5 3.2 72.7-62.6 109.5 0 0 17.8 5.3 22.8 28.9 2 9.4 3.3 15.1 4 18.5v.2c1.1 4.9 1.1 4.9 1.1 4.9l23.9 110.8h-81.9l-24.9-115.3c-3.2-14.7-16.2-25.3-31.3-25.3z"/><path d="m3674.9 587.1h-33.1l-15.1 94.5h35.1c31.5 0 53.1-32 47.9-60-3.5-18.7-19.1-34.5-34.8-34.5zm7.6 64.2c-3.2 3.8-10.1 10.3-20.7 10.3h-11.6l8.7-54.4h16c4.7 0 13 7.6 15 18.1 1.6 8.6-1.2 18.6-7.4 26z"/><path d="m3689.9 625.3c-1.9-10.5-10.3-18.1-15-18.1h-16l-8.7 54.4h11.6c10.6 0 17.5-6.5 20.7-10.3 6.2-7.4 9-17.4 7.4-26z" fill="#fff"/><path d="m3373.9 506.3c-22.2 0-44.5 11.8-55.1 37.1l-148.2 358.3h86l30.7-74.1h90.8l6.6 74.1h79.8l-30.3-340.6c-3.2-35.2-31.6-54.8-60.3-54.8zm-53.6 241.8 41.8-101 9 101z" fill="url(#i)"/></svg>