<svg enable-background="new 0 0 3840 444.8" viewBox="0 0 3840 444.8" xmlns="http://www.w3.org/2000/svg"><g fill="#e31e26"><path d="m341.5 140c-27.4-38.9-72.7-64.3-123.9-64.3-83.8 0-151.6 67.9-151.6 151.6s67.9 151.6 151.6 151.6c60.8 0 113.2-35.8 137.4-87.5h-133.9v-69h213.8c.1 1.6.1 3.2.1 4.8 0 22.3-3.3 43.8-9.6 64.1-27.4 88.8-110.1 153.5-207.9 153.5-120.1.2-217.5-97.3-217.5-217.4 0-120.2 97.4-217.5 217.6-217.5 89 0 165.5 53.6 199.2 130.2z"/><path d="m665.8 14.1-274.8 414h85.1l58.7-88.4h131.1v88.6h70.9v-414.2zm-84 254.7 84-126.5v126.5z"/><path d="m1291.9 14.1-189.6 285.4v-285.4h-70.9l-274.9 414h85.2l189.7-285.8v286h70.9v-.5l189.6-285.5v286h70.9v-414.2z"/><path d="m1635.5 85v-70.9h-215.4v414.2l70.9-.3h144.5v-70.9h-144.5v-96.5h144.5v-70.9h-144.5v-104.7z"/><path d="m2014.4 285.9c22.7-51.2 56.8-128 56.8-128h-69.6l-36.6 82.5-54.5-50.3c25-20.1 46.9-45.4 46.9-87.7 0-22.7-9-44.2-25.2-60.4-18.5-18.5-44.6-29.1-71.6-29.1-46.8 0-95.2 33.5-95.2 89.5 0 39 21.5 64.2 42.8 82.9-39.5 28-73.9 57.8-73.9 119.2 0 34.9 12.6 66.6 35.5 89.5 23.1 23.1 55.3 35.8 90.8 35.8 67.2 0 100.6-32.5 126.1-82.8l82.4 76.2 43.2-46.7zm-178.7-199.8c6-6 15.6-9.7 25-9.7 10 0 20.2 4 26.6 10.4 4.5 4.4 6.6 9.5 6.6 15.5 0 17.8-8.6 27.6-31.9 44.9-20.4-16.4-32.9-27.8-32.9-44.9-.1-6.4 2.1-11.7 6.6-16.2m100.8 218.5c-21.9 48.9-37.5 61.5-75.8 61.5-18.8 0-34.7-6-45.9-17.1-11.1-11.1-16.9-26.5-16.9-44.6 0-33.4 17.2-46.7 59.4-76 .2-.1.5-.3.6-.5l79.8 73.7z"/><path d="m2829.7 14.2-274.9 414h85.1l58.7-88.4h131.1v88.6h70.9v-414.2zm-84 254.7 84-126.4v126.4z"/><path d="m2249.7 428.4 189.5-285.5v285.5h70.9l274.9-414h-85.1l-189.8 285.7v-285.9h-70.9v.5l-189.5 285.4v-285.9h-70.9v414.2z"/><path d="m3769.1 14.2v166.7h-128v-166.7h-70.9v414.1h70.9v-176.4h128v176.4h70.9v-414.1z"/><path d="m3159.7 14.2h-231.4v70.9h80.3v343.2h70.9v-343.2h80.2z"/><path d="m3470 316.7c-27.2 30.3-66.6 49.2-110.5 49.2-82.2 0-148.8-66.6-148.8-148.7s66.6-148.7 148.8-148.7c43.2 0 82.1 19.4 109.3 49.3h83.1c-36.3-69-108.8-117.8-192.3-117.8-120 0-217.3 97.3-217.3 217.3s97.3 217.3 217.3 217.3c84.1 0 157-48 193.1-117.9z"/></g></svg>