<svg enable-background="new 0 0 3839 1328.6" viewBox="0 0 3839 1328.6" xmlns="http://www.w3.org/2000/svg"><g fill="#502f8e"><path d="m1595.6 870.7-3.8 6.9-160.8 291.9-170.5-292.2-3.9-6.7h-150.7l12.4 20.4 29 47.8c-46.5-44.2-117.7-68.2-210.4-68.2h-303.3v379.5l-224.6-372.5-3.9-6.5h-116l-3.9 6.6-255.6 430.5-12 20.2h100.4v.2h223.3v-101.1h-131.3l131.5-237.1 185.7 331.3 3.8 6.8h149.7l-.2-.4h229.9c198.2 0 298.8-77.4 298.8-230.2 0-26.5-3.4-51-10-73.3l179.9 297 3.9 6.4h87.6l3.8-6.7 249.7-430.5 11.7-20.1zm-707.6 350.7h-122v-247h172c93 0 136.3 37.6 136.3 118.3 0 96.1-47.1 128.7-186.3 128.7z"/><path d="m2611.3 870.7h-13.5v272l-343.8-269.2-3.6-2.8h-90.2v379.8l-225-373.1-4-6.5h-116l-3.8 6.5-255.6 430.6-12 20.3h136.3l.3-.5h187.5v-101.1h-131.4l131.3-236.6 185.7 331.3 3.8 6.9h149.7l-.1-.3h75.6v-275.8l342.6 272.9 3.7 2.9h90v-457.3z"/><path d="m3152.3 870.8h-268.1c-94.1 0-125.8 29.1-125.8 115.4v226.6c0 86 31.7 115.2 125.8 115.2h268.1c94.2 0 126-29.1 126-115.2v-64.2l-13.4-.1-105.5-.2h-13.4v70.4h-255.5v-241.5h255.5v63.5l13.4.1 105.5.4h13.5v-55.1c0-87.3-30.7-115.3-126.1-115.3"/><path d="m3801.7 1221.4h-348v-80.2h207.7v-100.9h-207.7v-66h356.4v-103.5h-488.8v457.2h493.8v-106.6z"/><path d="m1523.7 18-151.9 357.5-65.6-357.5h-132.6l-171.3 527.5-87.9-527.5h-165.4l-250.4 568.3 37.4-237.6h-248.8l-19 122.3h104l-11.9 65.5c-59.6 23.8-160.9 14.8-204.1-62.6-27.3-49.1-52.7-158.7 62.5-259.3 93.8-82 256.3-96.8 350.1-53.6 0 0 11.9-68.6 20.9-132.6-180.4-62.6-320.4-10.4-414.2 47.7-127.8 79.1-189.3 199.6-172.9 363.5 19 190.2 265.2 309.9 473.7 189.2 1.9-1.1 3.4-2 4.8-2.8l-19.6 44.5h140l87.9-195.2h154.9l34.3 195.2h228l116.2-365 74.6 365h89.4l174.2-403.7 17.8 403.7h134.1l-28.2-652.5zm-780.7 330.7 56.6-126.6 24.6 126.6z"/><path d="m1723.4 670.5h373.9l22.4-140h-234l18.6-116.2h203.5l22.3-140h-205.6l17.9-116.3h233.9l22.3-140h-370.9z"/><path d="m3682.5 18-132.5 213-83.5-213h-153.5l157.9 344.1-48.5 308.4h134.1l41.2-272.6 241.3-379.9z"/><path d="m3184.3 23.6c-148.6-34.3-302.8 84.1-344.4 264.5-41.7 180.4 45.1 354.4 193.6 388.7s302.8-84 344.4-264.5c41.7-180.2-45-354.4-193.6-388.7m52.5 383.6c-36.2 108.6-123 170.9-194 139.1-70.9-31.7-99.1-145.4-62.9-254 36.1-108.6 123-170.8 193.9-139.1 71 31.7 99.2 145.5 63 254z"/><path d="m2652.6 21.7c-72.4-1.2-251.4 0-251.4 0h1.5l-103.5 647.5h301.6c124.2 0 305.8-183 140.5-332.5 170.1-176 1.5-313.5-88.7-315m-78.4 521.9c-73.9 0-118.3 0-118.3 0l20.8-130.2h112.4c106.4-0 103.4 130.2-14.9 130.2zm16.3-263.2c-73.9 0-93.2 0-93.2 0l20.7-121.3h87.2c94.7 0 75.5 121.3-14.7 121.3z"/></g></svg>