<svg enable-background="new 0 0 3839 806.5" viewBox="0 0 3839 806.5" xmlns="http://www.w3.org/2000/svg"><path d="m240.3 775.4-209.3-115.7v-222.9l209.3-115.8h1109.7l177.7-290h783.6l177.7 290h1109.7l209.3 115.8v222.9l-209.3 115.7z" fill="#fff"/><path d="m241.4 771-205.9-114v-217.6l205.9-114h1111.1l177.7-289.9h778.6l177.7 289.9h1111.1l205.9 114v217.6l-205.9 114z" fill="#fff"/><path d="m242.6 766.5-202.7-112.1v-212.4l202.7-112.1h1112.4l177.7-290h773.6l177.7 290h1112.4l202.7 112.1v212.4l-202.7 112.1z" fill="#fff"/><path d="m2887.6 699.3v-302.2h117.4v302.3z" fill="#fff"/><path d="m2887.6 397.1h117.4v302.3h-117.4z" fill="#034693"/><path d="m1772.4 699.3h-117.4v-126.4l-231.5-119.1v245.6h-117.4v-302.3h132.1l216.9 111.6v-111.6h117.4z" fill="#fff"/><g fill="#034693"><path d="m1655.1 397.1v111.6l-217-111.6h-132v302.3h117.4v-245.7l231.6 119.2v126.4h117.3v-302.2z"/><path d="m3564.2 522.2h-348.9v-78.2h257.8l91.1-46.9h-348.9l-117.5 60.4v111.6h349v83.4h-257.8l-91.2 46.8h349l117.4-60.4z"/><path d="m2794.8 522.2h-348.9v-78.2h257.8l91.1-46.9h-348.9l-117.4 60.4v111.6h348.9v31.4 52h-257.8l-91.1 46.8h348.9l117.4-60.4z"/><path d="m1977.2 569.1h136.7l91.1-46.9h-227.8v-78.2h201.9l91.2-46.9h-293.1l-117.4 60.4v241.8h100.3 17.1 201.9l91.2-46.8h-293.1z"/><path d="m903.2 569.1h136.7l91.1-46.9h-227.8v-78.2h201.9l91.2-46.9h-293.1l-117.4 60.4v241.8h100.3 17.1 201.9l91.2-46.8h-293.1z"/><path d="m551.8 510.1-91.1 46.9h120.4v95.5h-231.5v-208.5h257.8l91.2-46.9h-349l-117.4 60.4v241.9h117.4v-.1h231.5l117.5-60.4v-128.8z"/><path d="m3606.7 290h-1100.4l-177.6-290h-818.3l-177.8 290h-1100.3l-232.3 128.5v259.5l232.3 128.5h3374.3l232.4-128.5v-259.5zm-1117.7 31h1109.7l209.3 115.8v222.9l-209.3 115.8h-3358.4l-209.3-115.8v-222.9l209.3-115.8h1109.7l177.7-290h783.6"/><path d="m1637.3 241.3h-106.8v33.3h106.8c20.5 0 37.6-17.1 37.6-37.6s-17.1-37.6-37.6-37.6h-27.3c-24.8 0-45.3-20.5-45.3-45.3s20.5-45.3 45.3-45.3h106v-33.2h-106.8c-43.6 0-78.6 35-78.6 78.6s35 78.6 78.6 78.6h27.3c2.6 0 4.3 1.7 4.3 4.3-.1 2.5-1.8 4.2-3.5 4.2z"/><path d="m1609.1 150.8h106.8v-34.2h-106.8c-20.5 0-37.6 17.1-37.6 37.6s17.1 37.6 37.6 37.6h27.3c24.8 0 45.3 20.5 45.3 45.3s-20.5 45.3-45.3 45.3h-106v33.3h106.8c43.6 0 78.6-35 78.6-78.6s-35-78.6-78.6-78.6h-27.3c-2.6 0-4.3-1.7-4.3-4.3.1-1.7 1.8-3.4 3.5-3.4z"/><path d="m1992.7 116.6c-14.5 0-25.6 11.1-25.6 25.6v106.8c0 14.5 11.1 25.6 25.6 25.6h69.2v-75.2h-53v33.3h19.7v7.7h-19.7c-4.3 0-7.7-3.4-7.7-7.7v-75.2c0-4.3 3.4-7.7 7.7-7.7h94.8v-33.3z"/><path d="m2202.8 274.6h77.8l-53-157.2c-1.7-4.3-5.1-7.7-10.3-7.7-4.3 0-8.5 3.4-10.3 6.8l-68.4 199h39.3l23.9-70.9v29.9h1zm13.7-71.8 11.1 34.2h-23.1z"/><path d="m2268.6 110.7c-6.8-22.2-27.3-39.3-52.1-39.3s-45.3 16.2-51.3 38.5l-62.4 182.9v-134.3h-94v33.3h61.5v90.6h-76.9c-18.8 0-33.3-15.4-33.3-33.3v-106.8c0-18.8 15.4-33.3 33.3-33.3h110.2v-33.4h-111.1c-36.7 0-66.7 29.9-66.7 66.7v106.7c0 36.7 29.9 66.7 66.7 66.7h137.6l69.2-200.7c2.6-7.7 9.4-12.8 17.9-12.8s15.4 5.1 17.9 12.8l56.4 167.5h-88.9v33.3h135z"/><path d="m1798.7 282.3c-18.8 0-33.3-15.4-33.3-33.3v-106.7c0-18.8 15.4-33.3 33.3-33.3h114.5v-33.4h-114.5c-36.7 0-66.7 29.9-66.7 66.7v106.7c0 36.7 29.9 66.7 66.7 66.7h114.5v-33.3z"/><path d="m1806.4 233.6h82.9v-33.3h-116.2v49.6c0 14.5 11.1 25.6 25.6 25.6h114.5v-33.3h-99.1c-4.3-.9-7.7-4.3-7.7-8.6z"/><path d="m1889.3 158.5h-82.9c0-4.3 3.4-7.7 7.7-7.7h98.3v-34.2h-113.6c-14.5 0-25.6 11.1-25.6 25.6v49.6h116.2z"/></g></svg>