<svg enable-background="new 0 0 3839 550.3" viewBox="0 0 3839 550.3" xmlns="http://www.w3.org/2000/svg"><g fill="#e31e26"><path d="m933.4 494.3s.2.1 0 0c12.7-8.2 21.3-22.8 21.3-39.4 0-25.7-20.3-46.6-45.5-46.6h-10.1-123v52 90h47.4v-27.7c0-4.9 4-8.8 8.8-8.8h64.6c4.9 0 8.8 4 8.8 8.8v.8 26.8h45.2v-26.8c-.1-6.9-3.1-19.6-17.5-29.1zm-100.9-16.2c-4.9 0-8.8-4-8.8-8.8v-18.1c0-4.9 4-8.8 8.8-8.8h64.5c4.9 0 8.8 4 8.8 8.8v18.1c0 4.9-4 8.8-8.8 8.8z"/><path d="m1290.7 408.2h-10.8-25.2-17.1-25.2-10.8c-23.3 0-42.2 18.9-42.2 42.2v11.4 88.5h46.5v-35h80.4v35h46.5v-88.5-11.4c-0-23.3-18.8-42.2-42.1-42.2zm-84.6 69.9v-22.5c0-6.5 5.2-11.7 11.7-11.7h19.9 17.1 19.9c6.5 0 11.7 5.2 11.7 11.7v22.5z"/><path d="m1364.5 408.2h48.1v142.1h-48.1z"/><path d="m1593.2 408.2h-151.1v142.1h45.8v-95.2c0-5.7 4.7-10.4 10.4-10.4h78.5c5.7 0 10.4 4.7 10.4 10.4v29 66.2h45v-66.2-11.4-17.2-8.2c.2-21.6-17.3-39.1-39-39.1z"/><path d="m1869.3 408.2h-206.7v142.1h41.9v-88.8-6.7c0-5.5 4.5-10.1 10.1-10.1h35.8c5.5 0 10.1 4.5 10.1 10.1v17.2 78.3h47.3v-88.8-6.7c0-5.5 4.5-10.1 10.1-10.1h35.8c5.5 0 10.1 4.5 10.1 10.1v6.7 88.8h2.3 45v-100.4c-.2-23.1-18.9-41.7-41.8-41.7z"/><path d="m2275.4 408.2h-151.1v142.1h45.8v-95.2c0-5.7 4.7-10.4 10.4-10.4h78.5c5.7 0 10.4 4.7 10.4 10.4v29 66.2h45v-66.2-11.4-17.2-8.2c.1-21.6-17.4-39.1-39-39.1z"/><path d="m339.9 408.2h-151.2v142.1h45.8v-95.2c0-5.7 4.7-10.4 10.4-10.4h78.5c5.7 0 10.4 4.7 10.4 10.4v29 66.2h45v-66.2-11.4-17.2-8.2c.2-21.6-17.3-39.1-38.9-39.1z"/><path d="m159.1 444.3v-36.1h-117.3-41.8v100.3c0 23.1 18.7 41.8 41.8 41.8h117.3v-36.1h-106c-6.2 0-11.2-5-11.2-11.2 0-6.2 5-11.2 11.2-11.2h99.8v-25.1h-99.8c-6.2 0-11.2-5-11.2-11.2 0-6.2 5-11.2 11.2-11.2z"/><path d="m748.8 444.3v-36.1h-117.3-41.8v100.3c0 23.1 18.7 41.8 41.8 41.8h117.3v-36.1h-106c-6.2 0-11.2-5-11.2-11.2 0-6.2 5-11.2 11.2-11.2h99.8v-25.1h-99.8c-6.2 0-11.2-5-11.2-11.2 0-6.2 5-11.2 11.2-11.2z"/><path d="m2096.3 444.3v-36.1h-117.2-41.8v100.3c0 23.1 18.7 41.8 41.8 41.8h117.3v-36.1h-106c-6.2 0-11.2-5-11.2-11.2 0-6.2 5-11.2 11.2-11.2h99.8v-25.1h-99.8c-6.2 0-11.2-5-11.2-11.2 0-6.2 5-11.2 11.2-11.2z"/><path d="m2506.1 408.2h-170.8v35.7h50.3c5.5 0 9.9 4.4 9.9 9.9v96.4h50.5v-96.4c0-5.5 4.4-9.9 9.9-9.9h50.3v-35.7z"/><path d="m1140.4 408.2h-170.8v35.7h50.3c5.5 0 9.9 4.4 9.9 9.9v96.4h50.5v-96.4c0-5.5 4.4-9.9 9.9-9.9h50.3z"/><path d="m568.3 408.2h-170.8v35.7h50.3c5.5 0 9.9 4.4 9.9 9.9v96.4h50.5v-96.4c0-5.5 4.4-9.9 9.9-9.9h50.3z"/><path d="m3152 466h-66.7c-7.8 0-13.2-3.1-13.2-10.2 0-6.3 4.7-11.7 10.9-11.7h114.1v-35.9h-124.9c-23.3 0-42.7 19.5-42.7 41.3 0 31.2 20.2 43 47.3 43h66.7c7 0 14 3.1 14 10.2 0 6.3-4.7 11.7-10.9 11.7h-117.2v35.9h128c21 0 42.7-17.2 42.7-41.3.1-29-23.2-43-48.1-43z"/><path d="m2770.2 466.1h-65.2c-7.8 0-14-3.1-14-10.2 0-6.2 6.2-11.7 11.6-11.7h114.1v-35.9h-124.9c-24.8 0-45 19.5-45 41.3 0 31.1 21.7 42.9 48.9 42.9h65.2c7.8 0 14 3.1 14 10.2 0 6.2-6.2 11.7-11.6 11.7h-115.7v35.9h128c23.3 0 44.2-17.2 44.2-41.3.1-28.9-22.4-42.9-49.6-42.9z"/><path d="m3797.3 408.3h-206.7v142.1h41.9v-88.8-6.7c0-5.5 4.5-10.1 10.1-10.1h35.8c5.5 0 10.1 4.5 10.1 10.1v17.3 78.3h47.3v-88.8-6.7c0-5.5 4.5-10.1 10.1-10.1h35.8c5.5 0 10.1 4.5 10.1 10.1v6.7 88.8h2.3 45v-100.6c-.2-23-18.8-41.6-41.8-41.6z"/><path d="m3008.5 408.3h-42.7-.3v53c0 5.9-4.8 10.7-10.7 10.7h-63.8c-5.9 0-10.7-4.8-10.7-10.7v-53h-1-44v52 7.4c0 22.5 18.2 40.7 40.7 40.7h21.4v41.9h49.7v-41.9h21.8c22.5 0 40.7-18.2 40.7-40.7v-59.5h-1.1z"/><path d="m3562.4 444.3v-36.1h-117.2-41.8v100.3c0 23.1 18.7 41.8 41.8 41.8h117.3v-36.1h-106c-6.2 0-11.2-5-11.2-11.2 0-6.2 5-11.2 11.2-11.2h99.8v-25.1h-99.8c-6.2 0-11.2-5-11.2-11.2 0-6.2 5-11.2 11.2-11.2z"/><path d="m3385.3 408.2h-170.8v35.7h50.3c5.5 0 9.9 4.4 9.9 9.9v96.4h50.5v-96.4c0-5.5 4.4-9.9 9.9-9.9h50.3v-35.7z"/><path d="m217.9 205.3-126.2-204.5h-91.7v292.8h90.7v-204.6l127 204.6h90.7v-292.8h-90.6v204.5zm717.6-106.4v-29h-47.9v-39.5h-88.3v39.6h-47.9v28.9h47.9v194.7h88.3v-194.7zm-576.6 194.7h88.3v-194.7h-88.3zm0-233.4h88.3v-60.2h-88.3zm1542.6 25.5c-70.9 0-128.6 48.7-128.6 109.7 0 60.2 57.7 109.7 128.6 109.7s128.6-48.7 128.6-109.7-56-109.7-128.6-109.7zm35.5 150.1c0 31.4-18.2 43.7-36.3 43.7-17.3 0-36.3-13.2-36.3-43.7 0-11.6 0-42.1 0-42.1s0-28.9 0-40.4c0-30.5 18.2-43.7 36.3-43.7 17.3 0 36.3 12.4 36.3 43.7v41.3zm-278.9-127c-14-8.3-28.9-15.6-49.5-17.3-63.5-5.8-112.2 50.3-112.2 102.3 0 67.7 52 93.3 60.2 96.5 29.7 14 67.7 14 101.4-7.4v11.6h86.7v-292.9h-86.7c.1-.8.1 61.9.1 107.2zm0 86.7v34.6c0 29.7-20.6 38-34.6 38s-34.6-8.3-34.6-38c0-10.8 0-34.6 0-34.6s0-24.8 0-34.6c0-30.5 20.6-38 34.6-38s34.6 7.4 34.6 38zm-1004.8-105.6c-28.9.8-53.6 13.2-70.1 29.7 0-5 0-20.6 0-20.6h-87.4v194.7h87.4s0-119.6 0-127.9c0-17.3 18.2-35.5 42.1-35.5s40.4 18.9 40.4 35.5v127.9h87.4s0-92.4 0-105.6c.1-77.6-66.7-99.1-99.8-98.2zm716.1 0c-28.9.8-53.6 13.2-70.1 29.7 0-5 0-20.6 0-20.6h-87.4v194.7h87.4s0-119.6 0-127.9c0-17.3 18.2-35.5 42.1-35.5s40.4 18.9 40.4 35.5v127.9h87.4s0-92.4 0-105.6c-.8-77.6-67.7-99.1-99.8-98.2zm-185.6 107.2c0-60.2-58.6-110.5-130.4-110.5-71.7 0-129.5 48.7-129.5 109.7 0 60.2 57.7 109.7 129.5 109.7 59.4 0 109.7-33.8 125.4-80.1h-87.4v11.6c0 35.5-23.1 43.7-36.3 43.7s-37.1-8.3-37.1-43.7c0-10.8 0-40.4 0-40.4zm-159.2-68.5c6.6-12.4 19.8-17.3 31.4-18.2 11.6 0 23.9 5.8 31.4 18.2 5.8 9.9 5.8 21.4 5.8 38h-73.5c-1.7-17.3-1.7-28 4.9-38z"/></g></svg>