<svg enable-background="new 0 0 3839 422" viewBox="0 0 3839 422" xmlns="http://www.w3.org/2000/svg"><path d="m462 142.6-10.9-4.6c.7-2.1 1.3-4.6 1.3-7.3 0-6.8-63.7-43.3-174.2-43.3-105.5 0-151 25.1-151 57.4 0 85.5 399.1-39.6 399.1 149.1 0 68.8-86.7 122-260.2 122-165.3 0-212.7-40.6-228.4-40.6-4.1 0-6.1 2.7-9.4 4.1l-8.8-1.6 56.3-88.6 10.9 4.1c0 2.1-1.3 4.1-1.3 8.4 0 30.8 87.4 52.6 174.2 52.6 123.3 0 165.3-27.1 165.3-55.8.1-102.2-393.6 24.5-393.6-148.6-.1-87.5 119.8-124 251.2-124 117.9 0 200.6 39.6 208.7 39.6 8.8 0 10.2-2.1 12.2-3.6l10.9 2.7z"/><path d="m546 403.2c14.9 0 17.7-4.1 17.7-15.7v-333.5c0-11.4-2.7-15.7-17.7-15.7v-7.3h439.7c16.2 0 23.1-4.1 23.1-11.4h9.4v86.6h-9.4c0-9.4-6.8-13.5-23.1-13.5h-325.7v92.8h212.7c16.2 0 23.1-4.1 23.1-13.5h9.4v87.6h-9.4c0-4.1-1.3-7.3-5.4-9.4-3.5-2.1-9.4-3.2-17.7-3.2h-212.7v102h332c16.2 0 23.1-4.1 23.1-12.5h9.4v85.5h-9.4c0-7.3-6.8-11.4-23.1-11.4h-446z"/><path d="m1592.9 210.4v7.3c-6.8 1.1-12.9 5.2-12.9 16.7v102.6c0 8.4 3.5 11.4 12.2 13v7.3c-42.8 18.7-147 58.4-264.2 58.4-155.9 0-292.7-59.5-292.7-194.9s159.8-195 300.8-195c55.5 0 108.5 10 147 19.3 35.8 11.9 62.4 21.4 67 21.4 6.1 0 12.2-2.7 14.9-5.7l9.4 3.2-65.7 85.5-9.4-4.6c.7-2.1 1.3-5.2 1.3-8.9 0-16.2-73.2-48.5-163.3-48.5-113.8 0-205.9 43.3-205.9 131.3 0 92.3 92.1 135.6 196.5 135.6 85.4 0 135.6-22.4 155.9-33.9v-43.3h-116.6c-13.5 0-21.6 5.2-21.6 12.5h-9.4v-91.7h9.4c0 7.3 8.1 12.5 21.6 12.5z"/><path d="m1594.2 410.5v-7.3c12.2-.5 16.2-3.2 25.8-19.8l184.9-320c3.5-5.2 7.4-10.9 7.4-15.7 0-5.7-5.4-8.4-14.2-9.4v-7.3h147.8v7.3c-10.2 1.1-14.2 4.1-14.2 7.8 0 4.1 2.7 8.4 6.1 13.5l196.5 323.7c9.4 16.2 12.2 19.8 26.4 19.8v7.3h-134.9v-7.3c8.8 0 12.2-2.7 12.2-5.2 0-5.7-6.1-13-51.5-87.5h-232.3c-39.3 67.7-49.5 78.2-49.5 85 0 4.6 4.1 7.3 10.2 7.8v7.3zm353-159.5-81.2-136.6-79.9 136.6z"/><path d="m2519.2 168.2h9.4c2.7 8.9 13.5 13 51.5 13 92.8 0 117.9-23.5 117.9-45.8 0-24-32.5-47.9-103.7-47.9-91.5 0-154.5 38.5-154.5 55.8 0 3.6 1.3 6.8 2.7 9.4l-8.1 5.2-71.7-72.5 9.4-4.1c2.7 1.6 6.1 3.2 10.2 3.2 19.6 0 60.9-58.4 218.1-58.4 110.5 0 193.8 45.8 193.8 105.8 0 35.4-25.1 63.1-68.4 73v1.1c57 15.7 96.3 45.4 96.3 94.8 0 67.2-85.4 115.2-216.8 115.2-176.8 0-215.5-46.9-238.4-46.9-5.4 0-9.4 2.1-13.5 4.6l-10.9-3.2 54.2-89.6 10.2 4.6c0 1.6-.7 3.6-.7 6.2 0 20.3 75.1 62.5 187.7 62.5 85.4 0 132.1-23 132.1-55.8 0-28.7-35.2-59.9-133.4-59.9-50.8 0-61.6 5.7-63.7 15.1h-9.4v-85.6h-.3z"/><path d="m2839.6 103 9.4-5.7c1.3 1.6 4.1 2.7 8.1 2.7 19 0 69.8-73.9 214.1-73.9 84 0 189.1 37 189.1 109.4 0 138.6-258.8 124-327.9 211.6h326.6c14.9 0 20.3-4.1 20.3-12.5h9.4v87.4h-9.4c0-7.3-5.4-11.4-20.3-11.4h-435c0-190.3 340.1-181.9 340.1-271.5 0-33.9-50.8-51.6-96.9-51.6-77.9-.1-144.3 49.9-144.3 72.9 0 4.6 2.7 7.8 5.4 10.5l-8.8 6.2z"/><path d="m3313.9 410.5v-7.3c17-1.1 21.6-8.9 34.5-21.9l169.4-167.3-159.8-163.6c-4.1-4.1-10.2-11.9-27.1-11.9v-7.4h159.8v7.3c-8.8 0-14.2 2.1-14.2 7.3 0 2.1 3.5 6.2 10.2 13l92.1 94.8 96.3-95.3c5.4-5.7 9.4-10 9.4-13 0-4.1-5.4-6.8-11.6-6.8v-7.3h150.4v7.3c-22.3.5-31.2 9.4-44.1 21.9l-147.8 146.4 170.7 174.6c13.5 14.1 18.3 21.4 36.6 21.9v7.3h-158.5v-7.3c10.2 0 12.9-1.6 12.9-6.8 0-4.6-11.6-15.1-24.4-28.1l-98.7-100.7-119.9 118.8c-3.5 3.6-6.1 5.2-6.1 10 0 4.1 5.4 6.8 14.2 6.8v7.3z"/><g fill="#da221f"><path d="m442.4 122.9-10.9-4.6c.7-2.1 1.3-4.6 1.3-7.3 0-6.8-63.7-43.3-174.2-43.3-105.5 0-151 25.1-151 57.4 0 85.5 399.1-39.6 399.1 149.1 0 68.8-86.7 122-260.2 122-165.3 0-212.7-40.6-228.4-40.6-4.1 0-6.1 2.7-9.4 4.1l-8.7-1.6 56.3-88.6 10.9 4.1c0 2.1-1.3 4.1-1.3 8.4 0 30.8 87.4 52.6 174.2 52.6 123.3 0 165.3-27.1 165.3-55.8 0-102.1-393.6 24.6-393.6-148.6-.1-87.5 119.8-124 251.2-124 117.9 0 200.6 39.6 208.7 39.6 8.8 0 10.2-2.1 12.2-3.6l10.9 2.7z"/><path d="m526.4 383.6c14.9 0 17.7-4.1 17.7-15.7v-333.5c0-11.4-2.7-15.7-17.7-15.7v-7.3h439.7c16.2 0 23.1-4.1 23.1-11.4h9.4v86.6h-9.4c0-9.4-6.8-13.5-23.1-13.5h-325.8v92.8h212.7c16.2 0 23.1-4.1 23.1-13.5h9.4v87.6h-9.4c0-4.1-1.3-7.3-5.4-9.4-3.5-2.1-9.4-3.2-17.7-3.2h-212.7v102.1h332c16.2 0 23.1-4.1 23.1-12.5h9.4v85.5h-9.4c0-7.3-6.8-11.4-23.1-11.4h-446v-7.5z"/><path d="m1573.3 190.8v7.3c-6.8 1.1-12.9 5.2-12.9 16.7v102.6c0 8.4 3.5 11.4 12.2 13v7.3c-42.8 18.7-147 58.4-264.2 58.4-155.9 0-292.7-59.5-292.7-194.9s159.8-195 300.8-195c55.5 0 108.5 10 147 19.3 35.8 11.9 62.4 21.4 67 21.4 6.1 0 12.2-2.7 14.9-5.7l9.4 3.2-65.7 85.5-9.4-4.6c.7-2.1 1.3-5.2 1.3-8.9 0-16.2-73.2-48.5-163.3-48.5-113.8 0-205.9 43.3-205.9 131.3 0 92.3 92.1 135.6 196.5 135.6 85.4 0 135.6-22.4 155.9-33.9v-43.3h-116.6c-13.5 0-21.6 5.2-21.6 12.5h-9.4v-91.7h9.4c0 7.3 8.1 12.5 21.6 12.5z"/><path d="m1574.6 390.9v-7.3c12.2-.5 16.2-3.2 25.8-19.8l184.9-320c3.5-5.2 7.4-10.9 7.4-15.7 0-5.7-5.4-8.4-14.2-9.4v-7.3h147.8v7.3c-10.2 1.1-14.2 4.1-14.2 7.8 0 4.1 2.7 8.4 6.1 13.5l196.5 323.7c9.4 16.2 12.2 19.8 26.4 19.8v7.3h-134.9v-7.3c8.8 0 12.2-2.7 12.2-5.2 0-5.7-6.1-13-51.5-87.5h-232.3c-39.3 67.7-49.5 78.2-49.5 85 0 4.6 4.1 7.3 10.2 7.8v7.3zm353-159.5-81.3-136.6-79.9 136.6z"/><path d="m2499.6 148.6h9.4c2.7 8.9 13.5 13 51.5 13 92.8 0 117.9-23.5 117.9-45.8 0-24-32.5-47.9-103.7-47.9-91.5 0-154.5 38.5-154.5 55.8 0 3.6 1.3 6.8 2.7 9.4l-8.1 5.2-71.8-72.6 9.4-4.1c2.7 1.6 6.1 3.2 10.2 3.2 19.6 0 60.9-58.4 218.1-58.4 110.5 0 193.8 45.8 193.8 105.8 0 35.4-25.1 63.1-68.4 73v1.1c57 15.7 96.3 45.4 96.3 94.8 0 67.2-85.4 115.2-216.8 115.2-176.8 0-215.5-46.9-238.4-46.9-5.4 0-9.4 2.1-13.5 4.6l-10.9-3.2 54.2-89.6 10.2 4.6c0 1.6-.7 3.6-.7 6.2 0 20.3 75.1 62.5 187.7 62.5 85.4 0 132.1-23 132.1-55.8 0-28.7-35.2-59.9-133.4-59.9-50.8 0-61.6 5.7-63.7 15.1h-9.4v-85.6h-.2z"/><path d="m2819.9 83.4 9.4-5.7c1.3 1.6 4.1 2.7 8.1 2.7 19 0 69.8-73.9 214.1-73.9 84 0 189.1 37 189.1 109.4 0 138.6-258.8 124-327.9 211.6h326.6c14.9 0 20.3-4.1 20.3-12.5h9.4v87.5h-9.4c0-7.3-5.4-11.4-20.3-11.4h-434.9c0-190.3 340.1-181.9 340.1-271.5 0-33.9-50.8-51.6-96.9-51.6-77.9-.1-144.3 49.9-144.3 72.9 0 4.6 2.7 7.8 5.4 10.5l-8.8 6.2z"/><path d="m3294.3 390.9v-7.3c17-1.1 21.6-8.9 34.5-21.9l169.4-167.3-159.8-163.6c-4.1-4.1-10.2-11.9-27.1-11.9v-7.4h159.8v7.3c-8.8 0-14.2 2.1-14.2 7.3 0 2.1 3.5 6.2 10.2 13l92.1 94.8 96.3-95.3c5.4-5.7 9.4-10 9.4-13 0-4.1-5.4-6.8-11.6-6.8v-7.3h150.4v7.3c-22.3.5-31.2 9.4-44.1 21.9l-147.6 146.4 170.7 174.6c13.5 14.1 18.3 21.4 36.6 21.9v7.3h-158.5v-7.3c10.2 0 12.9-1.6 12.9-6.8 0-4.6-11.6-15.1-24.4-28.1l-98.9-100.7-119.9 118.8c-3.5 3.6-6.1 5.2-6.1 10 0 4.1 5.4 6.8 14.2 6.8v7.3z"/></g></svg>