<svg viewBox="0 0 131.2 164.9" xmlns="http://www.w3.org/2000/svg"><path d="m129 164.9h-126.8c-1.2 0-2.2-1-2.2-2.2v-160.5c0-1.2 1-2.2 2.2-2.2h126.8c1.2 0 2.2 1 2.2 2.2v160.5c0 1.2-1 2.2-2.2 2.2z" fill="#2b2a2b"/><path d="m123.3 157.5h-115.3c-1.4 0-2.5-1.1-2.5-2.5v-144.5c0-1.4 1.1-2.5 2.5-2.5h115.3c1.4 0 2.5 1.1 2.5 2.5v144.5c-.1 1.4-1.2 2.5-2.5 2.5z" fill="#a7afb6"/><path d="m28.3 29.1h74.6v97.7h-74.6z" fill="#bbbdbf"/><path clip-rule="evenodd" d="m9.7 25.9c.1-.4.2-.7.4-1.1.1-.4.3-.9.4-1.3.2-.8.5-1.6.7-2.3.1-.3.3-.5.6-.6s.8 0 1 .4c.1.2.2.5.3.8.1.4.3.9.4 1.3.3.9.5 1.8.8 2.7 0 .1 0 .1.1.2h-1.2l-.3-.9-.1-.1h-1.5l-.3.9c0 .1-.1.1-.1.1-.5-.1-.8-.1-1.2-.1zm2.3-4.2c-.2.7-.3 1.4-.5 2.2h.9c-.1-.7-.2-1.5-.4-2.2zm13.3 4.2v-5.4h1.2v5.4zm-2.9-4.3v4.3h-1.2v-.2-4.4c0-.3.4-.8.8-.8h1.1c.7 0 1.4.5 1.6 1.2.2.6-.1 1.2-.5 1.5-.1.1-.3.2-.4.3.5.8.9 1.6 1.4 2.4h-1.3s-.1 0-.1-.1c-.4-.7-.8-1.4-1.1-2.1-.3-.5-.1-.8.4-1 .2-.1.3-.1.4-.3.2-.2.2-.4 0-.6-.1-.2-.3-.3-.6-.3-.2.1-.3.1-.5.1zm-1.3 4.3h-1.2l-.3-.9-.1-.1h-1.5l-.3.9-.1.1h-1.1c.1-.3.2-.7.3-1 .3-1.1.7-2.1 1-3.2.1-.3.2-.5.3-.8.3-.6.9-.6 1.3-.2.2.2.3.4.3.6.2.5.3 1.1.5 1.6.3.9.5 1.8.8 2.7.1.2.1.2.1.3zm-2.3-4.2c-.2.7-.3 1.4-.5 2.1h.9c-.1-.6-.2-1.4-.4-2.1zm-4 4.2v-4.3h-1v-1h3.3v1h-1v4.3z" fill="#ad2b37" fill-rule="evenodd"/><path d="m27.7 11.7h12.7l-6.4 14.6h-5.3l4.9-10.3h-5.9zm19.7 6.7c1.2.4 2.1.9 2.7 1.6s1 1.5 1 2.5c0 1.3-.6 2.3-1.7 3.1s-2.6 1.2-4.5 1.2-3.4-.4-4.6-1.1c-1.1-.8-1.7-1.8-1.7-3.1 0-.3 0-.6.1-.9s.2-.6.3-.8c.1-.3.3-.5.5-.7s.4-.4.7-.6.6-.4.9-.5c.4-.2.7-.3 1.1-.5-.6-.2-1.1-.4-1.5-.7-.4-.2-.8-.6-1-1.1-.3-.5-.4-1-.4-1.6 0-1 .5-1.9 1.6-2.6s2.5-1 4.1-1c1.7 0 3 .4 4.1 1.1s1.6 1.6 1.6 2.7c0 .7-.3 1.3-.8 1.9-.7.2-1.5.7-2.5 1.1zm-.9 3.2c0-1-.5-1.6-1.5-1.6s-1.6.5-1.6 1.4c0 1 .5 1.5 1.6 1.5 1 .1 1.5-.4 1.5-1.3zm-.5-5.8c0-.9-.4-1.3-1.2-1.3s-1.2.4-1.2 1.2c0 .5.1.8.3 1s.5.3.9.3c.9 0 1.2-.4 1.2-1.2zm23.6-4.4c2 0 3.5.7 4.6 2 1 1.3 1.6 3.2 1.6 5.7s-.5 4.4-1.6 5.7-2.6 2-4.5 2-3.3-.6-4.4-1.8-1.7-3.2-1.7-5.9c0-2.4.5-4.3 1.6-5.6.9-1.5 2.4-2.1 4.4-2.1zm-2.1 7.5c0 2.1.7 3.1 2 3.1.7 0 1.3-.2 1.6-.7s.5-1.2.5-2.2c0-1.1-.2-1.9-.5-2.4s-.9-.8-1.6-.8c-1.3.1-2 1.1-2 3zm-10.4-7.5c2 0 3.5.7 4.6 2 1 1.3 1.6 3.2 1.6 5.7s-.5 4.4-1.6 5.7-2.6 2-4.5 2-3.3-.6-4.4-1.8-1.7-3.2-1.7-5.9c0-2.4.5-4.3 1.6-5.6.9-1.5 2.4-2.1 4.4-2.1zm-2.1 7.5c0 2.1.7 3.1 2 3.1.7 0 1.3-.2 1.6-.7s.5-1.2.5-2.2c0-1.1-.2-1.9-.5-2.4-.3-.4-.8-.7-1.6-.7-1.3 0-2 1-2 2.9z" fill="#a62f34"/></svg>