<svg height="200" width="187.41615" xmlns="http://www.w3.org/2000/svg" xmlns:xlink="http://www.w3.org/1999/xlink"><clipPath id="a"><path d="m0 178.208h166.995v-178.208h-166.995z"/></clipPath><g clip-path="url(#a)" transform="matrix(1.122286 0 0 -1.122286 0 200.00034)"><path d="m166.9951 177.7173v-170.348c0-4.053-3.316-7.369-7.369-7.369h-152.257c-4.053 0-7.369 3.316-7.369 7.369v170.348z" fill="#4f4c4d"/><path d="m164.8496 24.3179v110.277c0 1.013-.828 1.842-1.842 1.842h-159.021c-1.013 0-1.842-.829-1.842-1.842v-110.277z" fill="#393536"/><path d="m0 164.9268v6.035c0 1.04.851 1.891 1.891 1.891h163.213c1.041 0 1.89-.851 1.89-1.891v-6.035 13.282h-166.994z" fill="#444141"/><path d="m2.145 7.532h162.705v16.786h-162.705z" fill="#706d6e"/><path d="m9.685 8.469h-2.96v15.911h2.96zm4.563 0h-2.96v15.911h2.96zm4.563 0h-2.96v15.911h2.96zm4.563 2.432h-2.96v13.479h2.96zm4.563 0h-2.96v13.479h2.96zm4.564 0h-2.961v13.479h2.961zm4.563 0h-2.96v13.479h2.96zm4.563 0h-2.96v13.479h2.96zm4.563 0h-2.96v13.479h2.96zm4.564 0h-2.961v13.479h2.961zm4.562 0h-2.96v13.479h2.96zm4.564 0h-2.96v13.479h2.96zm4.563 0h-2.961v13.479h2.961zm4.563 0h-2.96v13.479h2.96zm4.563 0h-2.96v13.479h2.96zm4.564 0h-2.961v13.479h2.961zm4.562 0h-2.96v13.479h2.96zm4.564 0h-2.96v13.479h2.96zm4.563 0h-2.96v13.479h2.96zm4.563 0h-2.96v13.479h2.96zm4.563 0h-2.96v13.479h2.96zm4.564 0h-2.96v13.479h2.96zm4.563 0h-2.961v13.479h2.961zm4.563 0h-2.96v13.479h2.96zm4.563 0h-2.96v13.479h2.96zm4.564 0h-2.96v13.479h2.96zm4.563 0h-2.961v13.479h2.961zm4.563 0h-2.96v13.479h2.96zm4.563 0h-2.96v13.479h2.96zm4.564 0h-2.961v13.479h2.961zm4.562 0h-2.96v13.479h2.96zm4.564 0h-2.96v13.479h2.96zm4.563 0h-2.961v13.479h2.961zm4.563-2.432h-2.96v15.911h2.96z" fill="#f57a14"/></g><path d="m185.01094 74.271704c0 3.543079-2.89888 6.441969-6.44196 6.441969h-169.7229355c-3.5430813 0-6.4419659-2.89889-6.4419659-6.441969v-20.778561c0-3.543081 2.8988846-6.441966 6.4419659-6.441966h169.7229355c3.54308 0 6.44196 2.898885 6.44196 6.441966z"/><path d="m141.74767 69.262432-15.61597 5.66281h15.7155l5.97621-3.299253m22.59262-6.183965h-9.68614l-6.81045-3.130796-4.19887 1.70841-22.55623-11.099508h18.55158" fill="#f00"/><path d="m161.71486 58.656701 15.61791-5.660233h-15.71486l-5.97589 3.296676m-22.59326 6.183965h9.68582l6.81109 3.131117 4.19855-1.708731 22.55622 11.099507h-18.55125m-147.667254-22.230902h12.296102v15.025886h-12.296102zm0 16.865389h31.508943v4.599886h-31.508943zm19.980723-16.865389h14.603937l9.990523 8.431567-7.221444 5.298195m1.072265 7.735835h11.528221v-6.900956l22.288558-14.564641h-10.760338l-22.286626 14.564641h-.769814m35.354475-12.266148 12.296102 7.666262v11.500842h-12.296102m33.046964 0h6.91674v-21.467852h-5.99457v15.097069l-22.440914-15.094814h-9.992455" fill="#fc0"/></svg>