<svg xmlns="http://www.w3.org/2000/svg" width="187.416" height="200"><clipPath id="a"><path d="M0 178.208h166.995V0H0z"/></clipPath><g clip-path="url(#a)" transform="matrix(1.12229 0 0 -1.12229 0 200)"><path fill="#4f4c4d" d="M166.995 177.717V7.37c0-4.053-3.316-7.369-7.369-7.369H7.37C3.316 0 0 3.316 0 7.37v170.347z"/><path fill="#393536" d="M164.85 24.318v110.277a1.847 1.847 0 0 1-1.842 1.842H3.987a1.85 1.85 0 0 1-1.842-1.842V24.318z"/><path fill="#444141" d="M0 164.927v6.035c0 1.04.851 1.89 1.891 1.89h163.213c1.041 0 1.89-.85 1.89-1.89v-6.035 13.282H0z"/><path fill="#706d6e" d="M2.145 7.532H164.85v16.786H2.145z"/><path fill="#f57a14" d="M9.685 8.469h-2.96V24.38h2.96zm4.563 0h-2.96V24.38h2.96zm4.563 0h-2.96V24.38h2.96zm4.563 2.432h-2.96V24.38h2.96zm4.563 0h-2.96V24.38h2.96zm4.564 0H29.54V24.38h2.961zm4.563 0h-2.96V24.38h2.96zm4.563 0h-2.96V24.38h2.96zm4.563 0h-2.96V24.38h2.96zm4.564 0h-2.961V24.38h2.961zm4.562 0h-2.96V24.38h2.96zm4.564 0h-2.96V24.38h2.96zm4.563 0h-2.961V24.38h2.961zm4.563 0h-2.96V24.38h2.96zm4.563 0h-2.96V24.38h2.96zm4.564 0h-2.961V24.38h2.961zm4.562 0h-2.96V24.38h2.96zm4.564 0h-2.96V24.38h2.96zm4.563 0h-2.96V24.38h2.96zm4.563 0h-2.96V24.38h2.96zm4.563 0h-2.96V24.38h2.96zm4.564 0h-2.96V24.38h2.96zm4.563 0h-2.961V24.38h2.961zm4.563 0h-2.96V24.38h2.96zm4.563 0h-2.96V24.38h2.96zm4.564 0h-2.96V24.38h2.96zm4.563 0h-2.961V24.38h2.961zm4.563 0h-2.96V24.38h2.96zm4.563 0h-2.96V24.38h2.96zm4.564 0h-2.961V24.38h2.961zm4.562 0h-2.96V24.38h2.96zm4.564 0h-2.96V24.38h2.96zm4.563 0h-2.961V24.38h2.961zm4.563-2.432h-2.96V24.38h2.96z"/></g><path d="M185.01 74.272c0 3.543-2.898 6.442-6.441 6.442H8.846c-3.543 0-6.442-2.9-6.442-6.442V53.493c0-3.543 2.899-6.442 6.442-6.442h169.723c3.543 0 6.442 2.9 6.442 6.442z"/><path fill="red" d="m141.748 69.262-15.616 5.663h15.715l5.976-3.299m22.593-6.184h-9.686l-6.81-3.13-4.2 1.708-22.556-11.1h18.552"/><path fill="#fc0" d="m161.715 58.657 15.618-5.66h-15.715l-5.976 3.296m-22.593 6.184h9.686l6.81 3.131 4.2-1.709L176.3 75h-18.55M10.081 52.769h12.296v15.025H10.082zm0 16.864H41.59v4.6H10.08zm19.98-16.865h14.605l9.99 8.432-7.221 5.298m1.072 7.736h11.528v-6.901l22.289-14.565h-10.76L49.277 67.333h-.77m35.354-12.266 12.297 7.666v11.5H83.862m33.047 0h6.917V52.767h-5.994v15.097L95.39 52.768h-9.993"/></svg>