<svg height="200" width="169.33333" xmlns="http://www.w3.org/2000/svg"><g fill="#2d2c2b"><path d="m156.99999843 199.999998h-144.66666523c-1.66666664 0-2.99999996-1.33333332-2.99999996-2.99999997v-191.66666475c0-1.66666665 1.33333332-2.99999997 2.99999997-2.99999997h144.6666653c1.6666667 0 3 1.3333334 3 3v191.6666648c0 1.6666667-1.3333333 3-2.9999999 3z"/><path d="m4.3333333 45.6666662h3.3333333c.99999998 0 1.99999997-.99999998 1.99999997-1.99999997v-41.66666625c0-1-1-1.99999998-1.99999998-1.99999998h-3.33333329c-1 0-2 1-2 1.99999998v41.99999958c0 .66666666 1 1.66666665 2 1.66666665z"/><path d="m1.66666665 10.66666656h-1c-.3333333 0-.66666665-.33333333-.66666665-.66666666v-1.33333332c0-.33333333.33333333-.66666666.66666666-.66666666h1c.33333332 0 .66666665.33333333.66666665.66666666v1.33333332c0 .33333333-.3333333.66666666-.6666666.66666666z"/><path d="m1.66666665 16.99999983h-1c-.3333333 0-.66666665-.33333333-.66666665-.66666666v-1.33333332c0-.33333333.33333333-.66666666.66666666-.66666666h1c.33333332 0 .66666665.3333333.66666665.6666666v1.3333333c0 .3333333-.3333333.6666666-.6666666.6666666z"/><path d="m1.66666665 23.3333331h-1c-.3333333 0-.66666665-.33333333-.66666665-.66666666v-1.33333332c0-.33333333.33333333-.66666666.66666666-.66666666h1c.33333332 0 .66666665.33333333.66666665.66666666v1.33333332c0 .33333333-.3333333.66666666-.6666666.66666666z"/><path d="m1.66666665 29.66666637h-1c-.3333333 0-.66666665-.33333333-.66666665-.66666667v-1.3333333c0-.33333334.33333333-.66666667.66666666-.66666667h1c.33333332 0 .66666665.33333333.66666665.66666666v1.3333333c0 .3333333-.3333333.6666666-.6666666.6666666z"/><path d="m1.66666665 35.6666663h-1c-.3333333 0-.66666665-.3333333-.66666665-.66666664v-1.33333332s.33333333-.33333333.66666666-.33333333h1c.33333332 0 .66666665.3333334.66666665.6666667v1.3333333c0 .3333334-.3333333.3333334-.6666666.3333334z"/><path d="m1.66666665 41.99999958h-1c-.3333333 0-.66666665-.33333333-.66666665-.66666666v-1.33333332c0-.33333333.33333333-.66666666.66666666-.66666666h1c.33333332 0 .66666665.33333333.66666665.66666666v1.33333332c0 .33333333-.3333333.66666666-.6666666.66666666z"/><path d="m164.99999835 45.99999954h-3.3333333c-1 0-1.99999998-1-1.99999998-1.99999998v-41.66666626c0-.99999998 1-1.99999997 1.99999998-1.99999997h3.3333333c1 0 1.99999998 1 1.99999998 1.99999998v41.9999996c0 1-1 1.6666667-1.99999998 1.6666667z"/><path d="m167.666665 11.33333322h.99999998c.33333333 0 .66666666-.33333333.66666666-.66666666v-1.33333332c0-.33333333-.33333333-.66666666-.66666666-.66666666h-1c-.33333332 0-.66666665.33333333-.66666665.66666666v1.33333332c0 .33333333.33333333.66666666.66666666.66666666z"/><path d="m167.666665 17.6666665h.99999998c.33333333 0 .66666666-.33333334.66666666-.66666667v-1.33333333c0-.33333332-.33333333-.66666665-.66666666-.66666665h-1c-.33333332 0-.66666665.33333333-.66666665.66666666v1.3333334c0 .3333334.33333333.6666667.66666666.6666667z"/><path d="m167.666665 23.66666643h.99999998c.33333333 0 .66666666-.33333333.66666666-.66666666v-1c0-.33333332-.33333333-.66666665-.66666666-.66666665h-1c-.33333332 0-.66666665.33333333-.66666665.66666666v1.33333332s.33333333.33333333.66666666.33333333z"/><path d="m167.666665 29.9999997h.99999998c.33333333 0 .66666666-.33333333.66666666-.66666666v-1.33333332c0-.33333333-.33333333-.66666666-.66666666-.66666666h-1c-.33333332 0-.66666665.33333333-.66666665.66666666v1.33333332c0 .33333333.33333333.66666666.66666666.66666666z"/><path d="m167.666665 36.33333297h.99999998c.33333333 0 .66666666-.33333333.66666666-.66666666v-1.33333331c0-.33333334-.33333333-.66666667-.66666666-.66666667h-1c-.33333332 0-.66666665.33333333-.66666665.66666666v1.3333333c0 .3333333.33333333.6666666.66666666.6666666z"/><path d="m167.666665 42.66666624h.99999998c.33333333 0 .66666666-.33333333.66666666-.66666666v-1.33333332c0-.33333333-.33333333-.66666666-.66666666-.66666666h-1c-.33333332 0-.66666665.33333333-.66666665.66666666v1.33333332c0 .33333333.33333333.66666666.66666666.66666666z"/></g><path d="m156.99999843 151.66666515h-144.66666523c-1.66666664 0-2.99999996-1.33333332-2.99999996-2.99999997v-143.3333319c0-1.66666665 1.33333332-2.99999997 2.99999997-2.99999997h144.6666653c1.6666667 0 3 1.3333334 3 3v143.3333319c0 1.6666667-1.3333333 3-2.9999999 3z"/><path d="m25.33333308 146.6666652c-5.33333328 0-9.33333324-4.3333333-9.33333324-9.33333324v-117.99999882c0-4.99999995 3.99999996-9.33333324 9.33333324-9.33333324h118.66666548c5.33333328 0 9.33333324 4.3333333 9.33333324 9.33333324v117.6666655c0 5.33333327-4.3333333 9.33333323-9.33333324 9.33333323h-118.66666548z" fill="#fff"/><path d="m143.99999856 144.3333319h-118.66666548c-3.99999996 0-6.99999993-3.3333333-6.99999993-6.99999994v-117.99999882c0-3.99999996 3.3333333-6.99999993 6.99999993-6.99999993h118.66666548c3.99999996 0 6.99999993 3.3333333 6.99999993 7v117.6666655c.3333333 4-3 7.3333333-7 7.3333333z"/><g fill="#fff"><path d="m84.3333325 41.33333292v2.66666664h-7.99999993c-1 0-1 1 0 1h5.33333328c3.99999996 0 3.99999996 5.99999993 0 5.99999993h-8.33333325v-2.6666667h7.99999992c1 0 1-1 0-1h-4.99999995c-4.3333333 0-4.3333333-6.3333333 0-6.3333333 2.66666664.3333333 7.99999992.3333333 7.99999992.3333333zm18.33333314 0h9.33333324c1.66666665 0 3.3333333 1.33333332 3.3333333 2.99999997v6.6666666h-3.3333333v-5.6666667c0-1-.66666666-1.3333334-1.33333332-1.3333334h-4.66666662v6.9999999h-3.3333333v-9.6666665zm-8.9999999 2.66666664c-1 0-1.33333333.66666666-1.33333333 1.33333332v1.66666665c0 .66666666.6666667 1.33333332 1.3333334 1.33333332h3.6666667c.3333334 0 1.3333333-.33333333 1.3333333-1.33333332v-1.66666665c0-.66666666-.3333333-1.33333332-1.3333333-1.33333332h-3.6666667zm-1.33333333-2.66666664h6.3333333c2 0 3.3333333 1.33333332 3.3333333 2.99999997v3.6666666c0 2.6666666-2.3333333 3.3333333-3.3333333 3.3333333h-6.3333333c-2.3333333 0-3.3333333-2-3.3333333-3.3333333v-3.6666666c0-2 2-3 3.3333333-3zm-7.3333332 0h3.3333333v9.66666657h-3.3333333v-9.6666666zm-15.9999998 0h3.3333333v9.66666657h-3.3333333v-9.6666666zm-15.3333331 0h3.6666667l3.66666664 6.33333327 4.3333333-6.3333333h2.99999996l-5.6666666 9.6666665h-3l-5.99999993-9.6666666zm29.99999959-10.33333322h10.6666665v2.3333333h-7.33333327v1h7.33333326v2.3333333h-7.3333333c0 1 .6666666 1.3333333 1.3333333 1.3333333h5.9999999v2.6666666h-7.6666666c-1.6666667 0-3-1.3333333-3-2.99999996v-6.6666666zm-8.6666666 0h3.3333333v5.6666666c0 1 .66666666 1.3333333 1.3333333 1.3333333h3.66666664v2.6666666h-4.99999994c-1.33333333 0-2.99999998-.66666665-2.99999998-2.99999996v-6.6666666zm30.33333303 0h-7.33333325c-1.99999998 0-2.99999997 1.99999992-2.99999997 2.9999999v3.66666664c0 2.3333333 2 3.3333333 3 3.3333333h7.3333333v-2.66666664h-5.6666666c-.3333333 0-1.3333333-.33333332-1.3333333-1.3333333v-2c0-1 .6666667-1.33333332 1.3333334-1.33333332h5.6666666v-2.6666666zm5.3333333 2.6666666c-1 0-1.33333333.66666664-1.33333333 1.3333333v1.66666665c0 .66666665.66666664 1.3333333 1.3333333 1.3333333h3.66666662c.33333333 0 1.3333333-.33333332 1.3333333-1.3333333v-1.66666665c0-.66666665-.3333333-1.3333333-1.3333333-1.3333333h-3.66666663zm-1.33333333-2.66666666h6.33333325c2 0 3.3333333 1.3333333 3.3333333 2.99999996v3.66666664c0 2.66666663-2.3333333 3.3333333-3.3333333 3.3333333h-6.33333326c-2.3333333 0-3.3333333-2-3.3333333-3.3333333v-3.66666664c0-1.99999997 1.6666666-2.99999996 3.3333333-2.99999996zm-42.9999996 2.66666666c-1 0-1.33333333.66666667-1.33333333 1.33333333v1.66666665c0 .66666666.66666666 1.33333332 1.33333332 1.33333332h3.6666666c.3333333 0 1.3333333-.33333333 1.3333333-1.33333332v-1.66666665c0-.66666666-.3333334-1.33333332-1.3333333-1.33333332h-3.6666666zm-1.33333333-2.66666663h6.33333327c1.99999998 0 3.3333333 1.3333333 3.3333333 2.99999996v3.66666663c0 2.66666663-2.3333333 3.3333333-3.3333333 3.3333333h-6.33333327c-2.3333333 0-3.3333333-2-3.3333333-3.3333333v-3.66666664c0-1.99999998 1.66666665-2.99999997 3.3333333-2.99999997zm-3.99999996 0h-7.3333332c-1.9999999 0-2.9999999 1.99999997-2.9999999 2.99999996v3.66666663c0 2.3333333 2 3.3333333 3 3.3333333h7.3333333v-2.66666666h-5.66666661c-.33333335 0-1.33333334-.33333332-1.33333334-1.3333333v-2c0-1 .66666664-1.3333333 1.3333333-1.3333333h5.6666666v-2.6666666z"/><g><path d="m121.99999878 31.33333302h-1v2.66666664h-.66666665v-2.66666664h-1v-.33333333l2.66666665.3333333z"/><path d="m125.6666654 33.99999966h-.66666665v-2.3333333l-1 1.66666664-.66666665-1.33333332v2.3333333h-.66666666v-3.3333333h.66666666l1 2 .99999998-2h.66666666v2.99999998z"/></g><g><path d="m68.7805393 56.55441943h1.8874q1.84037997 0 1.84037997 2.11088998 0 .8420167-.3291 1.3273467-.3224.47948-.81271998.60812-.4836034.1228-1.43066.1344667v3.26866h-1.1552767v-7.4495066zm1.15527667 3.40314997q.73212332 0 1.04781-.25726666.31566665-.25726667.31566665-1.03497666 0-.78354333-.27536666-1.06421666-.27536667-.28066666-1.08810666-.28066666v2.63714997z"/><path d="m77.63989256 64.00392603h-1.19557666l-1.34334332-3.4967033h-.10073333v3.4967033h-1.15527332v-7.4495066h1.59857332q1.95456998 0 1.95456998 1.90623332 0 .86540332-.2888 1.30395665-.2888.43855-.94034.66074666l1.47096 3.57856997zm-2.6396733-4.1808433q.67167665-.01166666.9672133-.2748.30223334-.26896666.30223334-.97065665 0-.67244333-.27536666-.95896332-.26866666-.2865-.92690666-.2865h-.06716666v2.49096664z"/><path d="m81.99232585 64.00392603h-3.09640665v-7.4495066h3.04267665v.85371h-1.90083332v2.35647997h1.75978v.84786333h-1.75978v2.56697997h1.95456332z"/><path d="m86.1499758 57.51338276q-.56420332-.2631-1.01422332-.2631t-.77242332.28066666q-.31566667.28066667-.31566667.67829 0 .28066666.1880666.60227666.1880666.31576666.85302 1.01743666.6716766.69583332 1.0209433 1.21039998.3560033.51456333.3560033 1.18116 0 .83031998-.5776367 1.35073664-.57092.51456667-1.49783.51456667-.51047 0-1.24931-.26313333v-.89464333q.02.006.0403.01733333.1007333.0643.42315.1988.3224.12863333.6313733.12863333.5037533 0 .8261566-.29236666.3291-.29233333.3291-.74845666 0-.3157666-.1679-.5847333-.1612-.2689666-.59779-.7309166l-.77242-.8244766q-.45001998-.47948-.6649533-.8770966-.2149333-.3976233-.2149333-.94727 0-.81278.5440533-1.3215.54405334-.50872 1.41051-.50872.6045033 0 1.2224433.2631334v.81278z"/><path d="m90.91213242 64.00392603h-3.09640662v-7.4495066h3.04266996v.85371h-1.90082998v2.35647997h1.75977998v.84786333h-1.75977998v2.56697997h1.95456664z"/><path d="m96.31908904 64.00392603h-.90676l-2.18292997-5.11056995h-.02666667v5.11057328h-1.03437332v-7.44950993h.92019332l2.18964665 5.1164233h.02666666v-5.1164233h1.0142267v7.44950993z"/><path d="m101.289459 57.40812943h-1.30975667v6.5957966h-1.15527665v-6.5957966h-1.30304332v-.85371h3.76807663v.85371z"/><path d="m105.27919228 57.51338276q-.56420333-.2631-1.01422332-.2631-.45002 0-.77242666.28066666-.31566667.28066667-.31566667.67829 0 .28066666.18806667.60227666.18806666.31576666.85302 1.01743666.67167332.69583332 1.0209433 1.21039998.35597.51456333.35597 1.18116 0 .83031998-.57763998 1.35073664-.57092333.51456667-1.49782666.51456667-.51047 0-1.24930998-.26313333v-.89464333q.02.006.0403.01733333.10073333.0643.42315333.1988.3224.12863333.6313734.12863333.5037534 0 .8261534-.29236666.3291-.29233333.3291-.74845666 0-.3157666-.1679-.5847333-.1612-.2689666-.5977866-.7309166l-.7724233-.8244766q-.45002-.47948-.66495662-.8770966-.2149333-.3976233-.2149333-.94727 0-.81278.5440533-1.3215t1.41051-.50872q.6045033 0 1.2224433.2631334v.81278z"/></g></g></svg>