<svg fill="none" height="180" viewBox="0 0 274 180" width="274" xmlns="http://www.w3.org/2000/svg"><path d="m269.161 179.839h-264.828c-1.14813-.003-2.24825-.461-3.06011-1.273-.811848-.812-1.26946076-1.912-1.27289-3.06v-170.871c.00342924-1.14813.461042-2.24825 1.27289-3.0601.81186-.811857 1.91198-1.269469 3.06011-1.272898h264.827c1.148.003429 2.248.461041 3.06 1.272898.812.81185 1.27 1.91197 1.273 3.0601v170.87c-.003 1.148-.46 2.249-1.272 3.061s-1.912 1.27-3.06 1.273z" fill="#8a4b4f"/><path d="m265.001 173.047h-256.50809c-.75063-.002-1.46983-.302-2.00061-.832-.53078-.531-.83001-1.25-.83239-2.001v-163.00405c.00238-.75062.30161-1.46983.83239-2.00061.53078-.53077 1.24998-.83001 2.00061-.83239h256.50709c.751.00238 1.47.30162 2.001.83239.53.53078.83 1.24999.832 2.00061v163.00305c-.002.751-.3 1.47-.831 2.001-.531.532-1.25.831-2.001.833z" fill="#8c353d"/><path d="m264.01 170.33h-254.52612c-.733 0-1.333-.6-1.333-1.333v-160.57001c0-.733.6-1.333 1.333-1.333h254.52612c.733 0 1.333.6 1.333 1.333v160.56901c.001.734-.6 1.334-1.333 1.334z" fill="#d7d8da"/><path d="m209.856 143.841h-146.2181c-2.75 0-5-2.25-5-5v-117.465c0-2.75 2.25-5 5-5h146.2181c2.75 0 5 2.25 5 5v117.465c0 2.75-2.25 5-5 5z" fill="#a7a49d"/><path d="m205.697 137.954h-137.9c-.8821-.003-1.7273-.354-2.351-.978-.6238-.624-.9753-1.469-.978-2.351v-110.1649c.0027-.8821.3542-1.7273.978-2.351.6237-.6238 1.4689-.9754 2.351-.978h137.9c.882.0026 1.727.3542 2.351.978.624.6237.975 1.4689.978 2.351v110.1649c-.003.882-.354 1.727-.978 2.351s-1.469.975-2.351.978z" fill="#d7d8da"/><path d="m191.92 123.465h-110.346c-5.019 0-9.125-4.106-9.125-9.125v-70.1901c0-5.019 4.106-9.125 9.125-9.125h110.346c5.019 0 9.125 4.106 9.125 9.125v70.1901c0 5.018-4.106 9.125-9.125 9.125z" fill="#813537"/><path d="m191.516 120.083h-109.538c-3.529 0-6.417-2.888-6.417-6.417v-68.6289c0-3.529 2.888-6.417 6.417-6.417h109.537c3.529 0 6.417 2.888 6.417 6.417v68.6289c0 3.529-2.887 6.417-6.416 6.417z" fill="#97a18f"/><path d="m36.2811 140.529c7.0958 0 12.848-5.752 12.848-12.848s-5.7522-12.848-12.848-12.848-12.848 5.752-12.848 12.848 5.7522 12.848 12.848 12.848z" fill="#8a333b"/><path d="m36.281 137.869c5.6267 0 10.188-4.561 10.188-10.188s-4.5613-10.188-10.188-10.188-10.188 4.561-10.188 10.188 4.5613 10.188 10.188 10.188z" fill="#c52e33"/><path d="m238.005 140.529c7.096 0 12.848-5.752 12.848-12.848s-5.752-12.848-12.848-12.848-12.848 5.752-12.848 12.848 5.752 12.848 12.848 12.848z" fill="#8a333b"/><path d="m238.005 137.869c5.627 0 10.188-4.561 10.188-10.188s-4.561-10.188-10.188-10.188-10.188 4.561-10.188 10.188 4.561 10.188 10.188 10.188z" fill="#c52e33"/><path d="m91.3531 157.765c1.8131 0 3.283-1.47 3.283-3.283s-1.4699-3.283-3.283-3.283c-1.8132 0-3.283 1.47-3.283 3.283s1.4698 3.283 3.283 3.283z" fill="#1c1d19"/><path d="m143.879 161.953h-5.49c-4.171 0-7.584-3.413-7.584-7.584s3.413-7.584 7.584-7.584h5.49c4.171 0 7.584 3.413 7.584 7.584s-3.413 7.584-7.584 7.584z" fill="#802936"/><path d="m143.85 158.783h-5.434c-1.162-.003-2.276-.467-3.098-1.289s-1.286-1.936-1.289-3.098c.003-1.162.467-2.276 1.289-3.098s1.936-1.286 3.098-1.289h5.434c1.163.003 2.276.467 3.098 1.289s1.286 1.936 1.289 3.098c-.003 1.162-.467 2.276-1.289 3.098s-1.935 1.286-3.098 1.289z" fill="#8b8f91"/><path d="m172.236 161.953h-5.49c-4.171 0-7.584-3.413-7.584-7.584s3.413-7.584 7.584-7.584h5.49c4.171 0 7.584 3.413 7.584 7.584s-3.413 7.584-7.584 7.584z" fill="#802936"/><path d="m172.207 158.783h-5.434c-1.162-.003-2.276-.467-3.098-1.289s-1.286-1.936-1.289-3.098c.003-1.162.467-2.276 1.289-3.098s1.936-1.286 3.098-1.289h5.434c1.162.003 2.276.467 3.098 1.289s1.286 1.936 1.289 3.098c-.003 1.162-.467 2.276-1.289 3.098s-1.936 1.286-3.098 1.289z" fill="#8b8f91"/><path d="m201.441 161.953h-5.49c-4.171 0-7.584-3.413-7.584-7.584s3.413-7.584 7.584-7.584h5.49c4.171 0 7.584 3.413 7.584 7.584.001 4.171-3.412 7.584-7.584 7.584z" fill="#802936"/><path d="m201.413 158.783h-5.434c-1.162-.003-2.276-.467-3.098-1.289s-1.286-1.936-1.289-3.098c.003-1.162.467-2.276 1.289-3.098s1.936-1.286 3.098-1.289h5.434c1.162.003 2.276.467 3.098 1.289s1.286 1.936 1.289 3.098c-.003 1.162-.467 2.276-1.289 3.098s-1.936 1.286-3.098 1.289z" fill="#8b8f91"/><path d="m20.0081 47.6211v-23.725c.193-.777.62-1.343 1.425-1.57.115-.033.227-.08.34-.12h28.977c1.131.472 1.493 1.025 1.493 2.278l-.001 22.81c0 .146.003.295-.025.437-.173.895-.895 1.444-1.895 1.444h-28.295c-.057 0-.113.001-.17-.001-.855-.04-1.502-.535-1.76-1.344-.024-.071-.059-.139-.089-.209zm16.13 1.225h13.91c.158 0 .317.003.475-.011.728-.064 1.273-.534 1.37-1.19.028-.188.021-.382.021-.573l.001-22.506c0-.124.001-.248-.005-.372-.052-1.08-.649-1.651-1.723-1.651h-27.853c-1.348 0-1.984.627-1.984 1.955v22.54c0 .101-.003.203.002.304.04.746.5 1.298 1.239 1.446.263.053.539.055.809.055 4.578.004 9.158.003 13.738.003z" fill="#000"/><path d="m45.8279 40.192h1.176v2.759h2.13v-2.75h1.2v6.908h-1.174v-2.919h-2.149v2.917h-1.182zm-.369 5.071c-.534 1.348-2.311 2.208-3.884 1.914-1.691-.316-2.927-1.783-2.978-3.537-.05-1.696 1.169-3.239 2.864-3.628 1.576-.361 3.359.467 3.998 1.895-.446 0-.872.007-1.298-.007-.075-.002-.153-.086-.218-.145-.861-.764-1.986-.892-2.95-.331-.4625.2694-.8264.6801-1.0381 1.1717s-.26 1.0382-.1379 1.5593c.233 1.038 1.135 1.824 2.236 1.919.3311.0338.6655-.0028.9815-.1074.3159-.1046.6061-.2749.8515-.4996.0762-.0742.1674-.1313.2674-.1675.1-.0363.2066-.0507.3126-.0425.32.017.639.006.993.006zm-7.904 1.854h-1.189v-5.745h-1.342v-1.174h3.848v1.147h-1.316zm-3.037-6.944v6.931h-1.172v-1.459c-.47 0-.917.047-1.349-.011-.652-.087-1.097.12-1.348.731-.264.645-.734.902-1.423.768-.14-.027-.29-.004-.492-.004.081-.139.131-.235.191-.324 1.402-2.11 2.809-4.217 4.201-6.334.153-.233.314-.322.581-.302.258.02.52.004.811.004zm-1.2 2.179-1.384 2.08h1.384zm-10.928 4.78v-6.932h1.153v4.643l.072.035c.068-.092.139-.182.202-.277.911-1.369 1.827-2.734 2.724-4.112.157-.242.321-.349.606-.321.248.025.5.005.781.005v4.667l.072.035c.067-.091.139-.179.201-.273.923-1.388 1.848-2.774 2.763-4.168.127-.194.263-.28.497-.267.347.02.697.005 1.102.005-.1.161-.161.266-.229.367-1.396 2.102-2.797 4.2-4.184 6.308-.145.221-.297.31-.554.288-.259-.022-.522-.005-.82-.005v-4.659l-.08-.034c-.066.095-.134.188-.198.284-.904 1.359-1.815 2.714-2.704 4.083-.165.254-.338.361-.634.331-.245-.023-.496-.003-.77-.003zm14.07-11.832.89.815c.181-.401.357-.766.509-1.141.075-.185.173-.266.379-.253.281.018.564.005.903.005-.283.638-.53 1.236-.813 1.815-.127.26-.1.416.122.605.468.398.908.828 1.38 1.264l-.723.784-1.398-1.283c-.494 1.052-1.307 1.515-2.424 1.374-.826-.105-1.436-.553-1.693-1.357-.378-1.181.09-2.066 1.088-2.707-.842-1.096-.901-1.877-.21-2.501.641-.579 1.685-.558 2.309.046.67.646.567 1.486-.319 2.534zm-.927.599c-.27.227-.539.408-.751.641-.467.515-.25 1.384.384 1.621.702.264 1.525-.177 1.676-.908.014-.067-.037-.174-.092-.226-.387-.368-.783-.728-1.217-1.128zm-.461-2.07c.006.223.37.681.544.684.186.003.539-.442.54-.682.002-.26-.255-.472-.566-.467-.308.004-.526.2-.518.465zm11.166-9.62h3.571v1.161h-2.378v1.775h2.386v1.181h-2.383v1.627h2.379v1.172h-3.574zm-5.385-.017v4.66l.071.034c.065-.096.132-.19.196-.287.866-1.302 1.75-2.594 2.588-3.915.246-.388.513-.563.96-.497.175.026.358.004.555.004v6.937h-1.153v-4.648l-.07-.033c-.068.094-.139.185-.203.281-.917 1.379-1.837 2.755-2.744 4.14-.133.203-.266.31-.519.287-.27-.024-.545-.005-.846-.005v-4.671l-.07-.035c-.067.091-.138.18-.201.275-.923 1.388-1.849 2.775-2.763 4.17-.127.194-.263.277-.497.264-.348-.02-.699-.005-1.102-.005.089-.143.145-.237.205-.328 1.396-2.102 2.798-4.201 4.184-6.31.158-.24.319-.351.606-.322.25.024.502.004.803.004zm-6.165 6.939h-1.174v-1.462c-.731 0-1.434-.006-2.136.009-.073.002-.157.118-.212.198-.239.348-.479.696-.699 1.057-.103.17-.225.225-.416.218-.363-.013-.727-.004-1.142-.004.079-.133.131-.228.191-.319 1.402-2.112 2.809-4.22 4.201-6.338.152-.232.314-.325.582-.303.259.021.522.005.805.005zm-2.573-2.686h1.363v-2.051zm-6.079.411v-1.132h3.551c.202 1.645-1.236 3.36-3.066 3.67-1.88.318-3.752-.979-4.138-2.865-.397-1.941.793-3.842 2.695-4.306 1.726-.421 3.754.567 4.186 2.075-.383 0-.755.013-1.126-.009-.09-.005-.184-.117-.258-.197-.786-.858-1.977-1.109-3.001-.627-1.003.472-1.598 1.556-1.45 2.64.154 1.127 1.002 1.993 2.147 2.191.984.17 2.074-.34 2.572-1.207.032-.056.052-.119.1-.232h-1.126z" fill="#000"/><g fill="#13110c"><path d="m22.4341 51.784h1.176l1.831 3.029v-3.029h1.223v4.476h-1.148l-1.906-3.29v3.291h-1.176zm4.555.028h1.356v.93h-1.356zm0 1.462h1.234-.247.376l-.005 2.999h-1.357zm4.03-.222c.9-.078 1.361.278 1.384 1.07v.269-.135 2.014h-1.243v-2.148c.002-.282-.18-.439-.545-.47-.258-.021-.451.091-.579.336v2.283h-1.266v-3.088h1.14-.247.377l-.003.375c.277-.293.604-.461.982-.506zm2.469-.73h1.176v.635h.706v.51h-.706v2.799h-1.176v-2.798h-.706v-.51h.706zm3.68.758c1.023.034 1.559.561 1.607 1.582h-2.056c-.015.677.061 1.061.229 1.151.0775.0435.1659.0634.2545.0574.0887-.0061.1736-.0378.2445-.0914.168-.11.235-.361.2-.753h1.104c-.154.671-.478 1.063-.972 1.176-.4619.1162-.9488.0808-1.389-.101-.431-.183-.712-.601-.841-1.254l-.003-.218c.127-.986.668-1.502 1.622-1.549zm.016.342c-.301.017-.456.268-.465.753h.901c-.004-.462-.149-.714-.436-.753zm4.035-.37c.9-.078 1.361.278 1.384 1.07v.269-.135 2.014h-1.243v-2.148c.002-.282-.18-.439-.545-.47-.258-.021-.451.091-.579.336v2.283h-1.266v-3.088h1.14-.247.377l-.003.375c.277-.293.604-.461.982-.506zm4.022-1.397h1.217v4.621h-1.22l-.003-.107c-.095.081-.385.111-.87.093-.495-.011-.859-.181-1.091-.51-.2263-.3106-.3341-.6918-.304-1.075.005-.355.098-.677.278-.966s.525-.503 1.034-.641c.483-.035.802.018.958.16zm-.455 1.767c-.325.015-.494.287-.506.815v.845c.026.519.198.791.517.815.312-.035.465-.186.46-.451v-1.476c.024-.333-.133-.516-.471-.548zm1.91 1.137c.045-.558.222-.948.532-1.17s.682-.326 1.117-.311h.192c.474.027.845.162 1.111.408.267.245.418.6.455 1.066.012.576-.137.995-.447 1.254-.3215.2615-.7141.4204-1.127.456h-.2c-.57-.047-.981-.207-1.234-.482-.251-.271-.384-.678-.399-1.221zm1.705-1.092c-.344.011-.521.254-.53.728v.935c.024.463.204.707.54.731.332-.034.495-.283.488-.748v-.907c-.008-.489-.174-.735-.498-.739z"/><path d="m36.0849 108.713h-2.997v-4.549h.967v3.717h2.03zm4.158 0h-3.502v-4.549h3.399v.808h-2.432v1.019h2.268v.816h-2.268v1.09h2.535zm3.94-3.741h-2.237v1.142h1.918v.812h-1.918v1.787h-.966v-4.549h3.204zm4.032.023h-1.345v3.717h-.959v-3.717h-1.337v-.832h3.641z"/><path d="m226.284 108.713h-1.043l-.39-1.11c-.077-.226-.18-.387-.31-.486s-.293-.147-.49-.147h-.752v1.743h-.967v-4.549h2.022c.167 0 .324.007.47.022s.281.04.404.078c.123.037.235.089.334.155s.185.153.257.259c.074.106.131.224.171.352.04.129.06.273.06.432 0 .321-.085.578-.255.772s-.406.328-.708.402c.09.04.172.085.245.135.074.051.141.113.197.183.058.072.111.156.159.253s.094.205.139.324zm-2.985-2.52h.955c.287 0 .493-.052.619-.155s.189-.272.189-.505c0-.411-.248-.617-.744-.617h-1.019zm4.593 2.52h-.963v-4.549h.963zm2.985.071c-.329 0-.628-.054-.897-.161-.261-.102-.498-.26-.692-.462-.192-.2-.341-.446-.446-.736s-.157-.619-.157-.985c0-.35.048-.67.145-.959s.239-.537.426-.744.416-.367.686-.482c.271-.114.58-.171.927-.171.281 0 .539.036.774.107.235.072.438.174.611.308.172.134.311.297.416.49s.169.409.193.651h-.959c-.009-.107-.042-.211-.095-.304-.054-.093-.127-.173-.215-.235-.18-.129-.419-.193-.716-.193-.17-.002-.339.032-.495.101-.147.067-.276.169-.376.296-.103.13-.184.291-.241.482-.06.212-.089.432-.086.653 0 .247.029.466.086.657s.139.352.247.482.237.228.388.295.321.099.509.099c.47 0 .825-.142 1.067-.426v-.513h-.971v-.732h1.926v2.412h-.597l-.119-.366c-.163.147-.355.258-.563.326-.221.073-.479.11-.776.11zm6.674-.071h-.963v-1.982h-1.827v1.982h-.967v-4.549h.967v1.763h1.827v-1.763h.963zm4.222-3.718h-1.345v3.717h-.959v-3.717h-1.337v-.832h3.641z"/><path d="m133.97 133.705c-.247 0-.471-.04-.673-.121-.196-.077-.373-.195-.519-.346-.15-.158-.264-.347-.334-.553-.082-.238-.122-.488-.118-.739 0-.263.036-.502.109-.719s.179-.403.32-.558c.14-.155.312-.276.515-.361.203-.086.434-.128.696-.128.21 0 .404.027.58.081s.328.131.458.231c.129.1.233.223.312.367.078.145.127.307.145.488h-.719c-.007-.08-.032-.158-.072-.228s-.095-.13-.161-.177c-.135-.096-.314-.145-.537-.145-.128-.002-.254.024-.371.076-.11.05-.204.125-.282.222s-.138.218-.18.361c-.045.159-.067.324-.064.49 0 .185.021.349.064.492.036.132.099.255.185.361.08.098.178.171.291.221.121.051.251.077.382.075.353 0 .619-.106.8-.319v-.385h-.728v-.549h1.445v1.809h-.447l-.09-.275c-.122.11-.266.193-.422.245-.189.059-.387.088-.585.084zm5.078-.054h-.752l-.281-.812h-1.214l-.269.812h-.722l1.19-3.411h.803zm-1.203-1.4-.448-1.4-.433 1.4zm5.158 1.4h-.654v-2.695l-.812 2.695h-.663l-.83-2.695v2.695h-.659v-3.412h1.044l.771 2.579.764-2.579h1.039zm3.319 0h-2.627v-3.412h2.548v.606h-1.823v.764h1.701v.612h-1.701v.818h1.902z"/><path d="m151.819 133.634h-.919l-.342-.992h-1.485l-.328.992h-.883l1.456-4.17h.981zm-1.47-1.711-.547-1.711-.529 1.711zm30.051.478c0 .392-.129.695-.385.91-.257.216-.649.323-1.176.323h-1.642v-4.17h1.62c.222 0 .421.024.598.073.178.049.329.119.452.212.122.089.22.206.287.342.067.135.1.284.096.435 0 .425-.202.727-.606.905.255.071.445.191.569.361s.187.373.187.609zm-2.324-1.262h.696c.207 0 .358-.036.454-.107.096-.072.144-.198.144-.378 0-.161-.046-.28-.14-.359s-.259-.119-.494-.119h-.661v.963zm0 1.784h.704c.235 0 .413-.042.531-.128.118-.085.176-.221.176-.409.002-.082-.01-.165-.036-.243-.024-.066-.068-.123-.125-.164-.058-.043-.135-.074-.23-.093s-.213-.029-.354-.029h-.667v1.066z"/><path d="m162.554 133.705c-.247 0-.471-.04-.673-.121-.196-.077-.373-.195-.519-.346-.15-.158-.264-.347-.334-.553-.082-.238-.122-.488-.118-.739 0-.263.036-.502.109-.719s.179-.403.32-.558c.14-.155.312-.276.515-.361.203-.086.434-.128.696-.128.21 0 .404.027.58.081s.328.131.458.231c.129.1.233.223.312.367.078.145.127.307.145.488h-.719c-.007-.08-.032-.158-.072-.228s-.095-.13-.161-.177c-.135-.096-.314-.145-.537-.145-.128-.002-.254.024-.371.076-.11.05-.204.125-.282.222s-.138.218-.18.361c-.045.159-.067.324-.064.49 0 .185.021.349.064.492.036.132.099.255.185.361.08.098.178.171.291.221.121.051.251.077.382.075.353 0 .619-.106.8-.319v-.385h-.728v-.549h1.445v1.809h-.447l-.09-.275c-.122.11-.266.193-.422.245-.189.059-.387.088-.585.084zm5.078-.054h-.752l-.281-.812h-1.214l-.269.812h-.722l1.191-3.412h.803zm-1.203-1.4-.448-1.4-.433 1.4zm5.157 1.4h-.654v-2.695l-.812 2.695h-.663l-.83-2.695v2.695h-.659v-3.412h1.044l.771 2.579.764-2.579h1.039zm3.32 0h-2.627v-3.412h2.548v.606h-1.823v.764h1.701v.612h-1.701v.818h1.902z"/><path d="m196.296 130.863h-1.009v2.788h-.719v-2.788h-1.003v-.624h2.731zm1.193 2.788h-.722v-3.412h.722zm4.335 0h-.654v-2.695l-.812 2.695h-.663l-.83-2.695v2.695h-.659v-3.412h1.044l.771 2.579.764-2.579h1.039zm3.319 0h-2.627v-3.412h2.548v.606h-1.823v.764h1.701v.612h-1.701v.818h1.902z"/><path d="m19.8359 106.513 10.981-2.802v5.717zm224.3391 2.915 10.98-2.915-10.98-2.802"/></g></svg>