<svg fill="none" height="152" viewBox="0 0 133 152" width="133" xmlns="http://www.w3.org/2000/svg"><path d="m1.38403 10.147h129.72897v25.773h-129.72897z" fill="#a3a3a3"/><path d="m114.467 12.19h18.03v-3.88499c0-.573-.466-1.03801-1.038-1.03801h-10.739v-6.22899c0-.573-.465-1.03801-1.038-1.03801h-118.644c-.573 0-1.038.46501-1.038 1.03801v11.15299h17.455c-1.1169.938-2.0878 2.0371-2.881 3.261h-14.574v2.175h13.409c-.32.742-.578 1.516-.771 2.316h-12.638v2.111h12.286c-.0882.9495-.0845 1.9052.011 2.854h-12.297v2.22h12.699c.203.776.472 1.527.794 2.248h-13.493v2.169h14.69c.7794 1.1629 1.7205 2.2087 2.795 3.106h-17.485v115.747l5.42 1.374h121.656l5.42-1.374v-115.747h-18.059c1.075-.8973 2.016-1.9431 2.795-3.106h15.265v-2.169h-14.067c.322-.721.591-1.472.793-2.248h13.274v-2.22h-12.872c.05-.493.076-.994.076-1.499 0-.457-.024-.909-.065-1.355h12.861v-2.111h-13.212c-.192-.7922-.45-1.567-.772-2.316h13.984v-2.175h-15.149c-.793-1.2242-1.764-2.3236-2.881-3.262z" fill="#bcbcbc"/><path d="m28.713 37.3611c-7.707 0-13.953-6.247-13.953-13.952 0-7.707 6.247-13.95402 13.953-13.95402h74.495c7.706 0 13.954 6.24702 13.954 13.95402 0 7.706-6.247 13.952-13.954 13.952zm88.245 93.1749c0 .642-.256 1.258-.71 1.712s-1.07.709-1.712.709h-97.498c-.6421 0-1.2578-.255-1.712-.709-.4541-.454-.7095-1.07-.71-1.712v-86.0249c.0003-.6423.2555-1.2582.7097-1.7123.4541-.4542 1.07-.7095 1.7123-.7097h97.499c.642 0 1.258.2551 1.713.7094.454.4542.709 1.0702.709 1.7126zm-42.292 5.39c1.237 0 1.522 1.188.721 1.989-1.47 1.472-8.85 9.37-8.85 9.37s-.346.389-.75.389c-.431 0-.749-.389-.749-.389s-7.38-7.898-8.851-9.37c-.801-.8-.516-1.989.721-1.989zm-69.246 15.846-5.42-1.374v-87.8689h5.075c.191 0 .346.154.346.345zm121.657 0 5.42-1.374v-87.8689h-5.074c-.092 0-.179.0363-.244.101-.065.0646-.102.1524-.102.244z" fill="#a3a3a3"/><g fill="#bcbcbc"><path d="m102.953 26.4759v-2.621h-.979v-.351h2.355v.351h-.984v2.621zm2.078 0v-2.972h.592l.703 2.104c.065.196.112.343.142.44.034-.108.087-.267.159-.476l.711-2.068h.529v2.972h-.379v-2.487l-.864 2.487h-.354l-.86-2.53v2.53z"/><path clip-rule="evenodd" d="m74.858 23.6219c.112-.202.229-.401.337-.604.612-1.155 1.24-2.302 1.821-3.472.303-.532.133-.503.752-.446.395.036.387.008.4.411.028.933.068 1.865.101 2.798.015.396.024.793.038 1.19l.104 2.744c.003.074.001.148.001.234h-1.035l-.161-4.862c-.0202-.0043-.0402-.0093-.06-.015l-2.625 4.898-.064-.016-1.228-5.087-.056-.001c-.094.279-.189.558-.281.837-.453 1.375-.903 2.751-1.361 4.124-.018.053-.085.126-.132.127-.327.012-.653.006-1.007.006l.293-.911 1.553-4.795c.165-.511.329-1.023.488-1.535.033-.108.088-.147.201-.142.198.009.398.013.596-.001.147-.01.205.045.238.184.21.897.43 1.794.645 2.691.131.543.259 1.087.388 1.63zm11.306 2.836 1.097-7.38c.108-.006.206-.017.302-.017.445-.002.889 0 1.334 0 .763-.001 1.485.535 1.639 1.282.138.667.06 1.314-.396 1.868-.059.07-.111.147-.175.234l.155.12c.508.386.793.888.819 1.536.048 1.235-.811 2.267-2.048 2.353-.878.063-1.765.026-2.646.031-.021 0-.043-.015-.081-.027zm1.933-.969.002.018c.272-.019.551-.012.818-.061.57-.109 1.013-.662.988-1.197-.027-.601-.488-1.124-1.082-1.192-.316-.037-.64-.022-.959-.039-.122-.006-.165.046-.18.157-.041.313-.09.623-.134.935-.056.392-.105.784-.161 1.177-.02.145.017.218.183.206.174-.014.35-.004.525-.004zm.153-3.481c.653-.001 1.002-.199 1.231-.698.233-.504.029-1.238-.67-1.248-.151-.003-.303 0-.453-.017-.178-.021-.247.051-.268.225-.053.445-.123.887-.186 1.33-.058.408-.057.408.346.408zm9.392-.205c-.03.895-.286 1.726-.614 2.544-.274.677-.677 1.257-1.26 1.692-.95.707-2.471.769-3.395-.065-.486-.438-.741-.999-.798-1.644-.077-.883.111-1.729.405-2.553.206-.578.425-1.15.806-1.644.506-.659 1.175-1.028 1.995-1.143.572-.08 1.117-.01 1.621.287.614.362.985.904 1.134 1.592.064.304.073.622.106.934zm-1.026-.145c-.027-.187-.041-.416-.097-.635-.0473-.197-.1377-.381-.2649-.5387-.1271-.1577-.2877-.2852-.4701-.3733-.71-.358-1.732.008-2.201.643-.351.476-.568 1.016-.733 1.58-.189.643-.32 1.287-.235 1.963.091.723.622 1.281 1.438 1.279.668-.002 1.212-.312 1.59-.853.632-.904.921-1.927.973-3.065zm-32.082-1.511c-.698-.17-1.382-.204-2.057-.07-1.064.211-2.011.641-2.563 1.647-.2181.3817-.3534.8051-.397 1.2425-.0435.4375.0055.8793.144 1.2965.147.466.453.805.887 1.014.675.327 1.361.327 2.045.009.128-.06.214-.141.225-.301.016-.244.052-.487.092-.728.025-.144-.035-.171-.159-.168-.291.005-.583.002-.911.002.035-.27.067-.52.101-.772.033-.246.034-.246.283-.246.58 0 1.158.003 1.738-.002.12-.001.171.029.153.159-.111.768-.215 1.535-.329 2.304-.0168.0892-.0592.1715-.122.237-.43.449-.984.636-1.581.711-.646.081-1.286.043-1.881-.244-.926-.447-1.493-1.175-1.639-2.205-.104-.74-.064-1.47.175-2.18.298-.888.879-1.553 1.651-2.068.6356-.4202 1.3639-.6793 2.122-.755.6324-.0733 1.2723-.0507 1.898.067.273.051.277.046.239.323-.033.237-.073.472-.114.727zm19.305 6.328h-4.74c.35-2.46.699-4.903 1.047-7.357h3.847c-.05.309-.095.611-.155.91-.005.028-.104.054-.159.054-.777.003-1.555.009-2.333-.001-.189-.003-.264.045-.288.244-.065.562-.156 1.12-.237 1.68-.008.056 0 .114 0 .193h.217c.666 0 1.332.005 1.999-.003.153-.002.195.048.168.194-.052.274-.092.55-.14.843h-.199c-.672 0-1.345.003-2.017-.004-.149-.002-.22.037-.241.196-.0842.6239-.1749 1.2469-.272 1.869-.024.155.025.201.183.201 1.087-.007 2.174-.003 3.262-.003h.204zm-13.946.012c-.338 0-.664.003-.989-.005-.032-.001-.082-.072-.09-.114-.104-.574-.202-1.149-.294-1.725-.022-.145-.079-.196-.226-.195-.579.007-1.158.01-1.736-.002-.164-.003-.224.076-.28.202-.253.564-.513 1.125-.762 1.691-.042.097-.093.128-.195.127-.326-.005-.651-.002-.998-.002.193-.43.374-.839.56-1.247.465-1.019.933-2.036 1.397-3.055.445-.976.886-1.955 1.337-2.927.03-.065.134-.127.209-.133.215-.018.432.003.648-.01.135-.007.185.044.206.171.102.622.211 1.243.317 1.865l.725 4.26.164.967c.005.037.004.077.007.132zm-1.974-5.297-.053-.006-1.017 2.225c.045.023.06.036.075.037l1.262.005c.112 0 .113-.062.097-.154-.078-.453-.15-.909-.227-1.363-.042-.247-.09-.495-.137-.744zm29.67-2.119c.294 0 .551.024.803-.005.312-.036.456.094.591.369.35.718.742 1.415 1.12 2.12.013.024.032.046.067.09.131-.172.255-.33.376-.492.496-.664.991-1.33 1.489-1.992.034-.045.098-.094.15-.096.384-.007.769-.005 1.206-.005-.135.189-.244.35-.361.505-.779 1.028-1.555 2.058-2.341 3.083-.173.227-.156.496-.196.749-.152.979-.291 1.96-.432 2.941-.019.136-.067.2-.223.191-.284-.017-.568-.005-.879-.005l.135-.918c.135-.924.271-1.846.397-2.771.0036-.0976-.021-.1941-.071-.278-.578-1.099-1.161-2.197-1.742-3.295-.024-.048-.045-.096-.089-.191z" fill-rule="evenodd"/><path d="m28.5279 25.1001c-.0339-.0247-.0616-.0569-.081-.094-.616-.995-1.231-1.991-1.845-2.987-.037-.061-.074-.085-.147-.085-.404.005-.809.002-1.214.002l-.101.005v4.564h1.398v-3.154l.024-.007.061.094c.618.994 1.236 1.989 1.851 2.984.042.068.086.092.165.092.394-.005.789-.003 1.184-.003h.102v-4.567h-1.398zm22.516-1.475c-.255-.139-.501-.251-.78-.271-.275-.02-.537.02-.786.138-.252.12-.459.292-.627.514-.414.549-.465 1.299-.073 1.845.594.829 1.374.927 2.262.5.004.053.008.103.01.151h1.343v-4.562h-1.349zm-.001 2.01c-.011.295-.254.493-.545.483-.0679.0009-.1352-.0116-.1982-.0367-.0631-.0252-.1205-.0625-.1691-.1098-.0486-.0474-.0873-.1039-.114-.1663-.0268-.0623-.0409-.1294-.0417-.1972-.009-.213-.002-.427-.002-.641 0-.197-.006-.394 0-.593.009-.322.211-.526.523-.537.305-.009.537.181.549.496.017.434.016.869-.002 1.302zm-14.553-1.831c-.568-.584-1.531-.624-2.162-.092l-.101.079v-.308h-1.345v3.024h1.34c.002-.044.006-.085.006-.128 0-.595-.004-1.191 0-1.786 0-.096.015-.201.055-.286.125-.271.464-.414.769-.338.29.07.471.309.471.623v1.912h1.349c.003-.017.006-.026.006-.036 0-.562.007-1.125-.002-1.688-.007-.37-.122-.704-.386-.976zm11.562.838c-.0069-.1771-.0512-.3506-.1302-.5092-.0789-.1586-.1907-.2986-.3278-.4108-.2891-.2467-.6562-.3831-1.0362-.3849-.38-.0019-.7484.131-1.0398.3749l-.102.085v-.318h-1.349v3.023h1.35v-.135l-.002-1.807c0-.126.034-.239.109-.341.0872-.1145.208-.1988.3455-.2413s.2849-.041.4215.0043c.273.092.42.307.42.621l.001 1.777c0 .041.004.082.007.123h1.338c.004-.02.009-.034.009-.046-.003-.605.008-1.211-.014-1.815zm8.241-.865c-.79-.687-2.096-.677-2.886.02-.725.64-.737 1.675-.023 2.327.3943.3597.9103.5566 1.444.551.551-.003 1.021-.148 1.425-.474.805-.653.821-1.745.04-2.424zm-.872 1.191h-.01c0 .26.012.52-.003.779-.019.346-.267.567-.593.554-.256-.01-.466-.208-.514-.489-.0136-.078-.0203-.1569-.02-.236-.001-.405-.001-.808.002-1.213.001-.085.007-.172.025-.254.062-.3.295-.491.566-.476.289.016.505.237.537.547.004.046.01.092.01.138zm-12.261-1.065c-.367-.3667-.8569-.5844-1.375-.611-.621-.044-1.18.116-1.652.532-.315.277-.511.625-.54 1.051-.038.553.184.999.609 1.335.634.501 1.353.602 2.115.372.531-.16.945-.481 1.185-.997.019-.04.03-.082.045-.123h-1.34c-.01.125-.012.243-.029.359-.04.287-.258.491-.525.5-.292.011-.537-.158-.58-.452-.041-.281-.031-.569-.043-.868h2.6c0-.049.003-.085-.001-.12-.0357-.3712-.2019-.7178-.469-.978zm-1.311.634c-.234 0-.467-.003-.701.002-.089.002-.117-.028-.107-.113.013-.107.007-.218.028-.324.023-.1313.0922-.2501.1949-.335.1028-.0849.2325-.1303.3658-.1282.1333.0022.2614.0519.3614.1401.0999.0882.1651.2091.1839.3411.021.132.021.266.032.416zm-2.099-1.513h-.737v-.61h-1.375v.611h-.114c-.182.001-.363-.001-.543.004-.029.001-.081.031-.082.05-.007.127-.004.255-.004.393h.749v3.033h1.373v-3.036h.733zm-9.01 3.482h1.357v-3.025h-1.357zm1.357-4.563h-1.363v.911h1.363z"/></g></svg>