<svg height="200" width="129.60274" xmlns="http://www.w3.org/2000/svg" xmlns:xlink="http://www.w3.org/1999/xlink"><clipPath id="a"><path d="m0 223.285h144.692v-223.285h-144.692z"/></clipPath><g clip-path="url(#a)" transform="matrix(.89571704 0 0 -.89571704 -.000358 200)"><path d="m144.6924 8.4258c0-4.635-3.792-8.426-8.426-8.426h-127.841c-4.634 0-8.425 3.791-8.425 8.426v206.434c0 4.634 3.791 8.425 8.425 8.425h127.841c4.634 0 8.426-3.791 8.426-8.425z" fill="#e9e9e9"/><path d="m138.812 20.012h-132.932v128.298h132.932z" fill="#bdbcbc"/><path d="m3.8887 218.375v-57.475c0-4.633 3.791-8.425 8.426-8.425h120.063c4.635 0 8.426 3.792 8.426 8.425v57.475z" fill="#2f2d2e"/><path d="m140.804 218.375h-136.915v-11.621h136.915z" fill="#231f20"/><path d="m92.3897 10.041-20.044 6.004-20.043-6.004v-6.445h40.087z" fill="#d3d2d2"/><path d="m9.502 207.779h-1.959v7.74h1.959zm3.449 0h-1.958v8.951h1.958zm3.45 0h-1.958v8.951h1.958zm3.451 0h-1.958v8.951h1.958zm3.45 0h-1.959v8.951h1.959zm3.449 0h-1.958v8.951h1.958zm3.45 0h-1.958v8.951h1.958zm3.45 0h-1.958v8.951h1.958zm3.451 0h-1.959v8.951h1.959zm3.449 0h-1.958v8.951h1.958zm3.45 0h-1.958v8.951h1.958zm3.45 0h-1.959v8.951h1.959zm3.449 0h-1.958v8.951h1.958zm3.451 0h-1.958v8.951h1.958zm3.45 0h-1.959v8.951h1.959zm3.449 0h-1.958v8.951h1.958zm3.45 0h-1.958v8.951h1.958zm3.45-1.025h-1.958v11.621h1.958zm3.451 1.025h-1.959v8.951h1.959zm3.449 0h-1.958v8.951h1.958zm3.45 0h-1.958v8.951h1.958zm3.45 0h-1.958v8.951h1.958zm3.45 0h-1.959v8.951h1.959zm3.45 0h-1.958v8.951h1.958zm3.45 0h-1.958v8.951h1.958zm3.45 0h-1.959v8.951h1.959zm3.449 0h-1.958v8.951h1.958zm3.45 0h-1.958v8.951h1.958zm3.451 0h-1.958v8.951h1.958zm3.45 0h-1.959v8.951h1.959zm3.449 0h-1.958v8.951h1.958zm3.45 0h-1.958v8.951h1.958zm3.45 0h-1.959v8.951h1.959zm3.451 0h-1.959v8.951h1.959zm3.449 0h-1.958v8.951h1.958zm3.45 0h-1.958v8.951h1.958zm3.45 0h-1.959v8.951h1.959zm3.449-1.025h-1.958v11.621h1.958z" fill="#f6b310"/></g></svg>