<svg viewBox="0 0 219.979 146.34" xmlns="http://www.w3.org/2000/svg"><path d="m219.979 17.518v120.297l-11.835-4.859-4.738-2.6c-4.738-2.607-3.076-8.525-3.076-8.525l.945-6.038s12.077-88.564 13.021-93.061c.952-4.503 5.683-5.214 5.683-5.214zm-202.461-17.518s1.364 1.122 1.542 3.346l.178 2.216s.355 18.648 1.954 39.249 5.506 53.102 6.038 57.186 2.131 8.88 7.459 10.656 26.284 6.393 44.044 8.169 43.511 1.421 56.653 0 29.659-3.552 42.446-6.571 14.208-11.544 14.208-11.544 5.15-35.875 6.393-52.569 2.401-42.716 2.401-42.716.355-5.442 1.861-7.424h-185.177zm168.66 93.736c0 6.23-5.051 11.281-11.274 11.281h-131.251c-6.223 0-11.274-5.051-11.274-11.281v-73.781a4.077 4.077 0 0 1 4.092-4.078l145.452.504a4.27 4.27 0 0 1 4.255 4.269z" fill="#282827"/><path d="m186.178 20.651v73.085c0 6.23-5.051 11.281-11.274 11.281h-131.251c-6.223 0-11.274-5.051-11.274-11.281v-73.781a4.077 4.077 0 0 1 4.092-4.078l145.452.504a4.271 4.271 0 0 1 4.255 4.27z" fill="#2c2c2d"/><path d="m201.274 115.793s12.077-88.564 13.021-93.061c.952-4.504 5.683-5.214 5.683-5.214v-1.534c0-8.83-7.154-15.984-15.984-15.984h-1.3c-1.506 1.982-1.861 7.424-1.861 7.424s-1.158 26.022-2.401 42.716-6.393 52.569-6.393 52.569-1.421 8.525-14.208 11.544-29.304 5.15-42.446 6.571-38.894 1.776-56.653 0-38.716-6.393-44.044-8.169-6.926-6.571-7.459-10.656-4.44-36.585-6.038-57.186-1.954-39.251-1.954-39.251l-.178-2.216c-.177-2.224-1.541-3.346-1.541-3.346h-1.3c-8.958 0-16.218 7.26-16.218 16.218v1.3s4.731.71 5.683 5.214c.945 4.497 13.021 93.061 13.021 93.061l.945 6.038s1.662 5.918-3.076 8.525l-4.738 2.6-11.835 4.859v4.795a3.73 3.73 0 0 0 3.73 3.73h213.28a2.974 2.974 0 0 0 2.969-2.977v-5.548l-11.835-4.859-4.738-2.6c-4.738-2.607-3.076-8.525-3.076-8.525zm-146.929 25.219h-2.018v-9.945h2.018zm22.91 0h-2.018v-9.945h2.018zm22.135 0h-2.01v-9.945h2.01zm22.264 0h-2.018v-9.945h2.018zm22.612 0h-2.01v-9.945h2.01zm22.256 0h-2.01v-9.945h2.01z" fill="#333"/><path d="m164.512 131.067h2.01v9.945h-2.01zm-22.257 0h2.01v9.945h-2.01zm-22.619 0h2.018v9.945h-2.018zm-22.256 0h2.01v9.945h-2.01zm-22.143 0h2.018v9.945h-2.018zm-22.91 0h2.018v9.945h-2.018z" fill="#171819"/><path d="m16.573 130.356-4.738 2.6-11.835 4.859v-120.297s4.731.71 5.683 5.214c.945 4.497 13.021 93.061 13.021 93.061l.945 6.038c0 .001 1.663 5.918-3.076 8.525z" fill="#282827"/><g fill="#fff"><path d="m66.432 74.478v-1.345h12.553c.598 0 .897.448.897 1.345zm0 4.034v-3.586h2.242v3.586zm5.38 0v-3.586h2.242v3.586zm5.828 0v-3.586h2.242v3.586zm3.586-4.034v-1.345h8.518v1.345zm0 2.689v-2.242h2.242c0 .299.15.448.448.448h5.38v1.345h-5.828c0 .299.15.448.448.448h5.828v1.345h-7.621c-.598.001-.897-.447-.897-1.344zm9.863-2.689c0-.897.299-1.345.897-1.345h8.518v1.345zm0 2.689v-2.242h2.242v2.242h4.483c.299 0 .448-.075.448-.224s-.15-.224-.448-.224h-2.242v-1.345h4.035c.897 0 1.345.448 1.345 1.345v.448c0 .897-.299 1.345-.897 1.345h-8.07c-.598 0-.896-.448-.896-1.345zm11.207-2.689c0-.897.299-1.345.897-1.345h7.621c.598 0 .897.448.897 1.345zm0 4.034v-3.586h2.242v3.586zm7.173 0v-.897h-4.483v-1.345h4.483v-1.345h2.242v3.586h-2.242zm3.587-4.034v-1.345h8.518c.598 0 .897.448.897 1.345zm0 4.034v-3.586h2.242v3.586zm8.518 0h-5.828v-1.345h4.483v-2.242h2.242v2.242c-.001.897-.299 1.345-.897 1.345zm2.241-4.034c0-.897.299-1.345.897-1.345h7.621c.598 0 .897.448.897 1.345zm0 4.034v-3.586h2.242v3.586zm2.69-.896v-1.345h4.035c.299 0 .448-.149.448-.448v-.897h2.242v1.345c0 .897-.299 1.345-.897 1.345l1.345.897h-2.242l-1.345-.897zm8.518.896v-5.38h2.242v5.38zm4.931-4.034-.897-1.345h2.69l.897 1.345zm2.69 4.034-2.242-3.586h2.69l1.345 2.152 1.345-2.152h2.69l-2.242 3.586zm3.523-4.034.897-1.345h2.69l-.897 1.345zm4.931 0v-1.345h8.518v1.345zm0 2.689v-2.242h2.242c0 .299.15.448.448.448h5.38v1.345h-5.828c0 .299.15.448.448.448h5.828v1.345h-7.621c-.599.001-.897-.447-.897-1.344zm-84.666 7.25v-4.371h22.922c2.641 0 3.962 1.457 3.962 4.371zm0 13.113v-4.371h18.394c.943 0 1.415-.243 1.415-.729s-.472-.729-1.415-.729h-12.734v-4.371h12.451c1.132 0 1.698-.485 1.698-1.457h7.075v7.285c0 2.914-1.321 4.371-3.962 4.371h-22.922zm29.714-13.113v-4.371h22.639c2.83 0 4.245 1.457 4.245 4.371zm0 7.285c0-2.914 1.415-4.371 4.245-4.371h14.149c.943 0 1.415-.485 1.415-1.457h7.075v1.457c0 2.914-1.415 4.371-4.245 4.371h-15.565c-.943 0-1.415.485-1.415 1.457h21.224v4.371h-26.883zm36.02-7.285-6.307-4.371h8.49l6.286 4.371zm18.879 13.113-8.308-5.766-8.308 5.766h-8.49l12.553-8.721-4.225-2.935h16.939l-4.225 2.935 12.553 8.721zm.081-17.484h8.49l-6.307 4.371h-8.469z"/><path d="m59.751 98.89a2.482 2.482 0 0 1 -1.813-.753c-.505-.502-.758-1.063-.758-1.682v-3.517h1.082v3.247c0 .499.147.894.442 1.186s.643.437 1.046.437c.409 0 .759-.146 1.051-.437.291-.292.437-.687.437-1.186v-.541c0-.427.119-.759.357-.997a1.17 1.17 0 0 1 .861-.356c.331 0 .616.119.857.356.241.238.361.57.361.997v3.247h-1.082v-3.247c0-.18-.045-.271-.135-.271s-.135.09-.135.271v.812c0 .619-.251 1.18-.753 1.682-.503.5-1.108.752-1.818.752zm0-1.353a1.18 1.18 0 0 1 -.857-.356c-.241-.238-.361-.57-.361-.997v-3.247h1.082v3.247c0 .18.045.271.135.271s.135-.09.135-.271v-.812c0-.619.251-1.18.753-1.682a2.475 2.475 0 0 1 1.817-.753c.703 0 1.308.251 1.813.753s.758 1.063.758 1.682v3.517h-1.082v-3.247c0-.499-.147-.894-.442-1.186s-.643-.437-1.046-.437c-.409 0-.759.146-1.051.437-.291.292-.437.687-.437 1.186v.541c0 .427-.119.759-.357.997a1.168 1.168 0 0 1 -.86.357zm-.135-5.141c-1.623 0-2.435-.812-2.435-2.435v-3.247h1.082v3.247c0 .902.451 1.353 1.353 1.353h2.976c.902 0 1.353-.451 1.353-1.353v-3.247h1.082v3.247c0 1.623-.812 2.435-2.435 2.435zm1.352-1.353h-1.353c-.721 0-1.082-.361-1.082-1.082v-3.247h1.082v2.976c0 .18.09.271.271.271v-2.435h1.082zm.271 0v-3.517h1.082v2.435c.18 0 .271-.09.271-.271v-2.976h1.082v3.247c0 .721-.361 1.082-1.082 1.082zm-1.623-4.87c-1.623 0-2.435-.812-2.435-2.435v-3.247h1.082v3.247c0 .902.451 1.353 1.353 1.353h2.976c.902 0 1.353-.451 1.353-1.353v-2.164h-2.976v1.894h-1.082v-2.976h5.141v3.247c0 1.623-.812 2.435-2.435 2.435h-2.977zm0-1.352c-.721 0-1.082-.361-1.082-1.082v-3.247h1.082v2.976c0 .18.09.271.271.271h2.435c.18 0 .271-.09.271-.271v-.541h-.271v.541h-1.082v-1.623h2.435v1.894c0 .721-.361 1.082-1.082 1.082zm4.329-8.072v-3.202l-5.501 2.164c-.12.06-.18.18-.18.361 0 .15.06.271.18.361l6.584 2.435v1.082l-6.944-2.525c-.601-.301-.902-.752-.902-1.353 0-.691.3-1.142.902-1.353l6.944-2.615v4.645zm-.271 0h-.586l1.939.767v1.082l-6.313-2.345c-.12-.03-.18-.09-.18-.18s.06-.15.18-.18l4.96-1.894zm-2.345-.676 1.263.496v-.992z"/></g></svg>