<svg viewBox="0 0 160.1 200" xmlns="http://www.w3.org/2000/svg"><path d="m154.8 200h-149.5c-1.6 0-2.9-1.3-2.9-2.9v-194.2c0-1.6 1.3-2.9 2.9-2.9h7.4l1.8 1.5h130.5l2.2-1.5h7.6c1.6 0 2.9 1.3 2.9 2.9v194.2c0 1.6-1.3 2.9-2.9 2.9z" fill="#242323"/><path d="m14.6 1.5v112.1c0 1.8 1.5 3.3 3.3 3.3h123.9c1.7 0 3.1-1.4 3.1-3.1v-112.3" fill="#2e2b2a"/><path d="m0 77h2.4v4h-2.4zm0-3.4h2.4v-4.1h-2.4zm0-7.5h2.4v-4.1h-2.4zm0-7.4h2.4v-4.1h-2.4zm0-7.5h2.4v-4.1h-2.4zm0-14.7h2.4v-4.1h-2.4zm0 7.4h2.4v-4.1h-2.4zm0-14h2.4v-4.1h-2.4zm0-8h2.4v-4.1h-2.4zm0-7.7h2.4v-4.1h-2.4zm157.7 66.8h2.4v-4h-2.4zm0-7.4h2.4v-4.1h-2.4zm0-7.5h2.4v-4.1h-2.4zm0-7.4h2.4v-4.1h-2.4zm0-7.5h2.4v-4.1h-2.4zm0-14.7h2.4v-4.1h-2.4zm0 7.4h2.4v-4.1h-2.4zm0-14h2.4v-4.1h-2.4zm0-8h2.4v-4.1h-2.4zm0-7.7h2.4v-4.1h-2.4z" fill="#242323"/><path d="m136.7 112.8-.1.3-.1.4-.4.1h-7.2v-1.6c-.3 1-.6 1.6-1.7 1.6-.3 0-.7-.1-1.2-.1l-.6-.1h-.1c-.2.1-.4.2-.8.2h-6.2c-1.9 0-3.3-1-3.8-2.7v2.7h-6.9c-1.8-.1-3.3-1.7-3.4-3.5v-.2c-.1.7-.4 1.4-.9 2-.8 1.1-2 1.7-3.2 1.7-.8 0-1.5.1-2.2.1h-4.2v-5h2.3c-.8-.4-1.4-1.1-1.8-2-.8-1.7-.7-3.4.4-4.9.8-1.2 1.9-1.8 3.1-1.9h6.6v3.6c0-1.7 1.5-3.4 3.1-3.5.9-.1 1.8-.1 2.7-.1h4.5v2.5c.5-1.6 1.9-2.5 3.7-2.6h6.2v4.5h.1v4.6l2.2-6.7c.6-1.7 1.6-2.6 3.2-2.6.2 0 .5 0 .7.1 1.2.2 2 .9 2.4 2 .9 2.9 1.9 5.7 2.8 8.6z" fill="#fff"/><g fill="#4a88a0"><path d="m136.1 113h-6.6v-1.5h4.5c-.3-1-.6-1.8-.9-2.6-.7-2-1.3-4.1-2-6.1-.2-.5-.6-1.1-1.1-1.2-.7-.2-1 .6-1.2 1.2l-3 9.3c-.2.7-.6 1-1.3 1-2-.1-4.1 0-6.1 0-2.1 0-3.4-1.4-3.4-3.5v-5.8c.1-2.2 1.4-3.5 3.4-3.5h5.6v1.6h-4.7c-2.2 0-2.7.5-2.7 2.9v4.3c0 1.5.7 2.3 2.2 2.3h3.6v-5.1h-3v-1.6h4.7v6.7h.3c1-3.1 2-6.1 3-9.2.6-1.7 1.6-2.5 3.3-2.2.9.1 1.6.7 1.9 1.6 1.2 3.7 2.4 7.4 3.6 11-.1.2-.1.3-.1.4zm-41.5 0v-1.6h5.2c1.4 0 2.5-1.1 2.6-2.4s-1-2.5-2.4-2.6h-1.7c-.9-.1-1.5-.9-1.5-1.9s.6-1.9 1.5-1.9c1.9-.1 3.8 0 5.7 0v1.6h-5.6v.5c.5 0 1.1.1 1.6.1 2 0 3.4 1.2 3.9 3.2.6 2.4-1.1 5-3.5 5.1-1.9 0-3.8-.1-5.8-.1z"/><path d="m94.6 110.8v-1.7h5.6v-.5c-.6 0-1.1-.1-1.7-.1-1.6 0-2.8-.8-3.5-2.3s-.6-3 .3-4.4c.6-.9 1.5-1.6 2.7-1.6 2-.1 3.9 0 6 0v1.6h-5.3c-1.8 0-2.9 1.7-2.4 3.3.3 1 1.2 1.7 2.4 1.7h1.6c.9.1 1.6.9 1.6 1.9s-.7 1.9-1.5 1.9c-1.9.2-3.8.2-5.8.2zm19.6-10.5v1.6h-5.2c-1.8 0-2.5.6-2.5 2.5v4.5c0 1.7.7 2.5 2.3 2.5h5.3v1.6h-6.2c-1.5-.1-2.8-1.5-2.9-3-.1-2.2-.1-4.4 0-6.7 0-1.4 1.2-2.9 2.6-3 2.2-.1 4.4 0 6.6 0zm11.9 12.7c1.1-3.5 2.2-6.9 3.3-10.2.1-.2.3-.5.6-.6.1 0 .5.2.5.4.9 2.7 1.8 5.4 2.7 8.2h-3.8c0-.4-.1-.8-.1-1.1-.1 0-.1 0-.2-.1-.2.6-.4 1.3-.6 1.9-.5 1.7-.5 1.7-2.4 1.5zm3.3-4h1.3c-.2-.6-.4-1.2-.6-1.7h-.2c-.2.5-.3 1-.5 1.7zm-8.9-.2c-.5-.1-.8-.2-1.1-.3v-1.4h2.5v3.7c-1.3 0-2.5.1-3.7 0-.3 0-.8-.6-.8-1-.1-2-.1-4 0-6.1 0-.7.4-1.1 1.1-1.1h5.7v1.6h-4.2c-.8 0-1.2.3-1.1 1.2s0 1.9 0 2.8c-.2 1 .4 1.3 1.6.6z"/><path d="m108.8 109.1c1.7.3 3.5 0 5.3.2v1.5c-2.1 0-4.1 0-6.1-.1-.3 0-.8-.7-.9-1.1-.1-.8 0-1.7 0-2.6h5.7v1.5h-4c.1.2 0 .4 0 .6zm5.4-6.6v1.5c-1.8.3-3.6-.2-5.4.2v.4h4v1.6h-5.7c0-.9-.1-1.9 0-2.8 0-.3.6-.9.9-.9z"/></g><path d="m14.6 92.3h130.4v3h-130.4zm3.4-72.5h114.7v3h-114.7z" fill="#fff"/></svg>