<svg viewBox="0 0 285.7 200" xmlns="http://www.w3.org/2000/svg"><path d="m142.841 200c18.08 0 127.247-1.38 129.73-1.38 11.87 0 13.112-8.419 13.112-12.007s-.966-164.371-1.242-173.756c-.276-9.523-7.177-10.489-12.835-10.765-5.52-.276-111.79-1.932-128.766-1.932s-123.243 1.656-128.763 1.932-12.421 1.242-12.835 10.765c-.276 9.385-1.242 170.168-1.242 173.756s1.242 12.007 13.11 12.007c2.485 0 111.652 1.38 129.731 1.38" fill="#ccc"/><path d="m243.865 198.896h-.69v-197.494h.69zm-201.358 0h-.69v-197.494h.69z" fill="#666"/><path d="m246.35 95.94h-212.123c-7.315 0-13.25-5.935-13.25-13.25v-57.687c0-7.314 5.935-13.249 13.25-13.249h212.123c7.314 0 13.249 5.935 13.249 13.25v57.826c-.138 7.176-6.073 13.11-13.25 13.11"/><path d="m37.4 81.587c0 1.518-2.76 2.76-6.21 2.76s-6.21-1.242-6.21-2.76 2.76-2.76 6.21-2.76 6.21 1.242 6.21 2.76" fill="#7eee80"/><path d="m48.442 86.141c0 1.518-2.76 2.76-6.21 2.76s-6.211-1.242-6.211-2.76 2.76-2.76 6.21-2.76 6.21 1.242 6.21 2.76" fill="#fee94b"/><path d="m49.132 84.347c-.69-3.036-3.45-6.487-6.9-4.969 2.897-6.486 8.142-5.52 10.074-3.312 1.38 1.794 1.38 7.729-3.174 8.28" fill="#ff7961"/><path d="m38.229 79.378c-.69-3.036-3.45-6.486-6.9-4.968 2.898-6.486 8.142-5.52 10.074-3.312 1.38 1.794 1.38 7.728-3.174 8.28" fill="#0098df"/><path d="m17.39 185.509c0 2.898-2.347 5.244-5.245 5.244s-5.245-2.346-5.245-5.243 2.347-5.244 5.245-5.244 5.244 2.346 5.244 5.244m250.904 0c0 2.898 2.347 5.244 5.245 5.244s5.244-2.346 5.244-5.244-2.346-5.244-5.244-5.244c-2.76 0-5.245 2.346-5.245 5.244" fill="#666"/><path d="m220.404 139h-155.125c-3.45 0-6.348-2.761-6.348-6.35v-2.483c0-3.45 2.76-6.349 6.348-6.349h155.125c3.45 0 6.348 2.76 6.348 6.349v2.484c0 3.588-2.898 6.348-6.348 6.348" fill="#b3b3b3"/><path d="m169.615 136.791h-53.824v-10.489h53.824v10.49z" fill="#999"/><path d="m226.2 127.958h-166.58c0 .138-.137.276-.137.276h166.855c-.138-.138-.138-.138-.138-.276m.414 1.656h-167.544v.277h167.683c-.138 0-.138-.138-.138-.277m-1.656-3.45h-164.234c-.138.138-.138.276-.276.276h164.785l-.276-.276m-165.89 5.52h167.684v-.275h-167.682v.276zm1.657 5.245h164.233c.138-.138.138-.276.276-.276h-164.785c.138 0 .138.138.276.276m-1.104-1.794h166.579c0-.138.138-.276.138-.276h-166.855c0 .138.138.138.138.276m-.552-1.656h167.545v-.276h-167.544v.276" fill="#666"/><path d="m224.682 32.593c-2.484 0-4.14-1.794-4.14-3.865 0-2.208 1.656-4.002 4.14-3.864h23.462c2.484 0 4.14 1.794 4.14 3.864 0 2.209-1.656 3.865-4.14 3.865z" fill="#e10025"/><path d="m224.682 25.692c-1.932 0-3.174 1.38-3.174 2.898 0 1.657 1.242 2.899 3.174 2.899h23.462c1.932 0 3.174-1.38 3.174-2.899 0-1.656-1.242-2.898-3.174-2.898z" fill="#fff"/><path d="m223.716 26.796h1.104l1.656 2.622v-2.622h1.104v3.727h-1.104l-1.656-2.623v2.623h-1.104zm10.075.276h1.104v.552h.552v.414h-.552v2.485h-1.104v-2.485h-.552v-.414h.552zm-5.659.966h1.104v2.485h-1.104zm0-1.242h1.104v.69h-1.104zm19.46.966c-.828 0-1.656.552-1.656 1.38s.69 1.38 1.656 1.38c.828 0 1.656-.552 1.656-1.38s-.69-1.38-1.656-1.38m.552 1.38v.552c0 .415-.276.553-.414.553s-.414-.138-.414-.553v-1.104c0-.414.276-.552.414-.552.276 0 .414.138.414.552zm-3.589.138v-.414c0-.414-.276-.414-.414-.414s-.414.138-.414.414v.828c0 .415.276.415.414.415s.414-.139.414-.415zm0-2.484h1.105v3.727h-1.105v-.138c-.414.276-.966.276-1.242.138-.138 0-.828-.414-.828-1.243 0-.69.552-1.38 1.38-1.242.276 0 .414.138.69.276zm-12.697 1.104c.415 0 1.243.276 1.243 1.242v1.38h-1.105v-1.656c0-.276-.138-.414-.552-.414-.276 0-.552.276-.552.414v1.657h-1.104v-2.485h1.104v.276a1.49 1.49 0 0 1 .966-.414m9.11 0c.413 0 1.241.276 1.241 1.242v1.38h-1.104v-1.656c0-.276-.138-.414-.552-.414s-.552.276-.552.414v1.657h-1.104v-2.485h1.104v.276c.276-.276.552-.414.966-.414m-3.588 1.656c0 .553-.276.69-.414.69s-.414-.137-.414-.552v-.552h2.07c0-.828-.69-1.38-1.656-1.38s-1.656.552-1.656 1.38.69 1.38 1.656 1.38c.69 0 1.38-.413 1.518-.966zm-.828-.69c0-.276 0-.414.138-.414.138-.138.276-.276.414-.276s.276.138.414.276.138.276.138.414zm12.973-1.656c.138 0 .138 0 .138-.138s-.138-.138-.138-.138h-.138v.276zm-.138.414-.138-.828h.276c.138 0 .276.138.276.276s-.138.276-.276.276l.276.414h-.138l-.276-.414h-.138z" fill="#e10025"/><path d="m249.524 27.762c.276 0 .552-.276.552-.552s-.276-.552-.552-.552-.552.276-.552.552c0 .414.138.552.552.552m-.69-.552c0-.414.276-.69.69-.69s.69.276.69.69-.276.69-.69.69-.69-.276-.69-.69" fill="#e10025"/><path d="m51.892 38.527-.276.828h.276c-.138-.138 0-.828 0-.828zm-8.28-.966-.277.966h.138l.138-.138.138-.828h-.138zm33.536-.414h.966l-.138.414h-.276l-.552 2.76h-.414l.552-2.76h-.276zm-4.278 0h.414l.276 1.656.276-1.656h.414l-.552 3.174h-.414l-.138-1.794-.414 1.794h-.414zm-4.003 0h.828v.414h-.414l-.276.966h.414v.276h-.414l-.138 1.104h.414v.414h-.828zm-5.106 0h.552l.138 1.794.828-1.794h.552l-.552 3.174h-.414l.276-1.656-.69 1.656h-.276l-.138-1.656-.276 1.656h-.414zm-4.554 0h.414l.276 1.656.276-1.656h.414l-.552 3.174h-.414l-.276-1.794-.414 1.794h-.414zm-3.589 0h.414l-.552 3.174h-.414c-.138 0 .552-3.174.552-3.174zm-3.726 0h.552l-.138 3.174h-.552l.138-.69h-.276l-.276.69h-.414zm-4.692 0h.966v.414h-.276l-.552 2.76h-.414l.552-2.76h-.276zm-4.003 0h.966c.138 0 .276.138.276.276l-.276 1.104c0 .138-.276.276-.414.276v.138l-.276 1.242h-.414l.276-1.104v-.276h-.276l-.276 1.38h-.414c.276.138.828-3.036.828-3.036zm-3.864 0h.828v.414h-.414l-.138.966h.414v.276h-.414l-.138 1.104h.414v.414h-1.242zm-4.14 0h.966v.414h-.276l-.552 2.76h-.414l.552-2.76h-.276zm-4.14 0h.413l.276 1.656.276-1.656h.414l-.552 3.174h-.414l-.138-1.794-.414 1.794h-.552l.69-3.174zm-3.865 0h.828v.414h-.414l-.138.966h.414v.276h-.414l-.138 1.104h.414v.414h-.828zm75.078-.138h.552l.138 1.794.828-1.794h.552l-.552 3.174h-.414l.138-1.656-.69 1.656h-.276l-.138-1.656-.276 1.656h-.414zm-3.45 0h.828l-.138.414h-.414l-.138.966h.414l-.138.276h-.414l-.138 1.104h.414v.414h-.828zm-3.727 0h.967l-.138.414h-.276l-.553 2.76h-.414l.553-2.76h-.277zm-3.174 0h.552c.138 0 .276.138.276.276l-.138.828h-.414l.138-.552c0-.138 0-.276-.138-.276s-.276.138-.276.276l-.138.414v.138s.552.828.552.966-.138.828-.138.828c0 .138-.138.276-.414.276h-.552a.297.297 0 0 1 -.276-.276l.138-.828h.414l-.138.552c0 .138 0 .276.138.276s.276-.138.276-.276l.138-.414c-.138-.138-.552-.828-.552-1.104v-.138c0-.138.138-.552.138-.552zm-4.692 0h.552v1.242l.69-1.242h.552l-.966 1.794-.276 1.38h-.414l.276-1.38c-.138 0-.414-1.794-.414-1.794zm-3.174 0h.69c.138 0 .276.138.276.276l-.138.828h-.414l.138-.552c0-.138 0-.276-.138-.276s-.276.138-.276.276l-.138.414v.138s.552.828.552.966-.138.828-.138.828c0 .138-.138.276-.414.276h-.552a.297.297 0 0 1 -.276-.276l.138-.828h.414l-.138.552c0 .138 0 .276.138.276s.276-.138.276-.276l.138-.414c-.138-.138-.552-.828-.552-1.104v-.138c0-.138.138-.552.138-.552zm-58.655 4.14h79.77v-4.692h-79.77zm28.43-18.355h.828c.138 0 .552.414.552.69l-.69 3.45c0 .138-.552.552-.69.552h-.828a.297.297 0 0 1 -.276-.276v-.138l.828-4.278zm-11.179 0h.828c.138 0 .552.414.552.69l-.69 3.45c0 .138-.276.552-.414.552h-1.104v-.138l.828-4.278c-.138-.276 0-.276 0-.276m61.14 0c.551 0 .965.414.827.966l-1.656 9.247c-.138.552-.552.966-1.104.966s-.69-.414-.69-.966l1.656-9.247.966-.966zm-7.177 0h.828c.552 0 .828.414.828.966l-1.794 9.247c-.138.552-.552.966-1.104.966h-.829l2.07-11.18zm6.072-1.656c-.828 0-1.518.69-1.656 1.38l-1.932 11.455c-.138.69.414 1.38 1.104 1.38h2.898c.69 0 1.518-.552 1.656-1.38l2.208-11.455c.138-.828-.414-1.38-1.104-1.38zm-7.59 0-2.76 14.215h4.14c.69 0 1.518-.552 1.656-1.38l2.208-11.455c.138-.828-.414-1.38-1.104-1.38zm-7.177 0-2.76 14.215h2.07l1.656-8.28.69 8.28h1.794l2.76-14.215h-2.07l-1.38 7.452-.966-7.452zm-4.554 0-2.76 14.215h4.001l.276-1.794h-1.932l.828-4.83h1.932l.276-1.519h-1.932l.828-4.416h2.07l.277-1.794c0 .138-3.864.138-3.864.138zm-4.83 0-.277 1.794h1.104l-2.208 12.42h2.07l2.208-12.42h1.104l.277-1.794h-4.279zm-7.04 0-2.76 14.215h2.07l1.657-8.28.69 8.28h1.794l2.76-14.215h-2.07l-1.38 7.452-.966-7.452h-1.794zm-2.622 0-2.76 14.215h1.794l2.76-14.215zm-7.176 0-2.76 14.215h2.069l1.656-8.28.69 8.28h1.794l2.76-14.215h-2.07l-1.38 7.452-.966-7.452h-1.794zm-9.523 0-2.622 14.215h1.794l1.104-6.487h1.242c.138.138.138.414.276.552v.69c0 .277-.966 5.107-.966 5.107h1.794s.966-5.383.966-5.52 0-.415-.138-.553c0-.138-.138-.276-.276-.414l-.552-.276h-.138c.552-.138 1.518-.552 1.518-1.104l.966-5.106c.138-.828-.414-1.38-1.104-1.38zm-4.83 0-2.76 14.215h4.002l.276-1.794h-1.932l.828-4.83h1.932l.276-1.519h-1.932l.828-4.416h1.932l.276-1.794h-3.726zm-6.349 0-2.76 14.215h1.794l1.242-6.487h2.346c.69 0 1.38-.552 1.518-1.38l.967-5.106c.138-.828-.414-1.38-1.105-1.38zm-6.486 0-2.209 12.835c-.138.69.414 1.38 1.105 1.38h2.622c.69 0 1.518-.552 1.656-1.38l2.346-12.835h-1.656l-2.347 12.559c0 .138-.276.276-.414.276h-1.38a.297.297 0 0 1 -.276-.276l2.208-12.56h-1.656zm-5.107 0c-.828 0-1.518.69-1.656 1.38v2.76c0 .276 0 .828.138.828.138.69 2.622 4.279 2.622 4.83s-.414 2.07-.414 2.07c-.138.553-.414.967-.966.967s-.828-.414-.828-.966l.414-2.622h-1.932l-.69 3.588c-.138.69.414 1.38 1.104 1.38h2.622c.69 0 1.38-.552 1.518-1.38 0 0 .69-3.312.69-3.588s-.138-.276-.138-.276c0-.277-2.208-4.003-2.484-4.14-.138 0-.138-.415-.138-.69s.276-1.657.276-1.657c.138-.552.552-.966 1.104-.966s.69.414.69.966l-.414 2.346h1.932l.69-3.45c.139-.828-.413-1.38-1.104-1.38z" fill="#f00"/></svg>