<svg height="200" width="203.78474" xmlns="http://www.w3.org/2000/svg"><path d="m190.68413 0h-177.583693c-7.2352259 0-13.100437 5.8652-13.100437 13.1004v155.7497h203.78457v-155.7497c0-7.2352-5.86536-13.1004-13.10044-13.1004z" fill="#808285"/><path d="m0 168.8501v15.1383c0 7.235 5.8652111 13.1004 13.100437 13.1004h.61179c13.877293 1.7045 48.296361 2.9112 88.559683 2.9112 40.27962 0 74.71004-1.2077 88.57627-2.9134 1.22198-.015 2.40349-.1971 3.523-.5246 1.9639-.3672 3.00888-.7522 3.00888-1.1492 0-.046-.0156-.092-.0435-.1374 3.85909-2.2793 6.44818-6.4805 6.44818-11.287v-15.1383h-203.78472z" fill="#414042"/><path d="m6.6017467 183.9884c0 3.5832 2.9152839 6.4986 6.4986903 6.4986h1.01572l.400874.049c13.936826 1.712 49.202765 2.8621 87.754729 2.8621 38.57205 0 73.84425-1.1508 87.77016-2.8639l.36128-.045h.36419c.59738-.01 1.18589-.095 1.74935-.2595l.31645-.093.32402-.061h.009l.81251-.4799c2.00612-1.185 3.20379-3.2793 3.20379-5.6027v-15.1383h-190.5809333v15.1383z" fill="#4d4d4f"/><path d="m190.68399 6.6017h-177.583553c-3.5834064 0-6.4986903 2.9153-6.4986903 6.4987v155.7497h190.5810733v-155.7497c0-3.5834-2.91557-6.4987-6.49883-6.4987z" fill="#8a8c8e"/><path d="m25.327511 168.6438c0 .1138-.09243.2063-.206259.2063h-5.118632c-.113974 0-.206259-.093-.206259-.2063v-163.1974c0-.1139.09243-.2062.206259-.2062h5.118632c.113974 0 .206259.092.206259.2062zm158.660849 0c0 .1138-.0924.2063-.20641.2063h-5.11849c-.11397 0-.2064-.093-.2064-.2063v-163.1974c0-.1139.0924-.2062.2064-.2062h5.11849c.11397 0 .20641.092.20641.2062zm-9.46143-35.0445c0 1.1393-.92373 2.063-2.06303 2.063h-141.14323c-1.139447 0-2.063028-.9237-2.063028-2.063v-114.9424c0-1.1394.923726-2.063 2.063028-2.063h141.14323c1.1393 0 2.06303.9237 2.06303 2.063zm-67.43086 17.5783h-10.407569c-1.045124 0-1.892286.8471-1.892286 1.8923 0 .5227.211791.9957.55444 1.3383l5.203495 5.2034c.3425.3425.81557.5543 1.33799.5543.52314 0 .99665-.2123 1.33901-.5553l5.20015-5.2001c.34395-.3427.55691-.8166.55691-1.3406.00015-1.0452-.84702-1.8923-1.89214-1.8923z" fill="#797a7d"/><path d="m172.7802 125.8341c0 3.418-2.77103 6.1892-6.18922 6.1892h-129.397385c-3.418195 0-6.189228-2.771-6.189228-6.1892v-100.2853c0-3.4182 2.771033-6.1893 6.189228-6.1893h129.397525c3.41805 0 6.18923 2.7711 6.18923 6.1893v100.2853z" fill="#2e2e2f"/><path d="m127.07424 33.0422h-52.11063l-20.378457-13.6827h94.032027z" fill="#0d0d0d" stroke="#ed1c24" stroke-miterlimit="10" stroke-width=".412606"/><path d="m79.864047 21.3985 2.210625 9.3556 2.199273-9.3556h-1.190248l-1.009025 5.2581-1.020378-5.2581zm4.897379 0h1.190394v9.3556h-1.190394zm2.255459 0v9.357h1.19083v-4.8345l1.655895 4.8345h1.097671l-1.3246-4.424c.735954-.3896.952402-.8998.952402-.8998v-2.9724c-.487482-.9554-1.328384-1.0608-1.328384-1.0608zm1.190684.9525h1.190684v3.2514h-1.190684zm2.755168-.9514h3.559679v.9506h-1.190393v8.405h-1.190247v-8.405h-1.179039zm10.146143 0-2.29971 9.3471v.01h1.179622l.249198-1.2612h1.66361l.23814 1.2612h1.19083l-2.22169-9.357zm0 4.0332.54323 3.2219h-1.17613zm2.69854-4.0321h1.19025v8.405h1.78006v.9506h-2.97031zm12.7313 0h1.08806l1.11121 4.0325 1.00903-4.0325h1.20174l-1.66652 5.5034v3.8522h-1.19039v-3.8522zm-2.1361 0c-1.35313 0-1.78806 1.0597-1.78806 1.0597.0114.015 0 7.0352 0 7.2354.17947 1.1373 1.78806 1.0605 1.78806 1.0605 1.78472 0 1.78413-1.0605 1.78413-1.0605v-7.2354c-.46157-1.1123-1.78413-1.0597-1.78413-1.0597zm-.59723 1.0597h1.19083v7.3437h-1.19083zm-18.818054-1.0597h1.201601v8.2951h1.201747v-8.2951h1.179039v8.2951s-.385444 1.0607-1.734497 1.0607c-1.349054 0-1.84789-1.0607-1.84789-1.0607zm13.106114 0v9.357h2.39272c1.11048-.2551 1.17962-.9525 1.17962-.9525s-.002-2.4991-.002-3.1453c-.0834-.4077-.46318-.4214-.46318-.4214s-.002-.1138 0-.2036c.41994-.028.46507-.4301.46507-.4301s-.002-2.4968 0-3.1431c-.18166-.7633-1.17962-1.0609-1.17962-1.0609h-2.39258zm1.19447 1.0674h1.19825v3.1365h-1.19825zm-.004 4.0857h1.20189v3.2514h-1.20189zm10.7179 3.253h.82751v.1087h-.35138v.8419h-.11907v-.8419h-.35706zm.94658.9506v-.9506h.11907l.42518.848.40801-.848h.12474v.9506h-.12474v-.7356l-.35211.7356h-.12009l-.36099-.7356v.7356zm51.83144 70.1188v-1.053l-10.45764-8.2866h10.45764v-.8251h-11.49898l-7.40859-5.8706h11.23377l7.67395 4.773v-.9717l-6.11135-3.8013h6.1112v-.8252h-7.43813l-7.09811-4.415h7.5984l6.9377 3.4803v-.9233l-5.09724-2.557h5.09738v-.8252h-6.74206l-6.47948-3.2505h8.35983l4.86171 2.138v-.9013l-2.81193-1.2367h2.81193v-.8252h-141.775833v.8252h3.568122l-3.568122 1.5691v.9015l5.618049-2.4706h8.359971l-6.479476 3.2505h-7.498544v.8252h5.853566l-5.853566 2.9365v.9232l7.693886-3.8597h5.560699l-7.098108 4.415h-6.156477v.8252h4.82984l-4.82984 3.0042v.9719l6.392285-3.976h13.271616l-7.408588 5.8706h-12.255313v.8252h11.213974l-11.213974 8.8859v1.0527l12.542649-9.9388h14.303493l-19.577292 23.0468h-7.26885v.8253h6.567685l-6.567685 7.7316v1.2745l7.650364-9.0061h43.529403l-3.446288 16.6179h.842794l3.446434-16.6179h38.486756l3.44643 16.6179h.8428l-3.44644-16.6179h43.52955l6.89403 8.1159v-1.2746l-5.8115-6.8413h5.8115v-.8253h-6.51251l-19.5773-23.0468h14.3035zm-9.00058-16.8604h-10.94847l-5.57162-4.415h9.42198zm-48.77642 0h-25.465645l.91572-4.415h23.634355zm-.0729-4.4151h20.53828l3.75051 4.415h-23.37322zm-26.23552 4.4151h-23.372926l3.750364-4.415h20.538282zm-24.455604 0h-11.200874l5.571762-4.415h9.379476zm.381659.8251h23.902766l-1.217467 5.8706h-27.672053zm24.745561 0h25.807864l1.21746 5.8706h-28.242792zm26.650654 0h23.90291l4.9869 5.8706h-27.67234zm20.53421-5.2402h9.37947l5.57162 4.415h-11.20073zm21.16681-4.0757 6.47962 3.2505h-7.28035l-5.22605-3.2505zm-7.58923 0 5.22591 3.2505h-9.13668l-4.10218-3.2505zm-9.34163 0 4.10218 3.2505h-9.03915l-2.76114-3.2505zm-8.78079 0 2.76129 3.2505h-20.00845l-.67423-3.2505zm-40.707856 0h21.943816l.67409 3.2505h-23.292141zm-.842794 0-.674091 3.2505h-20.008442l2.761135-3.2505zm-19.00393 0-2.761281 3.2505h-9.039156l4.102183-3.2505zm-9.026929 0-4.102184 3.2505h-11.174672l5.22591-3.2505zm-22.081805 3.2506 6.479476-3.2505h3.988937l-5.225909 3.2505zm-1.619796 5.2402 7.098107-4.415h11.459826l-5.571616 4.415zm5.865065 6.6958 7.408588-5.8706h11.541339l-4.986899 5.8706zm37.766958 23.8718h-42.999418l19.577147-23.0468h28.202038zm.842795 0 4.779621-23.0468h28.585151l4.77977 23.0468zm81.986902 0h-42.99957l-4.77976-23.0468h28.20203zm-19.19564-23.8718-4.9869-5.8706h11.5412l7.40859 5.8706z" fill="#ed1c24"/></svg>