<svg xmlns="http://www.w3.org/2000/svg" width="321.427" height="200"><clipPath id="a"><path d="M0 168.315h270.505V0H0z"/></clipPath><g clip-path="url(#a)" transform="matrix(1.18825 0 0 -1.18825 0 200)"><path fill="#282827" d="M261.495 55.366c0-3.203-2.65-5.851-5.851-5.851H14.104a5.85 5.85 0 0 0-5.851 5.85v83.512a5.85 5.85 0 0 0 5.85 5.85h241.54c3.203 0 5.852-2.648 5.852-5.85zM83.265 163.449h105.497c3.879 0 7.082-3.14 7.082-7.02s-3.203-7.083-7.082-7.083H83.265c-3.88 0-7.021 3.203-7.021 7.083s3.14 7.02 7.02 7.02m180.263 4.866H6.96c-3.82 0-6.96-3.08-6.96-6.898V49.023c0-2.71 1.54-5.05 3.818-6.16.924-.553 2.032-.8 3.141-.8h256.568c3.14 0 5.789 2.094 6.65 4.927.185.616.308 1.355.308 2.033v112.394c0 3.819-3.079 6.898-6.959 6.898"/><path fill="#30302f" d="M261.495 3.572H12.626v33.133h248.869zm4.187 8.252v16.013h4.558l-.062 19.153c-.862-2.833-3.51-4.927-6.651-4.927H6.959c-1.108 0-2.217.247-3.141.801V27.837h4.558V11.824s-6.159-1.046-4.558-6.035C5.42.739 8.376 0 8.376 0h257.306s2.956.739 4.558 5.789c1.601 4.989-4.558 6.035-4.558 6.035"/><path fill="#42484c" d="M261.495 138.877V55.364c0-3.202-2.65-5.85-5.851-5.85H14.104a5.85 5.85 0 0 0-5.851 5.85v83.511a5.85 5.85 0 0 0 5.85 5.851h241.54c3.203 0 5.852-2.648 5.852-5.85"/><path fill="#212120" d="M195.844 156.429c0-3.88-3.203-7.083-7.082-7.083H83.265c-3.88 0-7.021 3.203-7.021 7.083s3.14 7.02 7.02 7.02h105.498c3.879 0 7.082-3.14 7.082-7.02"/><path fill="#919697" d="M261.495 27.96H12.626v8.745h248.869z"/><path fill="#424443" d="M110.116 3.572h4.249V27.96h-4.249zm142.141 0h4.249V27.96h-4.249zm-7.945 0h4.003V27.96h-4.003zm-8.191 0h3.941V27.96h-3.941zm-8.006 0h4.249V27.96h-4.249zm-7.945 0h4.003V27.96h-4.003zm-8.191 0h4.003V27.96h-4.003zm-8.622 0h4.249V27.96h-4.249zm-7.945 0h4.003V27.96h-4.003zm-8.19 0h3.941V27.96h-3.941zm-7.945 0h4.188V27.96h-4.188zm-7.945 0h3.942V27.96h-3.942zm-8.252 0h4.003V27.96h-4.003zm-8.437 0h4.188V27.96h-4.188zm-7.945 0h3.942V27.96h-3.942zm-8.253 0h4.003V27.96h-4.003zm-7.944 0h4.249V27.96h-4.249zm-7.945 0h3.941V27.96h-3.941zm-20.693 0h4.003V27.96h-4.003zm-8.19 0h4.249V27.96h-4.249zm-15.89 0h3.942V27.96h-3.942zm-8.252 0h4.249V27.96h-4.249zm-8.191 0h4.249V27.96H61.34zm-8.191 0h3.942V27.96h-3.942zm-8.191 0h4.188V27.96h-4.188zm-7.76 0h3.757V27.96h-3.757zm-8.191 0h4.003V27.96h-4.003zm-8.191 0h4.249V27.96h-4.249zm-4.003 0h-4.188V27.96h4.188z"/><path fill="#3b4a45" d="M114.365 3.572h3.942V27.96h-3.942zm-32.64 0h4.249V27.96h-4.249zm174.781 0h4.988V27.96h-4.988zm-8.191 0h3.942V27.96h-3.942zm-8.253 0h4.249V27.96h-4.249zm-7.698 0h3.757V27.96h-3.757zm-8.191 0h3.941V27.96h-3.941zm-8.191 0h4.188V27.96h-4.188zm-8.375 0h4.372V27.96h-4.372zm-8.191 0h3.942V27.96h-3.942zm-8.253 0h4.249V27.96h-4.249zm-7.698 0h3.757V27.96h-3.757zm-8.191 0h4.003V27.96h-4.003zm-8.191 0h4.249V27.96h-4.249zm-8.253 0h4.249V27.96h-4.249zm-8.19 0h4.003V27.96h-4.003zm-8.191 0h4.249V27.96h-4.249zm-7.699 0h3.695V27.96h-3.695zm-8.252 0h4.003V27.96h-4.003zm-8.191 0h4.249V27.96h-4.249zm-12.441 0h4.249V27.96h-4.249zm-7.944 0h3.941V27.96h-3.941zm-8.191 0h3.942V27.96h-3.942zm-3.757 0h3.757V27.96h-3.757zm-12.194 0h4.003V27.96H73.78zm-8.191 0h3.941V27.96h-3.941zm-8.499 0h4.249V27.96H57.09zm-7.944 0h4.003V27.96h-4.003zm-8.191 0h4.003V27.96h-4.003zm-7.945 0h4.188V27.96H33.01zm-7.944 0h3.942V27.96h-3.942zm-4.25 0h-4.003V27.96h4.003z"/><path fill="#e72835" d="M48.97 120.159c.387.636.474 1.3.535 1.962.05.54-.065 1.07-.181 1.597-.397 1.806-1.304 3.337-2.55 4.675-.432.465-.884.913-1.385 1.314a14.4 14.4 0 0 1-2.163 1.445c-.965.522-1.992.899-3.068 1.109-.615.12-1.252.214-1.874.19a7.4 7.4 0 0 1-1.67-.255c-1.374-.377-2.414-1.18-3.05-2.444-.55-1.091-.611-2.28-.373-3.459a8.8 8.8 0 0 1 1.187-2.943c.716-1.135 1.556-2.166 2.614-3.02.68-.549 1.382-1.055 2.143-1.476 1.703-.941 3.512-1.493 5.479-1.399.54.026 1.07.126 1.572.349a2.5 2.5 0 0 1-.47.023c-.925-.036-1.781.227-2.601.621a7.44 7.44 0 0 0-3.236 2.986c-.592 1.007-.902 2.113-.595 3.298a2.68 2.68 0 0 0 1.053 1.556c.886.646 1.896.633 2.882.525.805-.088 1.58-.401 2.294-.822 1.035-.61 1.925-1.38 2.572-2.396.62-.974 1.04-2.019.865-3.216-.008-.053.01-.111.02-.22m-9.692 19.448c.275-.208.616-.121.916-.167 1.589-.244 3.102-.721 4.574-1.346a25.7 25.7 0 0 0 4.21-2.265c.902-.6 1.776-1.249 2.597-1.969.464-.406.894-.848 1.375-1.238.465-.378.836-.873 1.236-1.325a18 18 0 0 0 1.51-1.96c.912-1.362 1.603-2.828 1.954-4.432.099-.454.208-.932.066-1.518-.064.556-.102 1.014-.254 1.444-.276.78-.695 1.485-1.19 2.146-.454.608-.943 1.189-1.51 1.695-.753.672-1.55 1.282-2.431 1.791a11 11 0 0 1-2.726 1.112c-.777.205-1.574.305-2.391.224 0-.137.112-.196.208-.261.65-.438 1.246-.942 1.83-1.466.437-.392.844-.803 1.238-1.239.72-.8 1.36-1.655 1.93-2.564a13.1 13.1 0 0 0 1.637-3.934 9.2 9.2 0 0 0 .159-3.488 8.1 8.1 0 0 0-1.334-3.45c-.684-1-1.585-1.773-2.653-2.376-1.071-.605-2.21-.999-3.394-1.263a12.5 12.5 0 0 0-1.59-.236c-.767-.072-1.534-.148-2.304-.167-.926-.023-1.836.126-2.752.258-.926.134-1.813.387-2.691.677-1.722.571-3.34 1.368-4.898 2.297a27.5 27.5 0 0 0-2.896 1.991 22.6 22.6 0 0 0-2.96 2.765c-1.177 1.326-2.247 2.737-2.981 4.371-.387.861-.688 1.744-.835 2.685a5.4 5.4 0 0 0-.044 1.149c.076-.379.14-.758.222-1.134.172-.795.602-1.456 1.028-2.117.384-.595.88-1.108 1.357-1.626.425-.462.926-.862 1.428-1.243.667-.504 1.376-.959 2.14-1.301 1.072-.48 2.176-.878 3.375-.889.233-.002.439-.147.683-.101.119.022.247-.002.314.145-1.253.83-2.365 1.834-3.371 2.945-.81.894-1.491 1.889-2.11 2.93-.74 1.244-1.175 2.594-1.504 3.984-.154.649-.12 1.323-.127 1.99-.022 1.749.562 3.312 1.559 4.697.89 1.238 2.123 2.086 3.545 2.673.834.344 1.69.597 2.56.79.547.121 1.113.22 1.685.226.109.001.255-.076.325.09z"/><g fill="#262223"><path d="M21.411 108.534c.328.2.53.612.987.6.165-.003.331 0 .517 0l-.665-2.764c.511.178.498.19.661.699.162.506.297 1.018.424 1.533.055.223.454.534.681.53.272-.003.546.024.822-.018l-.656-2.751c.35.2.601.383.664.76.072.434.188.859.283 1.288.068.306.365.422.533.644.098.13.241.072.366.077.201.008.402.002.611.002-.22-.884-.437-1.734-.644-2.586-.047-.191-.028-.158-.272-.42l-.297-.255c-.192-.165-.385-.27-.657-.266-1.34.014-2.682.006-4.023.006 0 .072.651 2.912.665 2.92m39.626-2.759h-1.31q.139.521.282 1.047c.123.445.018.587-.439.588h-.344c-.107-.37-.209-.743-.324-1.112-.13-.413-.408-.62-.829-.609-.24.006-.493-.059-.727.05.1.487.59 1.95.651 2.174h1.98c.238 0 .477-.01.714.003.273.015.478-.102.655-.29 0-.24-.21-1.459-.309-1.85m-20.895 1.628c-.959.022-1.144-.052-1.202-.47.707-.082.75-.066 1.202.47m1.084-.225c.303.285.633.432.933.626a.75.75 0 0 0 .435.111 63 63 0 0 1 1.688 0 .9.9 0 0 0 .5-.133c.274-.17.344-.372.162-.63a.8.8 0 0 0-.448-.326c-.353-.099-.7-.11-1.046.015.012.064.015.087.021.11.04.132.221.244.068.406-.076.081-.397.056-.538-.004-.322-.138-.417-.427-.473-.723-.06-.318-.193-.613-.24-.93h-1.344l.3 1.414c-.18-.064-.263-.19-.362-.284-.409-.387-.889-.487-1.429-.43-.21.022-.426.003-.628.003-.06-.098-.048-.176-.018-.277h1.74c-.25-.28-.509-.517-.903-.514-.526.004-1.053-.002-1.58.003-.102.001-.2-.004-.308.045-.352.16-.498.246-.35.723.11.355.14.736.448.993.206.172.427.326.635.494.088.071.183.04.274.04q1.006.005 2.011.002c.365 0 .442-.08.452-.46.002-.072 0-.143 0-.274"/><path d="M43.307 105.644c.237.237.466.458.685.688.079.086.17.073.262.07.93-.02 1.862.045 2.792-.032.198-.017.283.09.363.464-.41 0-.812.027-1.21-.007-.461-.039-.774.23-.74.746.04.578.31 1.005.766 1.33.08.057.18.092.296.091.955-.007 1.91-.004 2.924-.004-.21-.214-.387-.385-.552-.567-.087-.096-.19-.079-.295-.08q-.574.002-1.15 0c-.378-.003-.527-.135-.618-.575.42 0 .834-.004 1.247.002a.79.79 0 0 0 .672-.317c.163-.214.126-.488.084-.723-.082-.45-.316-.823-.75-1.034a.74.74 0 0 0-.334-.087c-1.45.006-2.897.004-4.346.005-.02 0-.04.011-.096.03m8.738.63c.324.15.55.363.634.74.104.465.278.571.505.818.135.147.314.062.473.078.116.011.234.002.358.002-.05-.518-.243-.973-.297-1.458-.027-.236-.767-.638-.903-.785-.059-.064-.126-.056-.195-.056q-1.92 0-3.839.002c-.022 0-.044.017-.08.032.082.51.21 1.014.318 1.52.064.297.382.47.6.685.125.124.293.045.442.058.13.011.261.002.435.002-.05-.588-.248-1.128-.363-1.67.052-.05.07-.006.097.002.51.157.554.6.624 1.023.056.343.397.644.748.645q.341 0 .682-.003c.022 0 .044-.015.066-.024-.097-.52-.334-1.637-.305-1.61m-15.8 1.093c-.21.063-.354.041-.494.04-.238-.004-.519-.13-.603-.447-.063-.235-.173-.538-.078-.82.522-.048.83.025 1.027.508.08.193.148.473.148.72m1.935 1.333c-.195-.274-.336-.514-.518-.716-.218-.24-.253-.534-.318-.826-.113-.507-.237-1.013-.364-1.547h-1.43q-.61-.001-1.22 0c-.486.002-.72.26-.644.74.034.214.105.425.182.63.073.194.106.28.285.43.13.11 0 0 .486.34.304.186.271.167.447.162.298-.009.598.002.896-.004.173-.004.3.021.428.2.296.413.19.272.296.413.06.078.121.18.25.18.39-.003.78-.002 1.224-.002m-10.586-2.575c.773 0 1.042.518 1.024 1.262-.731.117-1.183-.234-1.024-1.262m2.212.446a.68.68 0 0 0-.301-.429c-.243-.158-.493-.305-.731-.468-.098-.067-.198-.063-.304-.063-.575 0-1.151-.025-1.724.007-.507.03-.712.325-.583.768.045.155.079.32.136.463.083.212.157.423.39.582.417.32.27.222.417.32.153.102.31.174.517.167.61-.022 1.22-.008 1.832-.008.459 0 .664-.262.526-.706a22 22 0 0 1-.175-.633m26.568.784c-.321.083-.588.12-.821-.162a3 3 0 0 1-.288-.395c-.072-.123-.131-.293-.008-.445.139-.17.33-.258.534-.307.134-.032.206.041.244.187.095.365.216.723.339 1.122m.844-1.6c-.935 0-1.877-.004-2.82.002-.24.002-.5.334-.526.615-.057.623.242 1.03.756 1.333.25.148.503.216.796.21.812-.014 1.624-.005 2.445-.005-.036-.203-.496-1.68-.651-2.156m-27.002 1.935c.067.171.129.223.293.223.85-.004 1.7.01 2.55-.008.332-.006.572-.192.56-.558-.013-.452-.17-.866-.265-1.295-.02-.089-.002-.188-.06-.283h-1.205c.059.332.096.652.18.96.034.12.046.231.045.346-.004.223-.102.323-.32.332-.166.007-.332.001-.508.001-.096-.366-.18-.724-.282-1.075-.123-.419-.448-.649-.885-.649-.624 0-.611-.004-.474.6.046.201.268 1.143.37 1.406"/></g></g></svg>