<svg viewBox="0 0 432.949 350.562" xmlns="http://www.w3.org/2000/svg"><path d="m60.843 338.353h28.618v12.209h-28.618zm34.914 0h28.618v12.209h-28.618z" fill="#a5a5a7"/><path d="m0 0h432.949v343.416h-432.949z" fill="#e0e0e1"/><path d="m44.766 343.416v-41.699h282.415v41.699" fill="none" stroke="#a3a3a4" stroke-miterlimit="10" stroke-width="1.143"/><path d="m327.778 0h67.301v343.416h-67.301z" fill="#a3a3a4"/><path d="m327.778 0h67.301v41.699h-67.301zm0 301.717h67.301v41.699h-67.301z" fill="#09070a"/><path d="m330.069 343.273a2.148 2.148 0 0 1 -2.146-2.146v-16.271c0-1.184.963-2.146 2.146-2.146h62.722c1.184 0 2.146.963 2.146 2.146v16.271a2.148 2.148 0 0 1 -2.146 2.146z" fill="#202020"/><path d="m392.791 322.853c1.104 0 2.003.899 2.003 2.004v16.27a2.005 2.005 0 0 1 -2.003 2.004h-62.723a2.006 2.006 0 0 1 -2.004-2.004v-16.27c0-1.105.899-2.004 2.004-2.004zm0-.286h-62.723a2.29 2.29 0 0 0 -2.29 2.29v16.27a2.29 2.29 0 0 0 2.29 2.29h62.723a2.29 2.29 0 0 0 2.289-2.29v-16.27a2.289 2.289 0 0 0 -2.289-2.29z" fill="#070308"/><path d="m330.069 322.423a2.148 2.148 0 0 1 -2.146-2.146v-16.271c0-1.184.963-2.146 2.146-2.146h62.722c1.184 0 2.146.962 2.146 2.146v16.271a2.148 2.148 0 0 1 -2.146 2.146z" fill="#202020"/><path d="m392.791 302.003c1.104 0 2.003.899 2.003 2.003v16.271a2.005 2.005 0 0 1 -2.003 2.003h-62.723a2.006 2.006 0 0 1 -2.004-2.003v-16.271c0-1.104.899-2.003 2.004-2.003zm0-.286h-62.723a2.289 2.289 0 0 0 -2.29 2.289v16.271a2.29 2.29 0 0 0 2.29 2.289h62.723a2.29 2.29 0 0 0 2.289-2.289v-16.271a2.289 2.289 0 0 0 -2.289-2.289z" fill="#070308"/><path d="m330.069 41.556a2.148 2.148 0 0 1 -2.146-2.146v-16.271c0-1.183.963-2.146 2.146-2.146h62.722c1.184 0 2.146.963 2.146 2.146v16.271a2.148 2.148 0 0 1 -2.146 2.146z" fill="#202020"/><path d="m392.791 21.137c1.104 0 2.003.899 2.003 2.003v16.27a2.005 2.005 0 0 1 -2.003 2.003h-62.723a2.006 2.006 0 0 1 -2.004-2.003v-16.27c0-1.104.899-2.003 2.004-2.003zm0-.287h-62.723a2.29 2.29 0 0 0 -2.29 2.289v16.271a2.29 2.29 0 0 0 2.29 2.289h62.723a2.29 2.29 0 0 0 2.289-2.289v-16.27a2.29 2.29 0 0 0 -2.289-2.29z" fill="#070308"/><path d="m330.069 20.707a2.148 2.148 0 0 1 -2.146-2.147v-16.271c0-1.183.963-2.146 2.146-2.146h62.722c1.184 0 2.146.963 2.146 2.146v16.271a2.148 2.148 0 0 1 -2.146 2.147z" fill="#202020"/><path d="m392.791.286c1.104 0 2.003.899 2.003 2.003v16.271a2.005 2.005 0 0 1 -2.003 2.004h-62.723a2.006 2.006 0 0 1 -2.004-2.004v-16.271c0-1.104.899-2.003 2.004-2.003zm0-.286h-62.723a2.29 2.29 0 0 0 -2.29 2.289v16.271a2.29 2.29 0 0 0 2.29 2.291h62.723a2.29 2.29 0 0 0 2.289-2.291v-16.271a2.29 2.29 0 0 0 -2.289-2.289z" fill="#070308"/><path d="m327.778 296.795h67.301v4.922h-67.301zm0-9.11h67.301v4.92h-67.301zm0-9.112h67.301v4.921h-67.301zm0-9.109h67.301v4.921h-67.301zm0-9.11h67.301v4.921h-67.301zm0-9.111h67.301v4.921h-67.301zm0-9.112h67.301v4.921h-67.301zm0-9.11h67.301v4.921h-67.301zm0-9.11h67.301v4.921h-67.301zm0-9.11h67.301v4.921h-67.301zm0-9.111h67.301v4.921h-67.301zm0-9.111h67.301v4.921h-67.301zm0-9.112h67.301v4.924h-67.301zm0-9.108h67.301v4.921h-67.301zm0-9.112h67.301v4.921h-67.301zm0-9.11h67.301v4.921h-67.301zm0-9.111h67.301v4.922h-67.301zm0-9.11h67.301v4.921h-67.301zm0-9.11h67.301v4.921h-67.301zm0-9.112h67.301v4.921h-67.301zm0-9.11h67.301v4.921h-67.301zm0-9.111h67.301v4.921h-67.301zm0-9.11h67.301v4.921h-67.301zm0-9.11h67.301v4.921h-67.301zm0-9.111h67.301v4.921h-67.301zm0-9.111h67.301v4.922h-67.301zm0-9.11h67.301v4.921h-67.301zm0-9.111h67.301v4.921h-67.301zm0-9.111h67.301v4.921h-67.301z" fill="#e0e0e1"/></svg>